<svg width="317" height="363" fill="none" xmlns="http://www.w3.org/2000/svg">
	<path d="M97.5 87.5c-39.2-10.8-81.667-37.833-98-50v256c2-.833 10.2-.4 27 8 21 10.5 41 76.5 81.5 57s20.5-51 108.5-57S332.5 283 308 259s-95.5-64-101.5-102.5-60-55.5-109-69Z" stroke="#E3E6FF"/>
	<path d="M94.914 71.37C56.948 60.922 15.819 34.77 0 23v247.654c1.937-.806 9.879-.386 26.15 7.74 20.338 10.157 39.709 74.006 78.933 55.141 39.225-18.864 19.855-49.337 105.083-55.141 85.229-5.805 112.348-17.897 88.619-41.115-23.728-23.217-92.493-61.913-98.304-99.158-5.811-37.245-58.11-53.691-105.567-66.751Z" stroke="#E3E6FF"/>
	<path d="M93.059 48.292C55.835 38.077 15.509 12.508 0 1v242.133c1.9-.788 9.686-.378 25.639 7.567 19.94 9.931 38.933 72.356 77.391 53.913 38.458-18.444 19.466-48.238 103.029-53.913 83.563-5.675 110.151-17.498 86.887-40.198-23.265-22.7-90.685-60.533-96.383-96.948-5.697-36.414-56.975-52.494-103.504-65.262Z" stroke="#E3E6FF"/>
</svg>
