<svg width="525" height="352" fill="none" xmlns="http://www.w3.org/2000/svg">
	<path d="M0 30.004c15.54-11.118 55.675-7.184 79.728 38.483 30.068 57.084 63.175 68.629 119.931 68.629 56.162 0 99.998 33.352 116.552 81.456 16.554 48.104 79.053 26.297 117.228 44.256 30.54 14.367 49.661 64.994 55.404 88.512" stroke="#E3E6FF"/>
	<path d="M0 6.605C16.658-5.322 59.679-1.102 85.462 47.891c32.23 61.24 67.718 73.625 128.556 73.625 60.202 0 107.19 35.781 124.934 87.388 17.745 51.607 84.738 28.212 125.659 47.479 32.736 15.413 53.233 69.726 59.389 94.957" stroke="#E3E6FF"/>
	<path d="M0 53.401c14.423-10.307 51.67-6.66 73.995 35.682 27.904 52.927 58.631 63.631 111.305 63.631 52.123 0 92.807 30.924 108.17 75.525 15.363 44.602 73.367 24.382 108.797 41.034 28.344 13.321 46.09 60.261 51.42 82.066" stroke="#E3E6FF"/>
</svg>
