<svg width="1176" height="929" fill="none" xmlns="http://www.w3.org/2000/svg">
	<path d="M246.555 126.218C85.665 97.065 53.251 47.81-.328 0v619.615c35.545 43.858 111.525 118.232 153.383 152.227 68.286 55.459 233.902 136.927 368.374 148.019 98.704 8.141 425.849 47.045 577.131-133.485 238.91-285.103-146.51-498.238-245.833-533.558-293.631-104.416-492.187-105.946-606.172-126.6Z" fill="url(#a)"/>
	<path d="M214.806 139.092C74.606 113.22 46.36 69.509-.327 27.08v549.877C30.646 615.879 96.855 681.882 133.33 712.05c59.505 49.218 203.823 121.517 321.002 131.36 86.01 7.225 371.085 41.75 502.911-118.461 208.187-253.014-127.667-442.161-214.218-473.505-255.871-92.665-428.892-94.023-528.219-112.352Z" fill="url(#b)"/>
	<defs>
		<linearGradient id="a" x1="582.112" y1="0" x2="582.112" y2="942.288" gradientUnits="userSpaceOnUse">
			<stop stop-color="#EAECFF"/>
			<stop offset="1" stop-color="#fff" stop-opacity="0"/>
		</linearGradient>
		<linearGradient id="b" x1="507.211" y1="27.08" x2="507.211" y2="863.313" gradientUnits="userSpaceOnUse">
			<stop stop-color="#E4E7FF"/>
			<stop offset="1" stop-color="#fff" stop-opacity="0"/>
		</linearGradient>
	</defs>
</svg>
