<svg width="258" height="63" fill="none" xmlns="http://www.w3.org/2000/svg">
	<circle cx="31.5" cy="31.5" r="31.5" fill="#FF64AE"/>
	<rect x="39" y="26" width="40" height="11" rx="5.5" fill="#fff"/>
	<circle cx="28" cy="26" r="3" fill="#fff"/>
	<circle cx="18.5" cy="17.5" r="6.5" fill="#fff"/>
	<path d="M108.688 31.36c.976.208 1.76.696 2.352 1.464.592.752.888 1.616.888 2.592 0 1.408-.496 2.528-1.488 3.36-.976.816-2.344 1.224-4.104 1.224h-7.848V23.152h7.584c1.712 0 3.048.392 4.008 1.176.976.784 1.464 1.848 1.464 3.192 0 .992-.264 1.816-.792 2.472-.512.656-1.2 1.112-2.064 1.368Zm-6.096-1.392h2.688c.672 0 1.184-.144 1.536-.432.368-.304.552-.744.552-1.32 0-.576-.184-1.016-.552-1.32-.352-.304-.864-.456-1.536-.456h-2.688v3.528Zm3.024 6.72c.688 0 1.216-.152 1.584-.456.384-.32.576-.776.576-1.368 0-.592-.2-1.056-.6-1.392-.384-.336-.92-.504-1.608-.504h-2.976v3.72h3.024Zm23.716-3.6c0 .384-.024.784-.072 1.2h-9.288c.064.832.328 1.472.792 1.92.48.432 1.064.648 1.752.648 1.024 0 1.736-.432 2.136-1.296h4.368a5.916 5.916 0 0 1-1.224 2.376 5.958 5.958 0 0 1-2.184 1.656c-.88.4-1.864.6-2.952.6-1.312 0-2.48-.28-3.504-.84a5.975 5.975 0 0 1-2.4-2.4c-.576-1.04-.864-2.256-.864-3.648 0-1.392.28-2.608.84-3.648a5.975 5.975 0 0 1 2.4-2.4c1.024-.56 2.2-.84 3.528-.84 1.296 0 2.448.272 3.456.816a5.781 5.781 0 0 1 2.352 2.328c.576 1.008.864 2.184.864 3.528Zm-4.2-1.08c0-.704-.24-1.264-.72-1.68-.48-.416-1.08-.624-1.8-.624-.688 0-1.272.2-1.752.6-.464.4-.752.968-.864 1.704h5.136Zm7.949 1.272c0-1.376.256-2.584.768-3.624.528-1.04 1.24-1.84 2.136-2.4.896-.56 1.896-.84 3-.84.944 0 1.768.192 2.472.576.72.384 1.272.888 1.656 1.512v-1.896h4.104V40h-4.104v-1.896c-.4.624-.96 1.128-1.68 1.512-.704.384-1.528.576-2.472.576-1.088 0-2.08-.28-2.976-.84-.896-.576-1.608-1.384-2.136-2.424-.512-1.056-.768-2.272-.768-3.648Zm10.032.024c0-1.024-.288-1.832-.864-2.424a2.73 2.73 0 0 0-2.064-.888c-.816 0-1.512.296-2.088.888-.56.576-.84 1.376-.84 2.4s.28 1.84.84 2.448c.576.592 1.272.888 2.088.888a2.73 2.73 0 0 0 2.064-.888c.576-.592.864-1.4.864-2.424Zm22.697-6.696V40h-4.104v-1.824c-.416.592-.984 1.072-1.704 1.44-.704.352-1.488.528-2.352.528-1.024 0-1.928-.224-2.712-.672-.784-.464-1.392-1.128-1.824-1.992-.432-.864-.648-1.88-.648-3.048v-7.824h4.08v7.272c0 .896.232 1.592.696 2.088.464.496 1.088.744 1.872.744.8 0 1.432-.248 1.896-.744.464-.496.696-1.192.696-2.088v-7.272h4.104Zm12.812 9.912V40h-2.088c-1.488 0-2.648-.36-3.48-1.08-.832-.736-1.248-1.928-1.248-3.576v-5.328h-1.632v-3.408h1.632v-3.264h4.104v3.264h2.688v3.408h-2.688v5.376c0 .4.096.688.288.864.192.176.512.264.96.264h1.464Zm6.75-11.304c-.72 0-1.312-.208-1.776-.624a2.116 2.116 0 0 1-.672-1.584c0-.64.224-1.168.672-1.584.464-.432 1.056-.648 1.776-.648.704 0 1.28.216 1.728.648.464.416.696.944.696 1.584 0 .624-.232 1.152-.696 1.584-.448.416-1.024.624-1.728.624Zm2.04 1.392V40h-4.104V26.608h4.104Zm4.558 6.696c0-1.392.28-2.608.84-3.648a6.017 6.017 0 0 1 2.376-2.4c1.024-.56 2.192-.84 3.504-.84 1.68 0 3.08.44 4.2 1.32 1.136.88 1.88 2.12 2.232 3.72h-4.368c-.368-1.024-1.08-1.536-2.136-1.536-.752 0-1.352.296-1.8.888-.448.576-.672 1.408-.672 2.496s.224 1.928.672 2.52c.448.576 1.048.864 1.8.864 1.056 0 1.768-.512 2.136-1.536h4.368c-.352 1.568-1.096 2.8-2.232 3.696-1.136.896-2.536 1.344-4.2 1.344-1.312 0-2.48-.28-3.504-.84a6.017 6.017 0 0 1-2.376-2.4c-.56-1.04-.84-2.256-.84-3.648Zm30.372-.216c0 .384-.024.784-.072 1.2h-9.288c.064.832.328 1.472.792 1.92.48.432 1.064.648 1.752.648 1.024 0 1.736-.432 2.136-1.296h4.368a5.916 5.916 0 0 1-1.224 2.376 5.958 5.958 0 0 1-2.184 1.656c-.88.4-1.864.6-2.952.6-1.312 0-2.48-.28-3.504-.84a5.975 5.975 0 0 1-2.4-2.4c-.576-1.04-.864-2.256-.864-3.648 0-1.392.28-2.608.84-3.648a5.975 5.975 0 0 1 2.4-2.4c1.024-.56 2.2-.84 3.528-.84 1.296 0 2.448.272 3.456.816a5.781 5.781 0 0 1 2.352 2.328c.576 1.008.864 2.184.864 3.528Zm-4.2-1.08c0-.704-.24-1.264-.72-1.68-.48-.416-1.08-.624-1.8-.624-.688 0-1.272.2-1.752.6-.464.4-.752.968-.864 1.704h5.136Z" fill="#fff"/>
</svg>
