<svg width="519" height="402" fill="none" xmlns="http://www.w3.org/2000/svg">
	<path d="M509.259 338.775H10.22v.25H509.26v-.25ZM459.255 354.851h-33.056v.25h33.056v-.25ZM340.803 357.569h-8.673v.249h8.673v-.249ZM425.201 345.579h-19.153v.25h19.153v-.25ZM105.686 347.258H62.579v.249h43.107v-.249ZM120.897 347.258h-6.318v.249h6.318v-.249ZM234.937 351.474h-93.5v.25h93.5v-.25ZM246.784 294.214H54.056a5.707 5.707 0 0 1-5.7-5.705V17.315a5.707 5.707 0 0 1 5.7-5.705h192.728c3.144 0 5.7 2.558 5.7 5.705v271.194c-.01 3.147-2.566 5.705-5.7 5.705ZM54.056 11.86a5.46 5.46 0 0 0-5.45 5.455v271.194a5.46 5.46 0 0 0 5.45 5.455h192.728a5.46 5.46 0 0 0 5.45-5.455V17.315a5.46 5.46 0 0 0-5.45-5.455H54.056ZM462.658 294.214H269.93a5.707 5.707 0 0 1-5.699-5.705V17.315a5.706 5.706 0 0 1 5.699-5.705h192.728c3.144 0 5.7 2.558 5.7 5.705v271.194a5.708 5.708 0 0 1-5.7 5.705ZM269.94 11.86a5.46 5.46 0 0 0-5.45 5.455v271.194a5.46 5.46 0 0 0 5.45 5.455h192.728a5.46 5.46 0 0 0 5.45-5.455V17.315a5.46 5.46 0 0 0-5.45-5.455H269.94Z" fill="#EBEBEB"/>
	<path d="M454.784 73.776H212.97v233.337h241.814V73.776Z" fill="#E0E0E0"/>
	<path d="M454.784 78.022H216.852v225.024h237.932V78.022Z" fill="#F5F5F5"/>
	<path d="M218.609 248.544v-67.681h7.026v-8.943l15.8-7.393v-9.152h2.635v25.488h2.635v67.681h3.513v-35.16h7.905V194.93h2.635v53.614h6.148v-20.213h4.391v-5.275h9.652v-18.464h5.269v-12.299h6.149v-18.464h2.635v18.464h6.148v12.299h5.27v18.464h9.661v5.275h4.381v20.213h5.27v-25.488h9.662v-56.261h2.635v-6.145h21.069v6.145h4.392v40.435h17.566v4.396h6.148v2.638h-6.148v15.826h18.434v-52.744h3.513v-10.551h8.784V126.36h2.634v40.435h6.149v10.551h34.214v125.7H216.852v-54.502h1.757Z" fill="#E6E6E6"/>
	<path d="M436.499 180.103h-2.485v2.488h2.485v-2.488ZM436.499 184.28h-2.485v2.487h2.485v-2.487ZM436.499 200.975h-2.485v2.488h2.485v-2.488ZM436.499 205.151h-2.485v2.488h2.485v-2.488ZM436.499 209.328h-2.485v2.488h2.485v-2.488ZM436.499 221.857h-2.485v2.488h2.485v-2.488ZM436.499 226.033h-2.485v2.488h2.485v-2.488ZM432.547 196.809h-2.486v2.487h2.486v-2.487ZM432.547 200.975h-2.486v2.488h2.486v-2.488ZM432.547 205.151h-2.486v2.488h2.486v-2.488ZM432.547 209.328h-2.486v2.488h2.486v-2.488ZM432.547 213.504h-2.486v2.488h2.486v-2.488ZM432.547 221.857h-2.486v2.488h2.486v-2.488ZM432.547 226.033h-2.486v2.488h2.486v-2.488ZM428.594 180.103h-2.485v2.488h2.485v-2.488ZM428.594 184.28h-2.485v2.487h2.485v-2.487ZM428.594 188.456h-2.485v2.488h2.485v-2.488ZM428.594 192.632h-2.485v2.488h2.485v-2.488ZM428.594 196.809h-2.485v2.487h2.485v-2.487ZM428.594 200.975h-2.485v2.488h2.485v-2.488ZM428.594 205.151h-2.485v2.488h2.485v-2.488ZM428.594 209.328h-2.485v2.488h2.485v-2.488ZM428.594 213.504h-2.485v2.488h2.485v-2.488ZM428.594 217.681h-2.485v2.488h2.485v-2.488ZM428.594 226.033h-2.485v2.488h2.485v-2.488ZM424.642 180.103h-2.485v2.488h2.485v-2.488ZM424.642 184.28h-2.485v2.487h2.485v-2.487ZM424.642 188.456h-2.485v2.488h2.485v-2.488ZM424.642 192.632h-2.485v2.488h2.485v-2.488ZM424.642 196.809h-2.485v2.487h2.485v-2.487ZM424.642 200.975h-2.485v2.488h2.485v-2.488ZM424.642 205.151h-2.485v2.488h2.485v-2.488ZM424.642 242.729h-2.485v2.488h2.485v-2.488ZM420.689 180.103h-2.485v2.488h2.485v-2.488ZM420.689 184.28h-2.485v2.487h2.485v-2.487ZM420.689 188.456h-2.485v2.488h2.485v-2.488ZM420.689 192.632h-2.485v2.488h2.485v-2.488ZM420.689 196.809h-2.485v2.487h2.485v-2.487ZM420.689 200.975h-2.485v2.488h2.485v-2.488ZM420.689 205.151h-2.485v2.488h2.485v-2.488ZM420.689 209.328h-2.485v2.488h2.485v-2.488ZM420.689 234.386h-2.485v2.488h2.485v-2.488ZM420.689 238.562h-2.485v2.488h2.485v-2.488ZM420.689 242.729h-2.485v2.488h2.485v-2.488ZM420.689 246.905h-2.485v2.488h2.485v-2.488ZM420.689 263.611h-2.485v2.487h2.485v-2.487ZM416.747 180.103h-2.485v2.488h2.485v-2.488ZM416.747 184.28h-2.485v2.487h2.485v-2.487ZM416.747 188.456h-2.485v2.488h2.485v-2.488ZM416.747 192.632h-2.485v2.488h2.485v-2.488ZM416.747 196.809h-2.485v2.487h2.485v-2.487ZM416.747 200.975h-2.485v2.488h2.485v-2.488ZM416.747 205.151h-2.485v2.488h2.485v-2.488ZM416.747 209.328h-2.485v2.488h2.485v-2.488ZM416.747 213.504h-2.485v2.488h2.485v-2.488ZM416.747 217.681h-2.485v2.488h2.485v-2.488ZM416.747 230.21h-2.485v2.488h2.485v-2.488ZM416.747 234.386h-2.485v2.488h2.485v-2.488ZM416.747 238.562h-2.485v2.488h2.485v-2.488ZM416.747 242.729h-2.485v2.488h2.485v-2.488ZM416.747 246.905h-2.485v2.488h2.485v-2.488ZM416.747 263.611h-2.485v2.487h2.485v-2.487ZM412.795 180.103h-2.486v2.488h2.486v-2.488ZM412.795 184.28h-2.486v2.487h2.486v-2.487ZM412.795 188.456h-2.486v2.488h2.486v-2.488ZM412.795 192.632h-2.486v2.488h2.486v-2.488ZM412.795 196.809h-2.486v2.487h2.486v-2.487ZM412.795 200.975h-2.486v2.488h2.486v-2.488ZM412.795 205.151h-2.486v2.488h2.486v-2.488ZM412.795 209.328h-2.486v2.488h2.486v-2.488ZM412.795 213.504h-2.486v2.488h2.486v-2.488ZM412.795 217.681h-2.486v2.488h2.486v-2.488ZM412.795 221.857h-2.486v2.488h2.486v-2.488ZM412.795 226.033h-2.486v2.488h2.486v-2.488ZM412.795 230.21h-2.486v2.488h2.486v-2.488ZM412.795 234.386h-2.486v2.488h2.486v-2.488ZM412.795 238.562h-2.486v2.488h2.486v-2.488ZM412.795 242.729h-2.486v2.488h2.486v-2.488ZM412.795 246.905h-2.486v2.488h2.486v-2.488ZM412.795 251.082h-2.486v2.487h2.486v-2.487ZM408.842 180.103h-2.485v2.488h2.485v-2.488ZM408.842 184.28h-2.485v2.487h2.485v-2.487ZM408.842 188.456h-2.485v2.488h2.485v-2.488ZM408.842 192.632h-2.485v2.488h2.485v-2.488ZM408.842 196.809h-2.485v2.487h2.485v-2.487ZM408.842 200.975h-2.485v2.488h2.485v-2.488ZM408.842 205.151h-2.485v2.488h2.485v-2.488ZM408.842 209.328h-2.485v2.488h2.485v-2.488ZM408.842 213.504h-2.485v2.488h2.485v-2.488ZM408.842 217.681h-2.485v2.488h2.485v-2.488ZM408.842 230.21h-2.485v2.488h2.485v-2.488ZM408.842 234.386h-2.485v2.488h2.485v-2.488ZM408.842 238.562h-2.485v2.488h2.485v-2.488ZM408.842 242.729h-2.485v2.488h2.485v-2.488ZM404.89 180.103h-2.485v2.488h2.485v-2.488ZM404.89 184.28h-2.485v2.487h2.485v-2.487ZM404.89 188.456h-2.485v2.488h2.485v-2.488ZM404.89 192.632h-2.485v2.488h2.485v-2.488ZM404.89 196.809h-2.485v2.487h2.485v-2.487ZM404.89 200.975h-2.485v2.488h2.485v-2.488ZM404.89 205.151h-2.485v2.488h2.485v-2.488ZM404.89 209.328h-2.485v2.488h2.485v-2.488ZM404.89 213.504h-2.485v2.488h2.485v-2.488ZM404.89 217.681h-2.485v2.488h2.485v-2.488ZM404.89 230.21h-2.485v2.488h2.485v-2.488ZM404.89 234.386h-2.485v2.488h2.485v-2.488ZM404.89 238.562h-2.485v2.488h2.485v-2.488ZM360.396 169.263h-2.486v2.488h2.486v-2.488ZM360.396 173.439h-2.486v2.488h2.486v-2.488ZM360.396 177.615h-2.486v2.488h2.486v-2.488ZM360.396 181.792h-2.486v2.488h2.486v-2.488ZM360.396 185.968h-2.486v2.488h2.486v-2.488ZM360.396 190.135h-2.486v2.487h2.486v-2.487ZM360.396 194.311h-2.486v2.488h2.486v-2.488ZM360.396 198.487h-2.486v2.488h2.486v-2.488ZM360.396 211.016h-2.486v2.488h2.486v-2.488ZM360.396 215.193h-2.486v2.487h2.486v-2.487ZM356.443 169.263h-2.485v2.488h2.485v-2.488ZM356.443 173.439h-2.485v2.488h2.485v-2.488ZM356.443 177.615h-2.485v2.488h2.485v-2.488ZM356.443 181.792h-2.485v2.488h2.485v-2.488ZM356.443 185.968h-2.485v2.488h2.485v-2.488ZM356.443 190.135h-2.485v2.487h2.485v-2.487ZM356.443 194.311h-2.485v2.488h2.485v-2.488ZM356.443 198.487h-2.485v2.488h2.485v-2.488ZM356.443 215.193h-2.485v2.487h2.485v-2.487ZM352.491 169.263h-2.485v2.488h2.485v-2.488ZM352.491 173.439h-2.485v2.488h2.485v-2.488ZM352.491 177.615h-2.485v2.488h2.485v-2.488ZM352.491 181.792h-2.485v2.488h2.485v-2.488ZM352.491 185.968h-2.485v2.488h2.485v-2.488ZM352.491 190.135h-2.485v2.487h2.485v-2.487ZM352.491 194.311h-2.485v2.488h2.485v-2.488ZM352.491 198.487h-2.485v2.488h2.485v-2.488ZM348.548 169.263h-2.485v2.488h2.485v-2.488ZM348.548 173.439h-2.485v2.488h2.485v-2.488ZM348.548 177.615h-2.485v2.488h2.485v-2.488ZM348.548 181.792h-2.485v2.488h2.485v-2.488ZM348.548 185.968h-2.485v2.488h2.485v-2.488ZM348.548 190.135h-2.485v2.487h2.485v-2.487ZM348.548 198.487h-2.485v2.488h2.485v-2.488ZM348.548 202.664h-2.485v2.487h2.485v-2.487ZM348.548 215.193h-2.485v2.487h2.485v-2.487ZM348.548 219.369h-2.485v2.488h2.485v-2.488ZM348.548 223.545h-2.485v2.488h2.485v-2.488ZM348.548 227.722h-2.485v2.488h2.485v-2.488ZM348.548 231.888h-2.485v2.488h2.485v-2.488ZM348.548 236.064h-2.485v2.488h2.485v-2.488ZM348.548 240.241h-2.485v2.488h2.485v-2.488ZM344.596 169.263h-2.485v2.488h2.485v-2.488ZM344.596 173.439h-2.485v2.488h2.485v-2.488ZM344.596 177.615h-2.485v2.488h2.485v-2.488ZM344.596 181.792h-2.485v2.488h2.485v-2.488ZM344.596 185.968h-2.485v2.488h2.485v-2.488ZM344.596 190.135h-2.485v2.487h2.485v-2.487ZM344.596 202.664h-2.485v2.487h2.485v-2.487ZM344.596 206.84h-2.485v2.488h2.485v-2.488ZM344.596 211.016h-2.485v2.488h2.485v-2.488ZM344.596 215.193h-2.485v2.487h2.485v-2.487ZM344.596 219.369h-2.485v2.488h2.485v-2.488ZM344.596 223.545h-2.485v2.488h2.485v-2.488ZM344.596 227.722h-2.485v2.488h2.485v-2.488ZM344.596 231.888h-2.485v2.488h2.485v-2.488ZM344.596 236.064h-2.485v2.488h2.485v-2.488ZM344.596 240.241h-2.485v2.488h2.485v-2.488ZM344.596 244.417h-2.485v2.488h2.485v-2.488ZM344.596 252.77h-2.485v2.488h2.485v-2.488ZM340.644 169.263h-2.486v2.488h2.486v-2.488ZM340.644 173.439h-2.486v2.488h2.486v-2.488ZM340.644 177.615h-2.486v2.488h2.486v-2.488ZM340.644 181.792h-2.486v2.488h2.486v-2.488ZM340.644 185.968h-2.486v2.488h2.486v-2.488ZM340.644 190.135h-2.486v2.487h2.486v-2.487ZM340.644 202.664h-2.486v2.487h2.486v-2.487ZM340.644 206.84h-2.486v2.488h2.486v-2.488ZM340.644 211.016h-2.486v2.488h2.486v-2.488ZM340.644 215.193h-2.486v2.487h2.486v-2.487ZM340.644 227.722h-2.486v2.488h2.486v-2.488ZM340.644 231.888h-2.486v2.488h2.486v-2.488ZM340.644 236.064h-2.486v2.488h2.486v-2.488ZM340.644 240.241h-2.486v2.488h2.486v-2.488ZM340.644 244.417h-2.486v2.488h2.486v-2.488ZM340.644 252.77h-2.486v2.488h2.486v-2.488ZM340.644 256.946h-2.486v2.488h2.486v-2.488ZM304.783 208.089h-2.485v2.488h2.485v-2.488ZM304.783 212.265h-2.485v2.488h2.485v-2.488ZM304.783 216.432h-2.485v2.487h2.485v-2.487ZM304.783 220.608h-2.485v2.488h2.485v-2.488ZM304.783 224.784h-2.485v2.488h2.485v-2.488ZM304.783 228.961h-2.485v2.488h2.485v-2.488ZM304.783 233.137h-2.485v2.488h2.485v-2.488ZM304.783 245.666h-2.485v2.488h2.485v-2.488ZM304.783 249.843h-2.485v2.487h2.485v-2.487ZM304.783 254.019h-2.485v2.488h2.485v-2.488ZM300.83 208.089h-2.485v2.488h2.485v-2.488ZM300.83 212.265h-2.485v2.488h2.485v-2.488ZM300.83 216.432h-2.485v2.487h2.485v-2.487ZM300.83 220.608h-2.485v2.488h2.485v-2.488ZM300.83 224.784h-2.485v2.488h2.485v-2.488ZM300.83 228.961h-2.485v2.488h2.485v-2.488ZM300.83 233.137h-2.485v2.488h2.485v-2.488ZM296.888 208.089h-2.485v2.488h2.485v-2.488ZM296.888 212.265h-2.485v2.488h2.485v-2.488ZM296.888 216.432h-2.485v2.487h2.485v-2.487ZM296.888 220.608h-2.485v2.488h2.485v-2.488ZM296.888 224.784h-2.485v2.488h2.485v-2.488ZM296.888 228.961h-2.485v2.488h2.485v-2.488ZM296.888 233.137h-2.485v2.488h2.485v-2.488ZM292.936 208.089h-2.486v2.488h2.486v-2.488ZM292.936 212.265h-2.486v2.488h2.486v-2.488ZM292.936 216.432h-2.486v2.487h2.486v-2.487ZM292.936 220.608h-2.486v2.488h2.486v-2.488ZM292.936 224.784h-2.486v2.488h2.486v-2.488ZM292.936 228.961h-2.486v2.488h2.486v-2.488ZM292.936 233.137h-2.486v2.488h2.486v-2.488ZM292.936 237.313h-2.486v2.488h2.486v-2.488ZM292.936 241.49h-2.486v2.488h2.486v-2.488ZM292.936 245.666h-2.486v2.488h2.486v-2.488ZM292.936 249.843h-2.486v2.487h2.486v-2.487ZM288.983 208.089h-2.485v2.488h2.485v-2.488ZM288.983 212.265h-2.485v2.488h2.485v-2.488ZM288.983 216.432h-2.485v2.487h2.485v-2.487ZM288.983 220.608h-2.485v2.488h2.485v-2.488ZM288.983 224.784h-2.485v2.488h2.485v-2.488ZM288.983 228.961h-2.485v2.488h2.485v-2.488ZM288.983 233.137h-2.485v2.488h2.485v-2.488ZM288.983 237.313h-2.485v2.488h2.485v-2.488ZM288.983 241.49h-2.485v2.488h2.485v-2.488ZM288.983 245.666h-2.485v2.488h2.485v-2.488ZM288.983 249.843h-2.485v2.487h2.485v-2.487ZM288.983 254.019h-2.485v2.488h2.485v-2.488ZM288.983 266.538h-2.485v2.488h2.485v-2.488ZM288.983 270.714h-2.485v2.488h2.485v-2.488ZM285.031 208.089h-2.485v2.488h2.485v-2.488ZM285.031 212.265h-2.485v2.488h2.485v-2.488ZM285.031 216.432h-2.485v2.487h2.485v-2.487ZM285.031 228.961h-2.485v2.488h2.485v-2.488ZM285.031 233.137h-2.485v2.488h2.485v-2.488ZM285.031 237.313h-2.485v2.488h2.485v-2.488ZM285.031 241.49h-2.485v2.488h2.485v-2.488ZM285.031 245.666h-2.485v2.488h2.485v-2.488ZM285.031 249.843h-2.485v2.487h2.485v-2.487ZM285.031 254.019h-2.485v2.488h2.485v-2.488ZM285.031 266.538h-2.485v2.488h2.485v-2.488ZM285.031 270.714h-2.485v2.488h2.485v-2.488ZM285.031 274.891h-2.485v2.487h2.485v-2.487ZM243.611 183.031h-2.486v2.488h2.486v-2.488ZM243.611 187.207h-2.486v2.488h2.486v-2.488ZM243.611 191.384h-2.486v2.487h2.486v-2.487ZM243.611 195.56h-2.486v2.488h2.486v-2.488ZM243.611 199.736h-2.486v2.488h2.486v-2.488ZM243.611 203.913h-2.486v2.487h2.486v-2.487ZM243.611 208.089h-2.486v2.488h2.486v-2.488ZM243.611 212.265h-2.486v2.488h2.486v-2.488ZM243.611 216.432h-2.486v2.487h2.486v-2.487ZM243.611 220.608h-2.486v2.488h2.486v-2.488ZM243.611 224.784h-2.486v2.488h2.486v-2.488ZM243.611 228.961h-2.486v2.488h2.486v-2.488ZM243.611 233.137h-2.486v2.488h2.486v-2.488ZM243.611 237.313h-2.486v2.488h2.486v-2.488ZM243.611 241.49h-2.486v2.488h2.486v-2.488ZM243.611 245.666h-2.486v2.488h2.486v-2.488ZM243.611 249.843h-2.486v2.487h2.486v-2.487ZM243.611 254.019h-2.486v2.488h2.486v-2.488ZM243.611 258.185h-2.486v2.488h2.486v-2.488ZM243.611 262.362h-2.486v2.487h2.486v-2.487ZM243.611 266.538h-2.486v2.488h2.486v-2.488ZM243.611 270.714h-2.486v2.488h2.486v-2.488ZM243.611 274.891h-2.486v2.487h2.486v-2.487ZM239.658 183.031h-2.485v2.488h2.485v-2.488ZM239.658 187.207h-2.485v2.488h2.485v-2.488ZM239.658 191.384h-2.485v2.487h2.485v-2.487ZM239.658 195.56h-2.485v2.488h2.485v-2.488ZM239.658 199.736h-2.485v2.488h2.485v-2.488ZM239.658 203.913h-2.485v2.487h2.485v-2.487ZM239.658 208.089h-2.485v2.488h2.485v-2.488ZM239.658 212.265h-2.485v2.488h2.485v-2.488ZM239.658 216.432h-2.485v2.487h2.485v-2.487ZM239.658 220.608h-2.485v2.488h2.485v-2.488ZM239.658 224.784h-2.485v2.488h2.485v-2.488ZM239.658 228.961h-2.485v2.488h2.485v-2.488ZM239.658 233.137h-2.485v2.488h2.485v-2.488ZM239.658 237.313h-2.485v2.488h2.485v-2.488ZM239.658 241.49h-2.485v2.488h2.485v-2.488ZM239.658 245.666h-2.485v2.488h2.485v-2.488ZM239.658 249.843h-2.485v2.487h2.485v-2.487ZM239.658 254.019h-2.485v2.488h2.485v-2.488ZM239.658 258.185h-2.485v2.488h2.485v-2.488ZM235.706 183.031h-2.485v2.488h2.485v-2.488ZM235.706 187.207h-2.485v2.488h2.485v-2.488ZM235.706 191.384h-2.485v2.487h2.485v-2.487ZM235.706 195.56h-2.485v2.488h2.485v-2.488ZM235.706 199.736h-2.485v2.488h2.485v-2.488ZM235.706 203.913h-2.485v2.487h2.485v-2.487ZM235.706 208.089h-2.485v2.488h2.485v-2.488ZM235.706 212.265h-2.485v2.488h2.485v-2.488ZM235.706 216.432h-2.485v2.487h2.485v-2.487ZM235.706 220.608h-2.485v2.488h2.485v-2.488ZM235.706 224.784h-2.485v2.488h2.485v-2.488ZM235.706 228.961h-2.485v2.488h2.485v-2.488ZM235.706 233.137h-2.485v2.488h2.485v-2.488ZM235.706 237.313h-2.485v2.488h2.485v-2.488ZM235.706 241.49h-2.485v2.488h2.485v-2.488ZM235.706 245.666h-2.485v2.488h2.485v-2.488ZM235.706 249.843h-2.485v2.487h2.485v-2.487ZM235.706 254.019h-2.485v2.488h2.485v-2.488ZM235.706 258.185h-2.485v2.488h2.485v-2.488ZM231.753 183.031h-2.485v2.488h2.485v-2.488ZM231.753 187.207h-2.485v2.488h2.485v-2.488ZM231.753 191.384h-2.485v2.487h2.485v-2.487ZM231.753 195.56h-2.485v2.488h2.485v-2.488ZM231.753 199.736h-2.485v2.488h2.485v-2.488ZM231.753 203.913h-2.485v2.487h2.485v-2.487ZM231.753 208.089h-2.485v2.488h2.485v-2.488ZM231.753 212.265h-2.485v2.488h2.485v-2.488ZM231.753 216.432h-2.485v2.487h2.485v-2.487ZM231.753 220.608h-2.485v2.488h2.485v-2.488ZM231.753 224.784h-2.485v2.488h2.485v-2.488ZM231.753 228.961h-2.485v2.488h2.485v-2.488ZM231.753 233.137h-2.485v2.488h2.485v-2.488ZM231.753 237.313h-2.485v2.488h2.485v-2.488ZM231.753 241.49h-2.485v2.488h2.485v-2.488ZM227.811 183.031h-2.485v2.488h2.485v-2.488ZM227.811 187.207h-2.485v2.488h2.485v-2.488ZM227.811 191.384h-2.485v2.487h2.485v-2.487ZM227.811 195.56h-2.485v2.488h2.485v-2.488ZM227.811 199.736h-2.485v2.488h2.485v-2.488ZM227.811 203.913h-2.485v2.487h2.485v-2.487ZM227.811 208.089h-2.485v2.488h2.485v-2.488ZM227.811 212.265h-2.485v2.488h2.485v-2.488ZM227.811 216.432h-2.485v2.487h2.485v-2.487ZM227.811 220.608h-2.485v2.488h2.485v-2.488ZM227.811 224.784h-2.485v2.488h2.485v-2.488ZM227.811 228.961h-2.485v2.488h2.485v-2.488ZM227.811 233.137h-2.485v2.488h2.485v-2.488ZM223.859 183.031h-2.486v2.488h2.486v-2.488ZM223.859 187.207h-2.486v2.488h2.486v-2.488ZM223.859 191.384h-2.486v2.487h2.486v-2.487ZM223.859 195.56h-2.486v2.488h2.486v-2.488ZM223.859 199.736h-2.486v2.488h2.486v-2.488ZM223.859 203.913h-2.486v2.487h2.486v-2.487ZM223.859 208.089h-2.486v2.488h2.486v-2.488ZM223.859 212.265h-2.486v2.488h2.486v-2.488ZM223.859 216.432h-2.486v2.487h2.486v-2.487ZM223.859 220.608h-2.486v2.488h2.486v-2.488ZM223.859 224.784h-2.486v2.488h2.486v-2.488ZM223.859 228.961h-2.486v2.488h2.486v-2.488ZM454.504 181.792h-2.485v2.488h2.485v-2.488ZM454.504 185.968h-2.485v2.488h2.485v-2.488ZM454.504 190.135h-2.485v2.487h2.485v-2.487ZM454.504 194.311h-2.485v2.488h2.485v-2.488ZM454.504 198.487h-2.485v2.488h2.485v-2.488ZM454.504 202.664h-2.485v2.487h2.485v-2.487ZM454.504 206.84h-2.485v2.488h2.485v-2.488ZM454.504 211.016h-2.485v2.488h2.485v-2.488ZM454.504 215.193h-2.485v2.487h2.485v-2.487ZM454.504 219.369h-2.485v2.488h2.485v-2.488ZM454.504 223.545h-2.485v2.488h2.485v-2.488ZM454.504 227.722h-2.485v2.488h2.485v-2.488ZM454.504 231.888h-2.485v2.488h2.485v-2.488ZM454.504 236.064h-2.485v2.488h2.485v-2.488ZM454.504 240.241h-2.485v2.488h2.485v-2.488ZM454.504 244.417h-2.485v2.488h2.485v-2.488ZM454.504 248.594h-2.485v2.488h2.485v-2.488ZM454.504 256.946h-2.485v2.488h2.485v-2.488ZM454.504 261.123h-2.485v2.488h2.485v-2.488ZM454.504 265.299h-2.485v2.488h2.485v-2.488ZM454.504 269.466h-2.485v2.487h2.485v-2.487ZM454.504 273.642h-2.485v2.488h2.485v-2.488ZM450.552 181.792h-2.485v2.488h2.485v-2.488ZM450.552 185.968h-2.485v2.488h2.485v-2.488ZM450.552 190.135h-2.485v2.487h2.485v-2.487ZM450.552 194.311h-2.485v2.488h2.485v-2.488ZM450.552 198.487h-2.485v2.488h2.485v-2.488ZM450.552 202.664h-2.485v2.487h2.485v-2.487ZM450.552 206.84h-2.485v2.488h2.485v-2.488ZM450.552 211.016h-2.485v2.488h2.485v-2.488ZM450.552 215.193h-2.485v2.487h2.485v-2.487ZM450.552 219.369h-2.485v2.488h2.485v-2.488ZM450.552 223.545h-2.485v2.488h2.485v-2.488ZM450.552 227.722h-2.485v2.488h2.485v-2.488ZM450.552 231.888h-2.485v2.488h2.485v-2.488ZM450.552 236.064h-2.485v2.488h2.485v-2.488ZM450.552 240.241h-2.485v2.488h2.485v-2.488ZM450.552 244.417h-2.485v2.488h2.485v-2.488ZM450.552 269.466h-2.485v2.487h2.485v-2.487ZM450.552 273.642h-2.485v2.488h2.485v-2.488ZM446.599 181.792h-2.485v2.488h2.485v-2.488ZM446.599 185.968h-2.485v2.488h2.485v-2.488ZM446.599 190.135h-2.485v2.487h2.485v-2.487ZM446.599 194.311h-2.485v2.488h2.485v-2.488ZM446.599 198.487h-2.485v2.488h2.485v-2.488ZM446.599 202.664h-2.485v2.487h2.485v-2.487ZM446.599 206.84h-2.485v2.488h2.485v-2.488ZM446.599 211.016h-2.485v2.488h2.485v-2.488ZM446.599 215.193h-2.485v2.487h2.485v-2.487ZM446.599 219.369h-2.485v2.488h2.485v-2.488ZM446.599 223.545h-2.485v2.488h2.485v-2.488ZM446.599 227.722h-2.485v2.488h2.485v-2.488ZM446.599 231.888h-2.485v2.488h2.485v-2.488ZM446.599 236.064h-2.485v2.488h2.485v-2.488ZM446.599 240.241h-2.485v2.488h2.485v-2.488ZM446.599 244.417h-2.485v2.488h2.485v-2.488ZM446.599 252.77h-2.485v2.488h2.485v-2.488ZM446.599 256.946h-2.485v2.488h2.485v-2.488ZM446.599 261.123h-2.485v2.488h2.485v-2.488ZM446.599 265.299h-2.485v2.488h2.485v-2.488ZM446.599 273.642h-2.485v2.488h2.485v-2.488ZM377.672 211.016h-2.485v2.488h2.485v-2.488ZM377.672 215.193h-2.485v2.487h2.485v-2.487ZM377.672 219.369h-2.485v2.488h2.485v-2.488ZM377.672 223.545h-2.485v2.488h2.485v-2.488ZM377.672 227.722h-2.485v2.488h2.485v-2.488ZM377.672 231.888h-2.485v2.488h2.485v-2.488ZM377.672 236.064h-2.485v2.488h2.485v-2.488ZM377.672 240.241h-2.485v2.488h2.485v-2.488ZM377.672 244.417h-2.485v2.488h2.485v-2.488ZM377.672 248.594h-2.485v2.488h2.485v-2.488ZM377.672 252.77h-2.485v2.488h2.485v-2.488ZM377.672 256.946h-2.485v2.488h2.485v-2.488ZM377.672 261.123h-2.485v2.488h2.485v-2.488ZM377.672 269.466h-2.485v2.487h2.485v-2.487ZM377.672 273.642h-2.485v2.488h2.485v-2.488ZM377.672 277.818h-2.485v2.488h2.485v-2.488ZM377.672 281.995h-2.485v2.487h2.485v-2.487ZM377.672 290.347h-2.485v2.488h2.485v-2.488ZM377.672 294.524h-2.485v2.488h2.485v-2.488ZM377.672 298.7h-2.485v2.488h2.485V298.7ZM373.72 211.016h-2.485v2.488h2.485v-2.488ZM373.72 215.193h-2.485v2.487h2.485v-2.487ZM373.72 219.369h-2.485v2.488h2.485v-2.488ZM373.72 223.545h-2.485v2.488h2.485v-2.488ZM373.72 227.722h-2.485v2.488h2.485v-2.488ZM373.72 231.888h-2.485v2.488h2.485v-2.488ZM373.72 236.064h-2.485v2.488h2.485v-2.488ZM373.72 240.241h-2.485v2.488h2.485v-2.488ZM373.72 244.417h-2.485v2.488h2.485v-2.488ZM373.72 248.594h-2.485v2.488h2.485v-2.488ZM373.72 252.77h-2.485v2.488h2.485v-2.488ZM373.72 256.946h-2.485v2.488h2.485v-2.488ZM373.72 261.123h-2.485v2.488h2.485v-2.488ZM373.72 273.642h-2.485v2.488h2.485v-2.488ZM373.72 277.818h-2.485v2.488h2.485v-2.488ZM373.72 286.171h-2.485v2.488h2.485v-2.488ZM373.72 290.347h-2.485v2.488h2.485v-2.488ZM373.72 294.524h-2.485v2.488h2.485v-2.488ZM373.72 298.7h-2.485v2.488h2.485V298.7ZM369.768 211.016h-2.486v2.488h2.486v-2.488ZM369.768 215.193h-2.486v2.487h2.486v-2.487ZM369.768 219.369h-2.486v2.488h2.486v-2.488ZM369.768 223.545h-2.486v2.488h2.486v-2.488ZM369.768 227.722h-2.486v2.488h2.486v-2.488ZM369.768 231.888h-2.486v2.488h2.486v-2.488ZM369.768 236.064h-2.486v2.488h2.486v-2.488ZM369.768 240.241h-2.486v2.488h2.486v-2.488ZM369.768 244.417h-2.486v2.488h2.486v-2.488ZM369.768 248.594h-2.486v2.488h2.486v-2.488ZM369.768 252.77h-2.486v2.488h2.486v-2.488ZM369.768 256.946h-2.486v2.488h2.486v-2.488ZM369.768 261.123h-2.486v2.488h2.486v-2.488ZM369.768 265.299h-2.486v2.488h2.486v-2.488ZM369.768 273.642h-2.486v2.488h2.486v-2.488ZM369.768 281.995h-2.486v2.487h2.486v-2.487ZM369.768 286.171h-2.486v2.488h2.486v-2.488ZM369.768 290.347h-2.486v2.488h2.486v-2.488ZM369.768 294.524h-2.486v2.488h2.486v-2.488ZM369.768 298.7h-2.486v2.488h2.486V298.7ZM393.761 234.825h-2.485v2.488h2.485v-2.488ZM393.761 239.002h-2.485v2.488h2.485v-2.488ZM393.761 243.168h-2.485v2.488h2.485v-2.488ZM393.761 247.345h-2.485v2.488h2.485v-2.488ZM393.761 251.521h-2.485v2.488h2.485v-2.488ZM393.761 255.698h-2.485v2.487h2.485v-2.487ZM393.761 268.227h-2.485v2.487h2.485v-2.487ZM393.761 272.403h-2.485v2.488h2.485v-2.488ZM393.761 276.579h-2.485v2.488h2.485v-2.488ZM393.761 280.756h-2.485v2.487h2.485v-2.487ZM393.761 284.922h-2.485v2.488h2.485v-2.488ZM393.761 289.098h-2.485v2.488h2.485v-2.488ZM393.761 293.275h-2.485v2.488h2.485v-2.488ZM389.819 234.825h-2.485v2.488h2.485v-2.488ZM389.819 239.002h-2.485v2.488h2.485v-2.488ZM389.819 243.168h-2.485v2.488h2.485v-2.488ZM389.819 247.345h-2.485v2.488h2.485v-2.488ZM389.819 251.521h-2.485v2.488h2.485v-2.488ZM389.819 255.698h-2.485v2.487h2.485v-2.487ZM389.819 268.227h-2.485v2.487h2.485v-2.487ZM389.819 272.403h-2.485v2.488h2.485v-2.488ZM389.819 276.579h-2.485v2.488h2.485v-2.488ZM389.819 280.756h-2.485v2.487h2.485v-2.487ZM389.819 284.922h-2.485v2.488h2.485v-2.488ZM389.819 289.098h-2.485v2.488h2.485v-2.488ZM389.819 297.451h-2.485v2.488h2.485v-2.488ZM258.542 216.432h-2.485v2.487h2.485v-2.487ZM258.542 220.608h-2.485v2.488h2.485v-2.488ZM258.542 224.784h-2.485v2.488h2.485v-2.488ZM258.542 228.961h-2.485v2.488h2.485v-2.488ZM258.542 233.137h-2.485v2.488h2.485v-2.488ZM258.542 237.313h-2.485v2.488h2.485v-2.488ZM258.542 241.49h-2.485v2.488h2.485v-2.488ZM258.542 245.666h-2.485v2.488h2.485v-2.488ZM258.542 249.843h-2.485v2.487h2.485v-2.487ZM258.542 254.019h-2.485v2.488h2.485v-2.488ZM258.542 258.185h-2.485v2.488h2.485v-2.488ZM258.542 266.538h-2.485v2.488h2.485v-2.488ZM258.542 270.714h-2.485v2.488h2.485v-2.488ZM258.542 274.891h-2.485v2.487h2.485v-2.487ZM258.542 279.067h-2.485v2.488h2.485v-2.488ZM258.542 283.243h-2.485v2.488h2.485v-2.488ZM258.542 287.42h-2.485v2.488h2.485v-2.488ZM258.542 291.596h-2.485v2.488h2.485v-2.488ZM258.542 295.772h-2.485v2.488h2.485v-2.488ZM254.589 216.432h-2.485v2.487h2.485v-2.487ZM254.589 220.608h-2.485v2.488h2.485v-2.488ZM254.589 224.784h-2.485v2.488h2.485v-2.488ZM254.589 228.961h-2.485v2.488h2.485v-2.488ZM254.589 233.137h-2.485v2.488h2.485v-2.488ZM254.589 237.313h-2.485v2.488h2.485v-2.488ZM254.589 241.49h-2.485v2.488h2.485v-2.488ZM254.589 245.666h-2.485v2.488h2.485v-2.488ZM254.589 249.843h-2.485v2.487h2.485v-2.487ZM254.589 254.019h-2.485v2.488h2.485v-2.488ZM254.589 258.185h-2.485v2.488h2.485v-2.488ZM254.589 262.362h-2.485v2.487h2.485v-2.487ZM254.589 266.538h-2.485v2.488h2.485v-2.488ZM254.589 270.714h-2.485v2.488h2.485v-2.488ZM254.589 274.891h-2.485v2.487h2.485v-2.487ZM254.589 279.067h-2.485v2.488h2.485v-2.488ZM254.589 283.243h-2.485v2.488h2.485v-2.488ZM254.589 287.42h-2.485v2.488h2.485v-2.488ZM254.589 291.596h-2.485v2.488h2.485v-2.488ZM254.589 295.772h-2.485v2.488h2.485v-2.488ZM278.004 232.698h-2.485v2.487h2.485v-2.487ZM278.004 236.874h-2.485v2.488h2.485v-2.488ZM278.004 241.05h-2.485v2.488h2.485v-2.488ZM278.004 245.227h-2.485v2.487h2.485v-2.487ZM278.004 249.403h-2.485v2.488h2.485v-2.488ZM278.004 253.579h-2.485v2.488h2.485v-2.488ZM278.004 257.746h-2.485v2.487h2.485v-2.487ZM278.004 261.922h-2.485v2.488h2.485v-2.488ZM278.004 266.098h-2.485v2.488h2.485v-2.488ZM278.004 270.275h-2.485v2.487h2.485v-2.487ZM274.052 232.698h-2.485v2.487h2.485v-2.487ZM274.052 236.874h-2.485v2.488h2.485v-2.488ZM274.052 241.05h-2.485v2.488h2.485v-2.488ZM274.052 245.227h-2.485v2.487h2.485v-2.487ZM274.052 249.403h-2.485v2.488h2.485v-2.488ZM274.052 253.579h-2.485v2.488h2.485v-2.488ZM274.052 257.746h-2.485v2.487h2.485v-2.487ZM274.052 261.922h-2.485v2.488h2.485v-2.488ZM274.052 266.098h-2.485v2.488h2.485v-2.488Z" fill="#F0F0F0"/>
	<path d="M297.567 74.245h-4.172v232.878h4.172V74.245ZM376.115 74.245h-4.172v232.878h4.172V74.245ZM454.664 74.245h-4.172v232.878h4.172V74.245Z" fill="#E0E0E0"/>
	<path d="M187.888 338.655h-34.523v-49.786a4.405 4.405 0 0 1 4.401-4.407h25.73a4.405 4.405 0 0 1 4.402 4.407v49.786h-.01Z" fill="#F0F0F0"/>
	<path d="M187.888 291.796h-34.523v3.887h34.523v-3.887Z" fill="#E6E6E6"/>
	<path d="M181.6 332.091h-8.603a2.365 2.365 0 0 0-2.366 2.368v4.196h13.335v-4.196a2.365 2.365 0 0 0-2.366-2.368Z" fill="#E0E0E0"/>
	<path d="M184.015 338.655h-9.571a1.538 1.538 0 0 1 0-3.077h9.571c.849 0 1.538.689 1.538 1.539a1.552 1.552 0 0 1-1.538 1.538Z" fill="#E6E6E6"/>
	<path d="M337.289 63.287c12.633-2.986 20.456-15.66 17.473-28.306-2.983-12.647-15.643-20.478-28.276-17.492-12.633 2.986-20.457 15.66-17.474 28.306 2.984 12.647 15.643 20.478 28.277 17.492Z" fill="#E0E0E0"/>
	<path d="M335.109 60.154c10.898-1.77 18.3-12.05 16.531-22.96-1.769-10.91-12.038-18.32-22.936-16.549-10.899 1.771-18.3 12.05-16.531 22.961 1.768 10.91 12.037 18.319 22.936 16.548Z" fill="#F0F0F0"/>
	<path d="M332.849 26.677v13.988l9.262-5.246" fill="#F0F0F0"/>
	<path d="M332.849 26.677v13.988l9.262-5.246" stroke="#E0E0E0" stroke-width="2" stroke-miterlimit="10" stroke-linecap="round" stroke-linejoin="round"/>
	<path d="M106.964 270.075c-1.797-2.957-4.751-.39-4.751-.39.419-5.675-4.79-9.551-4.79-9.551s6.058 0 6.906-5.785c.848-5.785-2.116-3.098-4.89-3.138-2.775-.04-5.68 8.083-2.017 12.639 3.663 4.566 2.675 12.36-5.769 19.853-2.066 1.828-3.463 4.266-4.411 6.894.639-6.884.998-16.585-1.028-23.06-3.433-11 3.114-13.958 5.01-19.463 1.907-5.505-5.01-10.151-5.01-10.151s6.497-2.957 3.323-6.345c-3.173-3.387-9.72-2.927-9.72 1.499s4.44 6.115 4.44 6.115 5.07 5.285 5.07 8.043c0 2.747-5.07 8.672-5.07 8.672s2.326-5.065-2.325-5.285c-4.65-.22-6.128 5.915-4.222 8.672 1.907 2.748 5.07.42 5.07.42s.37 5.925 1.458 9.522c.479 1.578.25 7.783-.15 14.237-.938-2.328-2.256-4.466-4.112-6.114-8.454-7.494-9.432-15.287-5.769-19.853 3.663-4.566.759-12.679-2.016-12.639-2.775.04-5.739-2.658-4.89 3.137.848 5.795 6.906 5.785 6.906 5.785s-5.22 3.887-4.79 9.552c0 0-2.955-2.578-4.752.389-3.203 5.286 4.222 8.563 5.48 5.965 0 0 15.76 11.171 11.957 27.247l.888 1.308c-.11 1.299-.19 2.079-.19 2.079l1.238-.53 1.407 2.068c-.07 4.017.36 6.984.36 6.984l3.772-5.565c-3.802-16.076 11.957-27.246 11.957-27.246 1.208 2.597 8.644-.68 5.43-5.965Z" fill="#E0E0E0"/>
	<path opacity=".2" d="M106.964 270.075c-1.797-2.957-4.751-.39-4.751-.39.419-5.675-4.79-9.551-4.79-9.551s6.058 0 6.906-5.785c.848-5.785-2.116-3.098-4.89-3.138-2.775-.04-5.68 8.083-2.017 12.639 3.663 4.566 2.675 12.36-5.769 19.853-2.066 1.828-3.463 4.266-4.411 6.894.639-6.884.998-16.585-1.028-23.06-3.433-11 3.114-13.958 5.01-19.463 1.907-5.505-5.01-10.151-5.01-10.151s6.497-2.957 3.323-6.345c-3.173-3.387-9.72-2.927-9.72 1.499s4.44 6.115 4.44 6.115 5.07 5.285 5.07 8.043c0 2.747-5.07 8.672-5.07 8.672s2.326-5.065-2.325-5.285c-4.65-.22-6.128 5.915-4.222 8.672 1.907 2.748 5.07.42 5.07.42s.37 5.925 1.458 9.522c.479 1.578.25 7.783-.15 14.237-.938-2.328-2.256-4.466-4.112-6.114-8.454-7.494-9.432-15.287-5.769-19.853 3.663-4.566.759-12.679-2.016-12.639-2.775.04-5.739-2.658-4.89 3.137.848 5.795 6.906 5.785 6.906 5.785s-5.22 3.887-4.79 9.552c0 0-2.955-2.578-4.752.389-3.203 5.286 4.222 8.563 5.48 5.965 0 0 15.76 11.171 11.957 27.247l.888 1.308c-.11 1.299-.19 2.079-.19 2.079l1.238-.53 1.407 2.068c-.07 4.017.36 6.984.36 6.984l3.772-5.565c-3.802-16.076 11.957-27.246 11.957-27.246 1.208 2.597 8.644-.68 5.43-5.965Z" fill="#E0E0E0"/>
	<path d="M103.89 338.655H67.78l-3.893-39.575h43.895l-3.892 39.575Z" fill="#E6E6E6"/>
	<path d="M109.709 294.713H61.961v8.733h47.748v-8.733Z" fill="#F0F0F0"/>
	<path d="M259.739 383.896c106.877 0 193.518-5.064 193.518-11.31 0-6.247-86.641-11.311-193.518-11.311-106.876 0-193.517 5.064-193.517 11.311 0 6.246 86.641 11.31 193.517 11.31Z" fill="#F5F5F5"/>
	<path d="M419.881 341.093c.15-1.019 3.643-25.148-3.354-33.481-1.547-1.848-3.503-2.807-5.808-2.867-14.123-.33-16.059 11.03-16.079 11.14l1.666.26c.06-.41 1.737-10.021 14.373-9.712 1.826.04 3.323.79 4.561 2.268 6.517 7.754 3.014 31.903 2.974 32.142l1.667.25Z" fill="#FFBEDD"/>
	<path d="m420.739 339.994 1.687-.05c-.01-.22-.559-22.231 10.27-26.777 10.62-4.456 15.391 4.706 15.59 5.096l1.507-.759c-.06-.11-5.659-10.971-17.745-5.895-11.907 4.985-11.339 27.426-11.309 28.385Z" fill="#FFBEDD"/>
	<path d="M420.689 341.723c0-.35.1-35.16 6.877-45.341 6.508-9.771 17.007-5.175 17.457-4.976l.698-1.538c-.12-.06-12.236-5.406-19.552 5.575-7.057 10.601-7.166 44.821-7.166 46.28h1.686Z" fill="#FFBEDD"/>
	<path d="M408.702 305.584s6.169 2.278 4.332 7.653c-1.836 5.376-21.339 14.218-21.339 14.218s-8.164-7.494-.668-19.683c7.505-12.199 17.506-6.035 17.675-2.188ZM427.876 294.544s-4.382-.47-4.023-3.138c.35-2.667 17.018-9.541 26.859 1.569 0 0-6.298 10.83-15.401 10.97-9.112.14-7.435-9.401-7.435-9.401ZM432.367 312.378s-3.024-2.438.239-3.637c3.264-1.189 19.263-.849 19.433 15.017 0 0-18.634 3.097-20.94-2.947-2.315-6.035 1.268-8.433 1.268-8.433Z" fill="#FF64AE"/>
	<path d="M405.379 373.415h28.924l3.124-31.702h-35.162l3.114 31.702Z" fill="#ACB5FF"/>
	<path d="M400.724 345.219h38.247v-6.994h-38.247v6.994Z" fill="#4754C7"/>
	<path d="m372.652 350.694-28.755-2.827v-40.455h-11.398v40.445l-28.874 2.837a5.603 5.603 0 0 0-5.05 5.576v4.326H377.702v-4.326a5.604 5.604 0 0 0-5.05-5.576Z" fill="#263238"/>
	<path opacity=".2" d="m372.652 350.694-28.755-2.827v-40.455h-11.398v40.445l-28.874 2.837a5.603 5.603 0 0 0-5.05 5.576v4.326H377.702v-4.326a5.604 5.604 0 0 0-5.05-5.576Z" fill="#fff"/>
	<path d="M301.609 373.425c4.117 0 7.455-3.342 7.455-7.464s-3.338-7.463-7.455-7.463a7.46 7.46 0 0 0-7.456 7.463c0 4.122 3.338 7.464 7.456 7.464ZM374.658 373.425c4.118 0 7.456-3.342 7.456-7.464a7.46 7.46 0 0 0-7.456-7.463 7.46 7.46 0 0 0-7.456 7.463c0 4.122 3.338 7.464 7.456 7.464ZM341.732 316.105h-7.077a4.126 4.126 0 0 1-4.122-4.127v-31.902h15.321v31.902a4.126 4.126 0 0 1-4.122 4.127Z" fill="#263238"/>
	<path opacity=".3" d="M341.732 316.105h-7.077a4.126 4.126 0 0 1-4.122-4.127v-31.902h15.321v31.902a4.126 4.126 0 0 1-4.122 4.127Z" fill="#fff"/>
	<path d="M365.436 216.831s2.176 53.953-12.835 63.235h17.127s13.274-18.384 9.521-63.235h-13.813Z" fill="#263238"/>
	<path opacity=".3" d="M365.436 216.831s2.176 53.953-12.835 63.235h17.127s13.274-18.384 9.521-63.235h-13.813Z" fill="#fff"/>
	<path d="M303.795 272.523h66.791a4.994 4.994 0 0 1 4.99 4.995v6.685h-76.772v-6.685a4.989 4.989 0 0 1 4.991-4.995Z" fill="#263238"/>
	<path d="M297.607 278.367h79.157c1.108 0 2.006.9 2.006 2.009v1.818a2.007 2.007 0 0 1-2.006 2.008h-79.157a2.008 2.008 0 0 1-2.007-2.008v-1.818c0-1.109.899-2.009 2.007-2.009Z" fill="#263238"/>
	<path opacity=".6" d="M297.607 278.367h79.157c1.108 0 2.006.9 2.006 2.009v1.818a2.007 2.007 0 0 1-2.006 2.008h-79.157a2.008 2.008 0 0 1-2.007-2.008v-1.818c0-1.109.899-2.009 2.007-2.009Z" fill="#fff"/>
	<path d="M383.461 227.792h-27.447c-8.035 0-14.552-6.525-14.552-14.568v-10.74c0-8.043 6.517-14.568 14.552-14.568h27.437c8.035 0 14.552 6.525 14.552 14.568v10.74c.01 8.043-6.507 14.568-14.542 14.568Z" fill="#263238"/>
	<path d="m272.764 143.825-5.479-14.458s2.345-2.178.739-4.386c-1.607-2.208-11.718-8.423-13.564-7.324-1.847 1.09-5.929 5.206-3.723 7.494 2.216 2.288 12.007 6.095 12.007 6.095l4.84 18.973 5.18-6.394Z" fill="#FFCCAF"/>
	<path d="M311.031 171.311s-24.922-5.126-27.627-6.355c-2.705-1.229-12.736-30.633-12.736-30.633l-7.685 3.597s6.188 29.514 12.516 36.538c6.328 7.014 33.326 12.959 33.326 12.959l2.206-16.106Z" fill="#4754C7"/>
	<path d="m270.788 133.743 1.587 3.068-9.881 3.407.379-3.747 7.915-2.728Z" fill="#4754C7"/>
	<path d="M346.163 150.948s1.467 13.818-3.653 17.215c-5.11 3.397-30.272-.579-33.126-6.144-2.855-5.555 7.885-20.652 7.885-20.652l28.894 9.581Z" fill="#263238"/>
	<path d="m244.369 332.77 6.557 1.589 3.324-9.072 3.014-8.253-7.475-3.187-2.875 10.011-2.545 8.912Z" fill="#FFCCAF"/>
	<path opacity=".2" d="m246.914 323.858 7.336 1.429 3.014-8.253-7.475-3.187-2.875 10.011Z" fill="#000"/>
	<path d="m247.573 319.072 9.102 3.387s24.284-60.777 29.274-60.987c4.99-.21 55.803 23.17 68.538 10.201 12.735-12.958-5.679-44.201-5.679-44.201s-30.631-4.376-32.937 2.548c-.449 1.338-.938 3.966-1.297 6.214a151.075 151.075 0 0 0-.589 3.897s-.01 0-.02-.01c-.948-.24-31.699-8.183-43.816.01-12.306 8.333-22.576 78.941-22.576 78.941Z" fill="#ACB5FF"/>
	<path d="m299.932 358.698 6.538-1.679-1.258-9.392-1.168-8.612-8.084.729 2.096 10.041 1.876 8.913Z" fill="#FFCCAF"/>
	<path opacity=".2" d="m298.106 349.985 7.156-2.178-1.198-8.702-8.094.689 2.136 10.191Z" fill="#000"/>
	<path d="m260.438 319.082-13.254-4.506-.569 5.435 10.05 3.557 3.773-4.486Z" fill="#4754C7"/>
	<path d="M332.489 274.791s-2.076.049-34.204-1.449c0 0 4.801 40.215 7.426 70.309l-9.612 1.638s-22.955-64.454-22.706-74.695c.25-10.241 11.977-13.238 11.977-13.238s22.896 13.238 47.119 17.435Z" fill="#919CFF"/>
	<path d="m307.118 340.733-13.204 1.509 2.545 5.175 10.689-1.368-.03-5.316Z" fill="#4754C7"/>
	<path opacity=".1" d="m313.985 240.131 17.915 3.736s-9.9-5.475-17.326-7.633c-.35 2.118-.589 3.897-.589 3.897Z" fill="#000"/>
	<path d="m348.069 222.706.739 4.766-32.937 2.548-.868-5.645 33.066-1.669Z" fill="#263238"/>
	<path opacity=".2" d="m348.069 222.706.739 4.766-32.937 2.548-.868-5.645 33.066-1.669Z" fill="#000"/>
	<path d="m337.659 230.685 1.629-.168-.853-8.299-1.628.167.852 8.3Z" fill="#407BFF"/>
	<path d="m323.08 229.846 7.211-.464-.351-5.474-7.211.464.351 5.474Z" fill="#fff"/>
	<path d="m317.491 231.579 1.628-.167-.852-8.299-1.628.168.852 8.298Z" fill="#407BFF"/>
	<path opacity=".6" d="m337.659 230.685 1.629-.168-.853-8.299-1.628.167.852 8.3ZM317.491 231.579l1.628-.167-.852-8.299-1.628.168.852 8.298Z" fill="#fff"/>
	<path d="M310.432 170.851s8.404 2.638 18.973 2.098c10.57-.539 23.206 4.596 23.206 4.596l-4.542 45.151-33.066 1.668c0 .01-11.109-37.697-4.571-53.513Z" fill="#ACB5FF"/>
	<path d="M315.742 145.353s1.856-21.931 20.171-13.958c22.985 10.002 4.711 36.708-6.518 31.223-11.228-5.475-13.653-17.265-13.653-17.265Z" fill="#263238"/>
	<path opacity=".2" d="m320.872 174.178.529 12.39 4.102-5.825s-1.467 13.708-.609 21.161c0 0 .788-13.378 2.645-21.161l4.361 5.825 6.258-12.31c.01 0-10.12-3.647-17.286-.08Z" fill="#000"/>
	<path d="m326.551 176.486 9.472-2.678c-5.839-4.016-2.895-13.008-2.895-13.008l-9.382 3.297c.499 1.559.819 2.877 1.008 4.016.978 5.855-1.667 6.325-1.667 6.325l3.464 2.048Z" fill="#FFCCAF"/>
	<path opacity=".2" d="M323.746 164.097c.499 1.559.819 2.877 1.008 4.016 4.492-1.798 8.374-7.313 8.374-7.313l-9.382 3.297Z" fill="#000"/>
	<path d="M329.864 136.001c-8.304-1.838-11.967 2.019-14.472 10.451-3.124 10.541-2.435 18.674 8.454 18.684 14.802.02 19.812-26.077 6.018-29.135Z" fill="#FFCCAF"/>
	<path d="M320.872 147.182s-1.627 1.918-3.184 2.917c0 0 .459 1.289 1.986 1.429l1.198-4.346Z" fill="#DE5753"/>
	<path d="M326.102 147.622c-.17.679.06 1.318.519 1.428.449.11.958-.349 1.117-1.029.17-.679-.059-1.319-.519-1.429-.449-.109-.948.35-1.117 1.03Z" fill="#263238"/>
	<path d="m327.408 146.672-1.337-.939s.429 1.429 1.337.939ZM317.698 145.403c-.17.68.06 1.319.519 1.429.449.11.958-.349 1.118-1.029.169-.679-.06-1.319-.519-1.429-.449-.11-.948.35-1.118 1.029Z" fill="#263238"/>
	<path d="m319.004 144.454-1.337-.939s.429 1.419 1.337.939Z" fill="#263238"/>
	<path d="M327.459 141.896s2.405.21 3.324 2.059M321.501 140.208s-1.348-.869-3.464-.05" stroke="#263238" stroke-width=".725" stroke-miterlimit="10" stroke-linecap="round" stroke-linejoin="round"/>
	<path d="M335.843 152.028s-2.376-7.694-.619-12.839c0 0-14.971-10.381-19.482 6.165 0 0 1.676-15.207 16.029-12.38 14.332 2.828 9.671 23.73.918 28.326 0 .01 4.611-4.466 3.154-9.272Z" fill="#263238"/>
	<path d="M334.096 153.476c.35-1.329 2.236-3.287 4.661-2.468 2.515.85 2.565 6.415-4.112 6.265-.958-.01-1.277-1.019-.549-3.797Z" fill="#E4897B"/>
	<path d="M318.187 154.675c.289 1.099.429 3.088.429 3.088.18.02.369.04.549.05 2.475.209 3.703-.51 4.302-1.379.329-.47.459-.999.519-1.429.07-.5 0-.869 0-.869-1.378.669-3.713.659-4.951.589-.529-.01-.848-.05-.848-.05Z" fill="#263238"/>
	<path d="m319.035 154.735.15.909c2.335.19 4.012.02 4.801-.629.07-.5 0-.869 0-.869-1.388.669-3.713.649-4.951.589Z" fill="#fff"/>
	<path d="M319.165 157.822c2.475.21 3.703-.509 4.302-1.378-.849-.04-1.877.01-2.805.309-.709.23-1.178.64-1.497 1.069Z" fill="#DE5753"/>
	<path d="M329.894 136.661s.32 14.427 8.963 16.156c8.643 1.728-.808-18.534-.808-18.534s-12.876-8.413-21.449-2.488c-8.584 5.935-.868 13.558-.868 13.558s1.826-10.71 14.162-8.692Z" fill="#263238"/>
	<path d="M330.194 135.712s-3.084 9.122 3.004 13.908" stroke="#263238" stroke-width=".5" stroke-miterlimit="10" stroke-linecap="round" stroke-linejoin="round"/>
	<path d="M341.382 155.784c-1.098 2.938-3.922 4.586-6.308 3.687-2.385-.899-3.423-3.997-2.325-6.934 1.098-2.937 3.922-4.586 6.308-3.687 2.385.899 3.433 4.007 2.325 6.934Z" fill="#407BFF"/>
	<path opacity=".4" d="M341.382 155.784c-1.098 2.938-3.922 4.586-6.308 3.687-2.385-.899-3.423-3.997-2.325-6.934 1.098-2.937 3.922-4.586 6.308-3.687 2.385.899 3.433 4.007 2.325 6.934Z" fill="#000"/>
	<path d="M338.637 150.978s3.584-16.056-4.451-20.262c0 0 1.677.23 2.715.53 1.038.299 7.455 6.814 4.212 21.241l-2.476-1.509ZM323.566 160.17l-.598-.09.159-.989c7.236 1.179 12.616-2.647 12.666-2.687l.589.809c-.22.16-5.45 3.926-12.816 2.957Z" fill="#fff"/>
	<path d="M341.053 155.385c-.729 1.938-2.595 3.027-4.172 2.437-1.577-.589-2.266-2.647-1.537-4.586.728-1.938 2.595-3.027 4.172-2.437 1.577.599 2.265 2.647 1.537 4.586ZM322.678 160.49l-.798-.11a1.082 1.082 0 0 1-.938-1.219 1.081 1.081 0 0 1 1.217-.939l.799.11a1.088 1.088 0 0 1-.28 2.158Z" fill="#407BFF"/>
	<path opacity=".4" d="m322.678 160.49-.798-.11a1.082 1.082 0 0 1-.938-1.219 1.081 1.081 0 0 1 1.217-.939l.799.11a1.088 1.088 0 0 1-.28 2.158Z" fill="#000"/>
	<path d="m333.477 170.372-5.928 5.825 2.365 7.143 8.254-9.082-4.691-3.886ZM324.904 171.59l.958 4.486-3.074 6.345-1.916-8.243 4.032-2.588Z" fill="#4754C7"/>
	<path d="m332.21 175.427 3.443-12.619s-1.667-3.147-1.307-3.797c.359-.659 2.156-9.132 3.433-10.051 1.278-.919 6.528.65 7.066 1.509.529.859-5.03 12.339-5.03 12.339l-2.026 13.668-5.579-1.049Z" fill="#FFCCAF"/>
	<path d="M352.611 177.545c9.471 9.712-9.522 31.713-20.401 30.774-10.879-.94.269-40.825.269-40.825l6.967 1.149s-2.445 17.265-1.677 18.614c.779 1.359 11.658-12.969 14.842-9.712Z" fill="#4754C7"/>
	<path d="m331.9 166.215-1.028 3.297 9.712.86v-2.878l-8.684-1.279Z" fill="#4754C7"/>
	<path opacity=".6" d="M317.189 201.315h-3.933a.784.784 0 0 1-.788-.79v-7.433c0-.44.349-.79.788-.79h3.933c.439 0 .788.35.788.79v7.433c0 .44-.349.79-.788.79Z" fill="#fff"/>
	<path opacity=".2" d="M317.269 192.892h-4.472v6.125h4.472v-6.125Z" fill="#000"/>
	<path d="M315.622 190.134h-.988v3.607h.988v-3.607Z" fill="#263238"/>
	<path d="M233.5 345.539a9.178 9.178 0 0 1 3.164-.809s3.793-2.238 7.545-10.911l4.222-.02a3.49 3.49 0 0 1 3.244 2.328 2 2 0 0 1 .12.59 22.349 22.349 0 0 1-.33 3.047c-.379 3.167-2.465 9.951-2.465 9.951l-.718-.179 1.297-6.315c.429-2.148-1.816-.07-2.864 2.088-1.048 2.158-2.645 4.337-7.316 3.267-5.41-1.278-7.606-2.058-5.899-3.037Z" fill="#172176"/>
	<path d="M244.978 331.541s-5.28 11.051-8.314 13.189c0 0 4.072 2.428 8.314-2.978 5.479-6.994 6.827-5.045 6.827-5.045s-.23-2.398-.659-3.567c-.828-2.258-6.168-1.599-6.168-1.599Z" fill="#FFCCAF"/>
	<path d="M291.608 371.866a9.246 9.246 0 0 1 2.885-1.539s3.153-3.067 4.75-12.389l4.102-1.029a3.475 3.475 0 0 1 3.703 1.489c.11.17.2.35.26.539.199 1 .339 2.019.409 3.038.379 3.167-.04 10.251-.04 10.251l-.738-.01-.23-6.445c-.09-2.188-1.787.36-2.286 2.708-.499 2.348-1.547 4.846-6.327 4.916-5.6.07-7.915-.17-6.488-1.529Z" fill="#172176"/>
	<path d="M299.443 355.55s-2.505 11.99-4.951 14.778c0 0 4.532 1.398 7.366-4.866 3.673-8.103 5.44-6.515 5.44-6.515s-.789-2.268-1.487-3.307c-1.338-1.998-6.368-.09-6.368-.09Z" fill="#FFCCAF"/>
	<path d="M392.244 138.769h-34.853a5.063 5.063 0 0 1-5.06-5.065v-14.927a5.063 5.063 0 0 1 5.06-5.066h34.853a5.054 5.054 0 0 1 5.05 5.066v14.927a5.048 5.048 0 0 1-5.05 5.065Z" fill="#FF64AE"/>
	<path d="m364.388 135.912-10.49 14.287 16.937-13.328-6.447-.959Z" fill="#FF64AE"/>
	<path d="M364.787 126.24c0 .809-.659 1.479-1.477 1.479-.818 0-1.477-.66-1.477-1.479 0-.809.659-1.479 1.477-1.479.818 0 1.477.67 1.477 1.479ZM372.462 126.24a1.48 1.48 0 0 1-1.477 1.479c-.808 0-1.477-.66-1.477-1.479 0-.809.659-1.479 1.477-1.479.819.01 1.477.67 1.477 1.479ZM380.138 126.24c0 .809-.659 1.479-1.478 1.479-.818 0-1.477-.66-1.477-1.479 0-.809.659-1.479 1.477-1.479.819 0 1.478.67 1.478 1.479ZM387.803 126.24c0 .809-.659 1.479-1.477 1.479-.819 0-1.478-.66-1.478-1.479 0-.809.659-1.479 1.478-1.479.818 0 1.477.67 1.477 1.479Z" fill="#fff"/>
	<path d="m252.184 119.066-24.852-13.398a1.382 1.382 0 0 1-.559-1.878l7.925-14.727a1.379 1.379 0 0 1 1.876-.56l24.852 13.398c.669.36.928 1.199.559 1.879l-7.925 14.727a1.379 1.379 0 0 1-1.876.559Z" fill="#ACB5FF"/>
	<path opacity=".2" d="m234.049 90.281 7.775 14.538a3.171 3.171 0 0 0 3.104 1.658l16.179-1.598-16.478 2.428a3.37 3.37 0 0 1-3.554-1.919l-7.026-15.107Z" fill="#000"/>
	<path d="M215.175 87.574c.26-5.555 4.372-16.756 9.372-20.183 5.001-3.427 1.707 1.32 1.707 1.32s4.741-4.617 7.236-4.477c2.505.13 0 3.028 0 3.028s5.13-3.168 7.506-3.038c2.365.13 0 2.898 0 2.898s4.211-3.028 5.918-1.579c1.707 1.449-21.848 16.995-24.483 23.32-2.625 6.324-7.525 4.336-7.256-1.29Z" fill="#FF64AE"/>
	<path d="m235.406 86.754 3.144 2.019c.23.15.11.5-.159.48l-3.304-.26.279 2.537c.03.28-.309.43-.499.22l-1.906-2.158 2.445-2.838Z" fill="#407BFF"/>
	<path opacity=".3" d="m235.406 86.754 3.144 2.019c.23.15.11.5-.159.48l-3.304-.26.279 2.537c.03.28-.309.43-.499.22l-1.906-2.158 2.445-2.838Z" fill="#fff"/>
	<path d="M191.251 74.245s4.342-3.027 10.929-1.059c0 0 1.897 8.693 7.067 11.59 2.844 1.589 9.801 1.459 15.31-.33 6.538-2.118 9.742-2.118 10.929.33 1.118 2.318-.13 5.006-5.13 6.195s-8.953 9.881-18.035 10.011c-9.083.13-13.863-8.982-11.578-16.995-.02 0-2.784-5.965-9.492-9.742Z" fill="#FFBEDD"/>
	<path d="M232.971 86.425c0 .25-.2.44-.439.44-.24 0-.449-.2-.449-.44 0-.25.199-.45.449-.45.249 0 .439.21.439.45Z" fill="#263238"/>
	<path d="M210.195 93.748c-5.36 1.47-17.277 1.01-22.077-2.697-4.801-3.707.728-2.038.728-2.038s-5.849-3.088-6.487-5.506c-.649-2.418 2.874-.939 2.874-.939s-4.591-3.906-5.2-6.204c-.599-2.299 2.755-.9 2.755-.9s-4.182-3.077-3.334-5.155c.849-2.078 22.896 15.556 29.713 16.116 6.837.56 6.458 5.845 1.028 7.323Z" fill="#FF64AE"/>
	<path d="M175.073 69.07a68.25 68.25 0 0 0-2.845-.94" stroke="#407BFF" stroke-width=".75" stroke-linecap="round" stroke-linejoin="round"/>
	<path d="M166.389 66.642a79.323 79.323 0 0 0-10.589-1.459c-9.702-.68-24.922-1.638-30.861 8.043-5.419 8.823 3.903 23.87 7.206 32.062 4.053 10.032 8.873 22.431 4.082 33.052-9.841 21.821-51.95 10.49-66.152-9.612" stroke="#407BFF" stroke-width=".75" stroke-linecap="round" stroke-linejoin="round" stroke-dasharray="6.03 6.03"/>
	<path d="M68.468 126.2a24.77 24.77 0 0 1-1.327-2.688" stroke="#407BFF" stroke-width=".75" stroke-linecap="round" stroke-linejoin="round"/>
	<path d="M189.685 205.531h-37.888v7.773h37.888v-7.773Z" fill="#fff"/>
	<path opacity=".1" d="M189.685 205.531h-37.888v7.773h37.888v-7.773Z" fill="#000"/>
	<path opacity=".1" d="M167.757 205.531h-15.96v7.773h15.96v-7.773Z" fill="#000"/>
	<path opacity=".1" d="M151.797 206.65h33.726l-33.726.959v-.959ZM189.685 207.999l-29.234.729h29.234v-.729ZM153.345 210.177l14.412-.59 21.189.59-21.189.33-14.412-.33ZM151.797 211.825h24.972l-24.972.59v-.59ZM189.635 212.415l-16.678.31h16.728l-.05-.31Z" fill="#000"/>
	<path d="M184.415 197.758h-37.887v7.773h37.887v-7.773Z" fill="#fff"/>
	<path opacity=".1" d="M184.415 197.758h-37.887v7.773h37.887v-7.773Z" fill="#000"/>
	<path opacity=".1" d="M162.487 197.758h-15.959v7.773h15.959v-7.773Z" fill="#000"/>
	<path opacity=".1" d="M146.528 198.877h33.725l-33.725.949v-.949ZM184.415 200.226l-29.234.719h29.234v-.719ZM148.075 202.394l14.412-.59 21.189.59-21.189.329-14.412-.329ZM146.528 204.042H171.5l-24.972.6v-.6ZM184.355 204.642l-16.668.31h16.728l-.06-.31Z" fill="#000"/>
	<path d="M188.736 189.975h-37.887v7.773h37.887v-7.773Z" fill="#fff"/>
	<path opacity=".1" d="M188.736 189.975h-37.887v7.773h37.887v-7.773Z" fill="#000"/>
	<path opacity=".1" d="M166.809 189.975h-15.96v7.773h15.96v-7.773Z" fill="#000"/>
	<path opacity=".1" d="M150.849 191.094h33.725l-33.725.959v-.959ZM188.736 192.442l-29.233.73h29.233v-.73ZM152.396 194.62l14.413-.589 21.189.589-21.189.33-14.413-.33ZM150.849 196.269h24.972l-24.972.59v-.59ZM188.686 196.859l-16.677.309h16.727l-.05-.309Z" fill="#000"/>
	<path d="m213.978 213.144.988-3.726h40.472l18.634 1.868.708 1.858h-60.802Z" fill="#263238"/>
	<path opacity=".4" d="M255.438 209.418v3.726h-41.46l.988-3.726h40.472Z" fill="#000"/>
	<path d="M247.304 191.583c.179 1.969-1.258 3.567-3.214 3.567h-62.001c-1.966 0-3.703-1.598-3.882-3.567l-3.683-39.735c-.04-.41-.01-.799.08-1.159.349-1.399 1.577-2.408 3.134-2.408h62c1.966 0 3.703 1.599 3.883 3.567l3.683 39.735Z" fill="#263238"/>
	<path opacity=".4" d="M243.87 195.15h-61.781c-1.966 0-3.703-1.598-3.882-3.567l-3.683-39.735c-.04-.41-.01-.799.08-1.159h61.781c1.956 0 3.692 1.599 3.882 3.567l3.683 39.735c.04.41.01.8-.08 1.159Z" fill="#fff"/>
	<path d="M201.272 170.781h12.835l-3.423 36.759 20.281 3.047v2.558h-42.718v-2.558L197 207.54l4.272-36.759Z" fill="#263238"/>
	<path opacity=".1" d="m214.107 170.781-9.511 41.784-7.596-.23 4.272-41.554h12.835Z" fill="#fff"/>
	<path d="M214.048 373.415h-6.119l-10.988-153.117h8.114l8.993 153.117Z" fill="#263238"/>
	<path opacity=".4" d="M214.048 373.414h-6.119l-10.45-145.503-.538-7.364h8.114l.439 7.364 8.554 145.503Z" fill="#fff"/>
	<path opacity=".2" d="M205.494 227.541h-8.015l-.538-6.994h8.114l.439 6.994Z" fill="#000"/>
	<path d="M258.921 373.415h-6.118l-.998-153.117h8.114l-.998 153.117Z" fill="#263238"/>
	<path opacity=".5" d="m259.919 220.547-.16 24.709-.838 128.158h-6.118l-.838-128.158-.16-24.709h8.114Z" fill="#fff"/>
	<path opacity=".2" d="m259.919 220.547-.16 24.979h-7.794l-.16-24.979h8.114Z" fill="#000"/>
	<path d="M323.836 373.415h-6.118l-10.989-153.117h8.114l8.993 153.117Z" fill="#263238"/>
	<path opacity=".5" d="M323.836 373.414h-6.118l-10.45-145.503-.539-7.364h8.114l.44 7.364 8.553 145.503Z" fill="#fff"/>
	<path opacity=".2" d="M315.283 227.541h-8.015l-.539-6.994h8.114l.44 6.994Z" fill="#000"/>
	<path d="M144.092 373.415h-6.108l8.983-153.117h8.114l-10.989 153.117Z" fill="#263238"/>
	<path opacity=".5" d="m155.081 220.547-.539 7.364-10.45 145.503h-6.108l8.544-145.503.439-7.364h8.114Z" fill="#fff"/>
	<path opacity=".2" d="M146.967 220.548h8.114l-.539 6.994h-8.014l.439-6.994Z" fill="#000"/>
	<path d="M319.115 224.135h-176.42a2.16 2.16 0 0 1-2.156-2.158v-5.505h180.732v5.505a2.154 2.154 0 0 1-2.156 2.158Z" fill="#FF64AE"/>
	<path opacity=".2" d="M321.271 216.472H140.539v3.836h180.732v-3.836Z" fill="#000"/>
	<path d="M325.064 217.471H136.746a2.16 2.16 0 0 1-2.155-2.158 2.16 2.16 0 0 1 2.155-2.158h188.318a2.16 2.16 0 0 1 2.155 2.158 2.16 2.16 0 0 1-2.155 2.158Z" fill="#FF64AE"/>
	<path d="m280.509 206.49 2.316-3.477a2.496 2.496 0 0 1 2.076-1.109h2.934c.25 0 .489.04.719.11l10.47 3.177c.599.18 1.098.58 1.417 1.109l1.497 2.528-21.429-2.338Z" fill="#407BFF"/>
	<path opacity=".2" d="m301.948 208.828-15.24-1.658-6.199-.68 2.316-3.477a2.496 2.496 0 0 1 2.076-1.109h2.934c.25 0 .489.04.729.11l.23.07 10.23 3.107c.599.18 1.108.57 1.427 1.109l1.497 2.528Z" fill="#000"/>
	<path opacity=".2" d="m301.948 208.828-15.24-1.658 2.086-5.086 10.23 3.108a2.469 2.469 0 0 1 1.427 1.109l1.497 2.527Z" fill="#000"/>
	<path d="M309.194 212.815v.33h-32.357l1.197-4.686a4.026 4.026 0 0 1 3.883-2.988h14.352c.479 0 .948.08 1.397.25l1.797.669 7.126 2.658a4.022 4.022 0 0 1 2.605 3.767Z" fill="#407BFF"/>
	<path opacity=".2" d="M309.194 212.815v.33H295.91l.708-5.066a2.128 2.128 0 0 1 2.845-1.689l7.126 2.658a4.022 4.022 0 0 1 2.605 3.767Z" fill="#000"/>
	<path d="m297.976 209.708 4.222-12.699a.944.944 0 0 1 1.327-.54c.389.2.589.65.479 1.079l-3.563 13.558c.01-.01-2.365.95-2.465-1.398Z" fill="#263238"/>
	<path opacity=".2" d="M280.509 212.095h-1.876l.359-1.848h1.877l-.36 1.848ZM283.304 212.025h-1.876l.359-1.848h1.876l-.359 1.848Z" fill="#000"/>
</svg>
