<svg width="166" height="166" fill="none" xmlns="http://www.w3.org/2000/svg">
	<circle cx="83" cy="83" r="83" fill="url(#a)"/>
	<path opacity=".5" d="M44.788 105.308c-1.358-3.247 3.82-5.923 3.82-5.923s6.716 2.302 7.7 1.723c.977-.58-5.358-3.089-5.358-3.089 1.603-1.516 7.661-2.819 7.661-2.819s3.97 5.693 4.78 4.884c.81-.81-3.78-4.86-3.78-4.86 2.065-.802 5.154-.055 5.154-.055 4.43 1.667 2.064 7.265 2.064 7.265s1.422 1.945 4.288 3.208c0 0 .58.198 1.373.674l-.46.358a5.317 5.317 0 0 0-.397-.262h-.008c-.087-.048-.206-.111-.357-.191-.35-.167-.604-.294-.778-.389-1.088-.532-2.557-1.183-3.137-1.104 0 0-.008-.111-.063-.285.024.087.04.182.063.285.517 2.287-3.176 5.598-5.7 6.845-2.525 1.246-2.057-.104-1.652-2.017.397-1.906 3.057-3.557 3.486-4.51.42-.953-.945-.524-2.31.715-1.367 1.238-.962 3.255-3.137 5.304-2.176 2.048-7.392-.977-7.392-.977 2.008-.754 4.224-3.907 3.898-4.55-.325-.643-4.581 2.755-5.383 3.105-.802.333-3.017-.095-4.375-3.335Z" fill="#A8CCFF"/>
	<path d="M40.73 62.266c.406-3.93 6.948-3.796 6.948-3.796s5.391 5.884 6.67 5.836c1.278-.047-3.629-5.93-3.629-5.93 2.39-.636 9.076 1.333 9.076 1.333s.865 7.75 2.096 7.384c1.23-.365-1.112-6.82-1.112-6.82 2.47.317 5.113 2.707 5.113 2.707 3.478 4.018-1.865 8.274-1.865 8.274s.357 2.675 2.5 5.47c0 0 .461.5 1.001 1.406l-.643.103c-.08-.167-.167-.318-.254-.469v-.007c-.064-.096-.143-.223-.254-.382-.262-.349-.437-.611-.556-.802-.786-1.111-1.89-2.54-2.501-2.778 0 0 .056-.112.087-.318-.031.103-.055.206-.087.317-.715 2.533-6.138 3.82-9.298 3.693-3.16-.127-1.969-1.207-.548-2.875 1.422-1.667 4.931-1.866 5.86-2.58.929-.715-.651-1.024-2.66-.532-2.017.492-2.7 2.692-5.939 3.549-3.24.85-6.765-4.93-6.765-4.93 2.39.333 6.265-1.589 6.289-2.399.032-.81-5.995.255-6.98.175-1-.087-2.953-1.7-2.548-5.63Z" fill="#DCEAFB"/>
	<path opacity=".5" d="M117.621 61.456c-.548-5.36-9.464-5.17-9.464-5.17s-7.345 8.012-9.091 7.949c-1.747-.064 4.938-8.075 4.938-8.075-3.263-.866-12.362 1.818-12.362 1.818s-1.175 10.56-2.85 10.068c-1.676-.492 1.516-9.298 1.516-9.298-3.367.437-6.964 3.684-6.964 3.684-4.732 5.479 2.541 11.275 2.541 11.275s-.484 3.653-3.414 7.448c0 0-.635.683-1.358 1.913l.874.143c.111-.222.222-.436.35-.643 0 0 0-.008.007-.008.08-.127.199-.302.342-.516.349-.476.595-.834.754-1.096 1.072-1.508 2.572-3.461 3.414-3.779 0 0-.072-.15-.12-.429.04.135.08.278.12.429.969 3.454 8.36 5.209 12.672 5.034 4.304-.175 2.684-1.644.754-3.922-1.929-2.271-6.717-2.541-7.98-3.518-1.27-.976.89-1.39 3.63-.722 2.739.667 3.675 3.676 8.098 4.835 4.415 1.16 9.218-6.717 9.218-6.717-3.255.452-8.535-2.16-8.575-3.263-.039-1.104 8.17.349 9.504.238 1.334-.127 4.002-2.319 3.446-7.678Z" fill="#A8CCFF"/>
	<path d="M55.142 44.48s1.508-2.636 5.121-2.342c0 0 5.248-4.39 10.838-.588 0 0 5.947-.944 10.354.818 2.938 1.175 3.906 2.406 3.906 2.406l-30.22-.294ZM93.944 49.728s.906-2.08 3.081-1.85c0 0 3.152-3.47 6.519-.46 0 0 3.581-.746 6.225.643 1.762.93 2.35 1.898 2.35 1.898l-18.175-.23ZM47.877 50.61s.841-1.62 2.842-1.445c0 0 2.906-2.7 6.01-.358 0 0 3.296-.58 5.741.5 1.628.723 2.168 1.477 2.168 1.477l-16.761-.174Z" fill="#F6FBFF"/>
	<path d="M137.36 84.505v31.427H88.664V84.505s7.099-.69 10.338-.69c3.907.008 11.696.706 15.594.69 3.629-.015 10.878-.754 14.514-.69 2.073.04 8.25.69 8.25.69Z" fill="#FFA5A8"/>
	<path d="M137.36 84.37v7.9c-3.7-.468-4.113 2.86-6.503 3.01-2.39.15-.945-2.66-3.184-2.716-2.239-.055-1.373 1.747-3.549 2.51-2.168.762-3.763-.763-4.557-1.93-.794-1.167-1.811-1.516-3.256-.643-1.445.873-1.159 2.684-3.906 2.565-2.747-.12-2.096-3.145-4.272-2.327-2.168.818-2.969 2.39-4.994 2.327-2.025-.064-1.445-2.62-3.692-2.565-2.24.056-1.556 1.953-5.137 2.477-3.581.524-5.638-1.572-5.638-1.572v-9.035s7.099-.556 10.338-.556c3.907.008 11.696.563 15.594.556 3.629-.008 10.878-.612 14.514-.556 2.065.032 8.242.556 8.242.556Z" fill="#FFE1CC"/>
	<path d="M137.36 84.505v3.375s-10.703-.405-17.214-.08c-6.511.326-16.61-.436-20.628-.54-4.017-.11-10.846.54-10.846.54v-3.287s7.099-.69 10.338-.69c3.907.008 11.696.706 15.594.69 3.629-.015 10.878-.754 14.514-.69 2.065.031 8.242.683 8.242.683Z" fill="#FFCCA9"/>
	<path d="M88.664 111.041s4.01-.524 8.13 0c4.13.524 12.157-.993 16.937-.231 4.779.763 8.249.112 14.22-.214 5.971-.325 9.401.572 9.401.572v4.764H88.664v-4.891ZM103.186 109.707c-1.318 0-2.509-.056-3.477-.207-4.7-.714-10.965-.309-11.029-.309l-.024-.326c.064-.008 6.36-.405 11.1.31 2.501.381 6.527.143 10.41-.087 3.493-.207 6.796-.397 8.694-.128 1.818.263 5.328.032 8.718-.19 4.01-.262 8.154-.532 9.822-.024l-.096.31c-1.611-.493-5.724-.223-9.71.032-3.565.23-6.932.452-8.79.182-1.866-.27-5.153-.079-8.63.127-2.398.159-4.86.31-6.988.31Z" fill="#FF7A7E"/>
	<path d="M103.623 108.921c-.738 0-1.469-.04-2.223-.135-4.756-.596-12.656-.516-12.736-.516v-.326c.08 0 8.004-.071 12.776.524 2.143.27 4.144.072 6.685-.167 3.144-.301 7.059-.674 12.998-.357 6.042.326 9.091-.19 11.314-.564 1.771-.301 3.049-.516 4.939-.206l-.056.318c-1.834-.302-3.096-.088-4.835.206-2.239.381-5.304.897-11.386.572-5.915-.326-9.814.055-12.95.357-1.668.159-3.113.294-4.526.294Z" fill="#7E9BEA"/>
	<path opacity=".4" d="M91.054 114.709a.556.556 0 1 0 0-1.112.556.556 0 0 0 0 1.112ZM89.284 114.391c0-.309.246-.555.555-.555.302 0 .556.246.556.555a.557.557 0 0 1-.555.556.557.557 0 0 1-.556-.556ZM90.888 112.859c0-.31.246-.556.555-.556.31 0 .556.246.556.556a.557.557 0 0 1-.556.556.557.557 0 0 1-.555-.556ZM89.593 113.145c0-.302.246-.556.556-.556.302 0 .556.246.556.556a.553.553 0 0 1-.556.556.553.553 0 0 1-.556-.556ZM92.444 114.431a.556.556 0 1 0 0-1.112.556.556 0 0 0 0 1.112ZM94.032 113.875a.556.556 0 1 0 0-1.112.556.556 0 0 0 0 1.112ZM92.84 113.145a.556.556 0 1 0 0-1.112.556.556 0 0 0 0 1.112ZM95.397 114.518a.555.555 0 1 0 .002-1.11.555.555 0 0 0-.002 1.11ZM93.182 114.066a.56.56 0 0 1 .786 0 .56.56 0 0 1 0 .786.562.562 0 0 1-.786 0 .56.56 0 0 1 0-.786ZM96.716 113.986a.555.555 0 1 0 0-1.11.555.555 0 0 0 0 1.11ZM96.557 112.764a.556.556 0 1 0 0-1.112.556.556 0 0 0 0 1.112ZM97.898 113.415a.556.556 0 1 0 0-1.112.556.556 0 0 0 0 1.112ZM97.454 113.764a.562.562 0 0 1 .786 0 .56.56 0 0 1 0 .786.56.56 0 0 1-.786 0 .56.56 0 0 1 0-.786ZM99.13 114.09a.556.556 0 1 0-.001-1.112.556.556 0 0 0 0 1.112ZM100.312 113.534a.556.556 0 1 0 0-1.112.556.556 0 0 0 0 1.112ZM102.662 113.756a.556.556 0 1 0 0-1.112.556.556 0 0 0 0 1.112ZM104.052 113.272a.556.556 0 1 0 0-1.112.556.556 0 0 0 0 1.112ZM103.814 114.638a.556.556 0 1 0 0-1.112.556.556 0 0 0 0 1.112ZM105.156 114.09a.555.555 0 1 0 0-1.11.555.555 0 0 0 0 1.11ZM106.426 113.756a.556.556 0 1 0 0-1.112.556.556 0 0 0 0 1.112ZM105.426 112.859a.555.555 0 1 0 0-1.11.555.555 0 0 0 0 1.11ZM104.989 115.4a.556.556 0 1 0 0-1.112.556.556 0 0 0 0 1.112ZM106.267 114.987a.556.556 0 1 0 0-1.112.556.556 0 0 0 0 1.112ZM108.689 115.193a.555.555 0 1 0 .002-1.11.555.555 0 0 0-.002 1.11ZM109.634 113.693a.56.56 0 0 1 .786 0 .561.561 0 0 1 0 .786.561.561 0 0 1-.786 0 .56.56 0 0 1 0-.786ZM112.27 114.638a.556.556 0 1 0 0-1.112.556.556 0 0 0 0 1.112ZM113.397 113.986a.555.555 0 1 0 .002-1.11.555.555 0 0 0-.002 1.11ZM112.27 113.272a.556.556 0 1 0 0-1.112.556.556 0 0 0 0 1.112ZM111.087 112.716a.556.556 0 1 0 0-1.112.556.556 0 0 0 0 1.112ZM107.164 112.256a.56.56 0 0 1 .786 0 .56.56 0 0 1 0 .786.561.561 0 0 1-.786 0 .561.561 0 0 1 0-.786ZM107.164 113.574a.56.56 0 0 1 .786 0 .56.56 0 0 1 0 .786.561.561 0 0 1-.786 0 .561.561 0 0 1 0-.786ZM108.816 113.883a.556.556 0 1 0 0-1.112.556.556 0 0 0 0 1.112ZM109.634 112.47a.561.561 0 0 1 .786 0 .561.561 0 0 1 0 .786.561.561 0 0 1-.786 0 .56.56 0 0 1 0-.786Z" fill="#FFA0A3"/>
	<path opacity=".4" d="M111.158 113.986a.555.555 0 1 0 .002-1.11.555.555 0 0 0-.002 1.11ZM111.158 115.257a.556.556 0 1 0 0-1.112.556.556 0 0 0 0 1.112ZM109.118 111.525a.562.562 0 0 1 .285.731.562.562 0 0 1-.73.285.562.562 0 0 1-.286-.73.558.558 0 0 1 .731-.286ZM102.408 115.066a.556.556 0 1 0 0-1.112.556.556 0 0 0 0 1.112ZM101.138 112.105a.56.56 0 0 1 .786 0 .561.561 0 0 1 0 .786.561.561 0 0 1-.786 0 .561.561 0 0 1 0-.786ZM99.13 112.716a.556.556 0 1 0-.001-1.112.556.556 0 0 0 0 1.112ZM100.169 114.86a.556.556 0 1 0 0-1.112.556.556 0 0 0 0 1.112ZM101.424 114.312a.556.556 0 1 0 0-1.112.556.556 0 0 0 0 1.112ZM103.028 112.446a.556.556 0 1 0 0-1.112.556.556 0 0 0 0 1.112ZM95.318 113.272a.556.556 0 1 0 0-1.112.556.556 0 0 0 0 1.112ZM113.746 114.455c0-.302.247-.556.556-.556.31 0 .556.246.556.556 0 .31-.246.556-.556.556a.553.553 0 0 1-.556-.556ZM113.127 115.567a.556.556 0 1 0 0-1.112.556.556 0 0 0 0 1.112ZM114.866 115.098c0-.302.246-.556.556-.556.31 0 .556.246.556.556 0 .31-.246.556-.556.556a.557.557 0 0 1-.556-.556ZM121.353 114.947c0-.302.246-.556.556-.556.309 0 .556.247.556.556a.558.558 0 0 1-.556.556.552.552 0 0 1-.556-.556ZM117.081 115.011c0-.302.246-.556.556-.556.302 0 .556.246.556.556a.553.553 0 0 1-.556.556.558.558 0 0 1-.556-.556ZM118.9 114.701c0-.302.246-.556.555-.556.302 0 .556.246.556.556 0 .31-.246.556-.556.556a.562.562 0 0 1-.555-.556ZM113.866 112.859c0-.31.246-.556.555-.556.302 0 .556.246.556.556a.557.557 0 0 1-.556.556.562.562 0 0 1-.555-.556ZM112.849 112.192c0-.262.215-.476.469-.476s.476.214.476.476a.477.477 0 0 1-.476.476.476.476 0 0 1-.469-.476ZM115.422 114.431a.556.556 0 1 0 0-1.112.556.556 0 0 0 0 1.112ZM117.01 113.875a.556.556 0 1 0 0-1.112.556.556 0 0 0 0 1.112ZM115.819 113.145a.556.556 0 1 0 0-1.112.556.556 0 0 0 0 1.112ZM118.383 114.518a.555.555 0 1 0 .002-1.11.555.555 0 0 0-.002 1.11Z" fill="#FFA0A3"/>
	<path opacity=".4" d="M116.557 115.011a.556.556 0 1 0 0-1.112.556.556 0 0 0 0 1.112ZM119.304 113.042a.56.56 0 0 1 .786 0 .56.56 0 0 1 0 .786.561.561 0 0 1-.786 0 .561.561 0 0 1 0-.786ZM119.535 112.764a.555.555 0 1 0 0-1.11.555.555 0 0 0 0 1.11ZM120.877 113.415a.555.555 0 1 0 0-1.11.555.555 0 0 0 0 1.11ZM120.821 114.709a.556.556 0 1 0 0-1.112.556.556 0 0 0 0 1.112ZM122.115 114.09a.556.556 0 1 0 0-1.112.556.556 0 0 0 0 1.112ZM123.29 113.534a.556.556 0 1 0 0-1.112.556.556 0 0 0 0 1.112ZM125.648 113.756a.556.556 0 1 0 0-1.112.556.556 0 0 0 0 1.112ZM127.03 113.272a.556.556 0 1 0 0-1.112.556.556 0 0 0 0 1.112ZM126.792 114.638a.556.556 0 1 0 0-1.112.556.556 0 0 0 0 1.112ZM128.134 114.09a.555.555 0 1 0 0-1.11.555.555 0 0 0 0 1.11ZM129.404 113.756a.556.556 0 1 0 0-1.112.556.556 0 0 0 0 1.112ZM128.404 112.859a.555.555 0 1 0 0-1.11.555.555 0 0 0 0 1.11ZM127.578 114.455a.56.56 0 0 1 .786 0 .561.561 0 0 1 0 .786.561.561 0 0 1-.786 0 .56.56 0 0 1 0-.786ZM129.245 114.987a.556.556 0 1 0 0-1.112.556.556 0 0 0 0 1.112ZM131.667 115.193a.555.555 0 1 0 .002-1.11.555.555 0 0 0-.002 1.11ZM132.612 113.693a.56.56 0 0 1 .786 0 .554.554 0 0 1 0 .786.561.561 0 0 1-.786 0 .56.56 0 0 1 0-.786ZM135.248 114.638a.556.556 0 1 0 0-1.112.556.556 0 0 0 0 1.112ZM136.383 113.986a.555.555 0 1 0 .002-1.11.555.555 0 0 0-.002 1.11ZM135.248 113.272a.556.556 0 1 0 0-1.112.556.556 0 0 0 0 1.112ZM134.065 112.716a.556.556 0 1 0 0-1.112.556.556 0 0 0 0 1.112ZM130.539 113.2a.555.555 0 1 0 .002-1.11.555.555 0 0 0-.002 1.11ZM130.539 114.518a.555.555 0 1 0 .002-1.11.555.555 0 0 0-.002 1.11ZM131.794 113.883a.556.556 0 1 0 0-1.112.556.556 0 0 0 0 1.112ZM132.612 112.47a.561.561 0 0 1 .786 0 .561.561 0 0 1 0 .786.561.561 0 0 1-.786 0 .56.56 0 0 1 0-.786ZM133.747 113.042a.56.56 0 0 1 .786 0 .56.56 0 0 1 0 .786.561.561 0 0 1-.786 0 .561.561 0 0 1 0-.786ZM133.747 114.304a.561.561 0 0 1 .786 0 .56.56 0 0 1 0 .786.56.56 0 0 1-.786 0 .561.561 0 0 1 0-.786ZM132.096 111.525a.563.563 0 0 1 .286.731.564.564 0 0 1-.731.285.562.562 0 0 1-.286-.73.563.563 0 0 1 .731-.286ZM125.386 115.066a.556.556 0 1 0 0-1.112.556.556 0 0 0 0 1.112ZM124.505 113.05a.556.556 0 1 0 0-1.112.556.556 0 0 0 0 1.112ZM122.115 112.716a.556.556 0 1 0 0-1.112.556.556 0 0 0 0 1.112ZM123.147 114.86a.556.556 0 1 0 0-1.112.556.556 0 0 0 0 1.112ZM124.402 114.312a.556.556 0 1 0 0-1.112.556.556 0 0 0 0 1.112ZM126.014 112.446a.556.556 0 1 0 0-1.112.556.556 0 0 0 0 1.112ZM118.296 113.272a.556.556 0 1 0 0-1.112.556.556 0 0 0 0 1.112Z" fill="#FFA0A3"/>
	<path d="M137.36 93.708v.333c-2.049-.254-3.208 1.247-4.049 2.359-.342.444-.612.801-.882.952-.921.516-2.493.39-3.374-.635-.35-.405-.524-.897-.683-1.326-.222-.62-.421-1.16-1.04-1.326-.342-.095-.548.318-.889 1.056-.469 1.017-1.12 2.406-2.795 2.525-.096.008-.191.008-.286.008-2.382 0-3.946-2.136-4.994-3.573-.112-.15-.215-.286-.31-.42-.103-.144-.214-.215-.326-.215-.357-.016-.873.572-1.413 1.19-.842.962-1.89 2.153-3.247 2.335-1.811.238-2.652-.826-3.399-1.77-.365-.46-.714-.898-1.135-1.144-.524-.294-1.27.342-2.136 1.088-1.096.945-2.342 2.017-3.779 1.802-1.676-.246-1.914-1.254-2.112-2.064-.119-.484-.207-.873-.556-1.032-.715-.334-1.04.087-1.548.865-.12.175-.239.366-.374.54-.722.953-2.072 1.453-4.517 1.668-2.089.182-4.16-.525-4.836-.787v-.349c.477.19 2.668 1 4.804.81 2.35-.206 3.628-.667 4.287-1.54.127-.167.247-.35.358-.524.468-.715.953-1.453 1.961-.985.492.23.611.73.738 1.255.191.786.381 1.603 1.842 1.818 1.295.19 2.478-.834 3.518-1.731.96-.826 1.786-1.532 2.509-1.12.484.27.849.739 1.23 1.223.723.921 1.469 1.866 3.097 1.652 1.239-.167 2.239-1.302 3.049-2.224.651-.738 1.159-1.318 1.675-1.302.215.008.413.127.58.35.095.135.206.27.31.42 1.048 1.43 2.628 3.597 4.994 3.43 1.485-.103 2.056-1.341 2.525-2.342.349-.754.651-1.405 1.278-1.23.786.222 1.024.889 1.262 1.532.151.42.31.865.62 1.223.77.897 2.159 1.016 2.961.564.215-.12.477-.461.779-.866.825-1.104 2.088-2.747 4.303-2.493Z" fill="#7E9BEA"/>
	<path d="M137.36 95.153v.333c-1.485-.246-2.096.588-2.803 1.54-.548.747-1.159 1.589-2.271 1.914a3.112 3.112 0 0 1-.897.135c-1.913 0-2.938-1.953-3.351-2.747-.023-.048-.047-.087-.063-.127-.183-.341-.302-.397-.349-.397-.199 0-.524.548-.644.754-.555.937-1.58 2.025-4.589 2.096-2.12.048-3.295-1.484-4.073-2.5-.333-.437-.627-.81-.858-.89-.222-.08-.484.167-.913.596-.722.73-1.818 1.826-3.985 2.016-2.724.239-3.383-1.254-3.772-2.144-.111-.246-.206-.46-.302-.555-.317-.294-.619-.096-1.484.62-.167.142-.366.293-.572.46-1.024.801-2.255 1.532-4.28 1.468-1.619-.047-1.993-1.294-2.23-2.127a3.742 3.742 0 0 0-.175-.509c-.064-.15-.143-.23-.223-.23-.143-.008-.429.183-.81.77-.659 1.017-2.318 1.7-4.938 2.017-2.605.326-4.4-.397-5.106-.762v-.373c.786.452 2.66 1.103 5.058.802 3.144-.39 4.295-1.231 4.708-1.874.413-.635.778-.937 1.104-.913.207.016.373.159.5.428.072.151.127.35.191.548.246.826.548 1.85 1.929 1.89 1.811.056 2.938-.516 4.065-1.397.207-.16.397-.318.564-.453.794-.651 1.366-1.12 1.914-.603.151.143.254.373.381.667.945 2.167 2.445 2.032 3.438 1.945 2.04-.183 3.088-1.23 3.779-1.922.461-.46.818-.818 1.255-.675.325.112.627.509 1.008 1 .778 1.017 1.85 2.415 3.803 2.375 3.208-.072 3.986-1.374 4.312-1.93.349-.587.619-.928.937-.92.301.007.508.325.635.571.024.04.04.08.063.127.493.93 1.636 3.113 3.875 2.454 1.008-.294 1.564-1.056 2.096-1.795.699-.953 1.421-1.937 3.073-1.683ZM115.962 107.992c0-.04-.207-4.034-.889-5.463l.222-.103c.707 1.469.905 5.391.913 5.558l-.246.008Z" fill="#FF7A7E"/>
	<path d="m115.851 105.165-.088-.23c.937-.365 2.104-1.922 2.12-1.937l.199.143c-.056.071-1.231 1.643-2.231 2.024Z" fill="#FF7A7E"/>
	<path d="M118.638 103.823h-1.398v.246h1.398v-.246ZM115.525 103.72c-1.739-.349-2.429-1.834-2.461-1.898l.222-.103c.008.016.675 1.437 2.287 1.763l-.048.238Z" fill="#FF7A7E"/>
	<path d="m114.159 102.886-.238-.047c.207-1.072.143-1.81.143-1.818l.246-.024c-.008.032.064.778-.151 1.889ZM115.914 106.364c-.794-.278-3.12-2.128-3.215-2.207l.15-.191c.024.016 2.398 1.906 3.145 2.168l-.08.23Z" fill="#FF7A7E"/>
	<path d="M113.715 104.903c-.111-.603-.651-1.715-.651-1.723l.222-.103c.024.048.556 1.151.675 1.787l-.246.039Z" fill="#FF7A7E"/>
	<path d="m113.683 104.252-.135-.206a1.17 1.17 0 0 0 .445-.643l.238.055c0 .024-.111.508-.548.794ZM115.462 103.069l-.167-.175c.397-.389.389-.889.389-.897l.246-.008c0 .032.008.62-.468 1.08Z" fill="#FF7A7E"/>
	<path d="M115.628 102.569c-.571-.516-.571-1.517-.571-1.556h.246c0 .008 0 .929.484 1.373l-.159.183ZM117.447 103.665c-.223-.366-.127-1.199-.119-1.295l.246.032c-.024.23-.064.889.087 1.136l-.214.127ZM116.438 104.681c-.278-.357-.341-1.199-.341-1.239l.246-.016c.016.223.095.858.294 1.104l-.199.151ZM118.201 104.006l-.206-.127c.222-.357.555-.619.563-.627l.151.19s-.31.246-.508.564ZM114.556 106.023c-.928 0-1.794-.397-1.834-.413l.104-.222c.015.007 1.286.587 2.334.325l.063.238c-.23.056-.452.072-.667.072ZM128.515 108.992l-.238-.047c.008-.04.809-3.962.508-5.511l.238-.047c.318 1.604-.469 5.446-.508 5.605Z" fill="#FF7A7E"/>
	<path d="m128.872 106.182-.032-.247c.993-.119 2.525-1.333 2.541-1.349l.151.19c-.064.056-1.596 1.279-2.66 1.406Z" fill="#FF7A7E"/>
	<path d="m130.566 105.23-.062.238 1.353.35.062-.238-1.353-.35ZM128.92 104.697c-1.596-.77-1.89-2.39-1.906-2.454l.238-.039-.119.023.119-.023c0 .015.294 1.564 1.771 2.278l-.103.215Z" fill="#FF7A7E"/>
	<path d="m127.808 103.545-.222-.103c.468-.992.587-1.715.587-1.723l.239.04c0 .032-.12.77-.604 1.786ZM128.634 107.357c-.699-.469-2.485-2.843-2.565-2.938l.199-.143c.016.024 1.842 2.445 2.501 2.882l-.135.199Z" fill="#FF7A7E"/>
	<path d="m127.117 105.411-.246-.016c.048-.619-.198-1.826-.198-1.834l.238-.047c.016.047.254 1.254.206 1.897Z" fill="#FF7A7E"/>
	<path d="m127.006 104.752-.079-.23c.397-.135.595-.508.595-.508l.215.111c-.008.016-.239.461-.731.627ZM129.023 104.054l-.119-.215c.484-.278.603-.762.603-.77l.238.056c-.008.031-.142.603-.722.929Z" fill="#FF7A7E"/>
	<path d="M129.309 103.609c-.429-.643-.175-1.612-.159-1.652l.238.064c0 .008-.238.897.127 1.453l-.206.135ZM130.793 105.125c-.119-.404.175-1.19.207-1.278l.23.088c-.087.214-.286.841-.198 1.127l-.239.063ZM129.563 105.856c-.183-.413-.032-1.247-.024-1.286l.238.047c-.039.223-.119.85.008 1.144l-.222.095ZM131.437 105.65l-.167-.175c.31-.286.691-.461.707-.469l.095.223s-.357.159-.635.421ZM128.062 106.777c-1.167-.008-2.286-.913-2.334-.953l.159-.19c.008.008 1.095.889 2.175.897v.246Z" fill="#FF7A7E"/>
	<path d="m137.368 85.236-.008.055-.008.056c-.071-.016-7.551-1.445-17.492-.222a56.34 56.34 0 0 1-6.923.436c-3.931 0-6.932-.436-9.179-.762-.945-.135-1.755-.254-2.485-.325-3.128-.294-11.211.452-12.593.627v-.111c.754-.096 3.065-.302 4.9-.437 2.508-.182 5.883-.357 7.701-.19.73.071 1.548.19 2.493.325 3.414.5 8.583 1.255 16.078.326 9.798-1.207 17.198.158 17.516.222 0 0-.008 0 0 0Z" fill="#FF9D5D"/>
	<path d="m137.36 85.832-.016.11c-.079-.007-8.075-.865-17.5-.222a118.81 118.81 0 0 1-8.011.286c-5.28 0-8.655-.42-10.584-.659-3.462-.429-11.235.199-12.593.342v-.104c.73-.08 2.914-.254 4.796-.349 2.477-.135 5.844-.238 7.813.008 2.763.341 8.504 1.064 18.571.373 9.33-.651 17.254.183 17.524.215Z" fill="#FF9D5D"/>
	<path d="m137.368 86.776-.016.112c-.079-.016-8.305-1.374-17.5-.223-2.58.326-4.891.445-6.947.445-3.907 0-6.9-.445-9.147-.77-.945-.143-1.771-.262-2.501-.326-3.128-.294-11.211.453-12.593.627v-.119c.754-.095 3.065-.301 4.9-.436 2.508-.183 5.883-.358 7.701-.191.738.072 1.556.19 2.509.334 3.414.5 8.583 1.262 16.062.325 9.076-1.135 17.206.167 17.516.222.008-.008.016 0 .016 0Z" fill="#FF9D5D"/>
	<path d="M88.664 87.324c1.342-.214 8.988-1.207 12.093-.913.714.064 1.532.175 2.477.294 3.597.468 9.028 1.175 16.618.659 9.425-.643 17.421.214 17.5.222l.008-.055.008-.056h-.008c-.262-.032-8.186-.857-17.516-.222-7.582.516-13.005-.19-16.594-.66a57.725 57.725 0 0 0-2.477-.293c-1.819-.175-5.058.087-7.448.341-1.898.199-3.946.46-4.653.58v.103h-.008Z" fill="#FF9D5D"/>
	<path d="M122.449 105.999c-.818 0-1.549-.429-1.493-.969 1.977-17.309-3.891-28.306-3.891-28.306.532.342 6.869 9.71 6.869 28.29 0 .54-.652.985-1.477.985h-.008Z" fill="#0B3563"/>
	<path d="M122.409 99.353s-.317 3.263-.524 4.24c-.206.977-.167 1.731.746 1.628 1.342-.151-.222-5.868-.222-5.868Z" fill="#FFCCA9"/>
	<path d="M108.046 105.999c-.818 0-1.549-.429-1.493-.969 1.977-17.309-3.891-28.306-3.891-28.306.532.342 6.868 9.71 6.868 28.29 0 .54-.651.985-1.476.985h-.008Z" fill="#0B3563"/>
	<path d="M108.006 99.353s-.318 3.263-.524 4.24c-.206.977-.167 1.731.746 1.628 1.342-.151-.222-5.868-.222-5.868Z" fill="#FFCCA9"/>
	<path d="M81.638 59.963s-1.589-5.74 5.065-7.424c6.654-1.683 10.092 3.748 10.513 7.424.42 3.676-2.597 10.338-9.123 9.576-6.535-.755-6.456-9.576-6.456-9.576Z" fill="#052D52"/>
	<path d="M94.175 56.517c-.755-1.254-.31-3.025-2.597-4.383-1.405-.833-2.7-1.072-4.359-.937-1.397.112-2.398.667-3.279 1.842-.667.89-1.223 2.232-1.23 2.24l-.636-.461c.008-.04.27-.937.985-1.882.945-1.262 2.23-1.993 3.731-2.112a9.367 9.367 0 0 1 4.963.96c1.469.74 3.097 2.724 3.89 4.042l-1.468.691Z" fill="#052D52"/>
	<path d="M95.604 100.719c-4.669-1.461-15.53-2.374-16.603-2.438-4.311-.254-9.392.77-13.49 2.47-.198.087-9.527 2.191-14.188 7.535-1.191 1.365-2.93 5.176-2.93 11.116 0 0 61.519-.056 62.614-.104-3.438-10.465-5.526-15.483-15.403-18.579Z" fill="#FF64AE"/>
	<path d="M59.183 65.243c.23-.278.683-.254 1.048-.373 0 0-.158-.746-.11-1.882 0-.04 0-.08.007-.11.103-1.986.834-5.05 4.034-7.337 1.405-1.009 3.295-1.866 5.812-2.406 7.257-1.572 15.213 2.652 17.944 5.145 5.193 4.748 4.645 10.21 2.763 17.07C86.26 91.39 77.644 87.373 77.66 87.397c-9.274 2.572-22.82-16.928-18.477-22.153Z" fill="#0B3563"/>
	<path d="M58.564 62.87c-.254-1.422-.627-4.55 1.556-6.774 1.882-1.913 5.034-3.009 9.361-3.247 6.884-.381 12.061 1.43 14.816 3.041 3.383 1.985 4.995 4.454 5.066 4.51l-1.691-.596c-.064-.055-5.193-7.304-18.167-6.59-4.2.23-6.701 1.128-8.503 2.962-2.08 2.112-1.7 4.295-1.454 5.653.016.072-.801.675-.801.69l1.786.517c0-.008-1.961-.135-1.97-.167Z" fill="#0B3563"/>
	<path d="M72.69 106.142c-6.472.103-6.821-2.176-7.107-4.613-.12-1.009-.199-2.755-.278-4.844-.032-.873-.071-1.81-.111-2.779a117.519 117.519 0 0 0-.35-5.288c-.142-1.635-.27-2.763-.27-2.763l13.094-3.112.778-.183c.349 10.25 3.43 14.824 3.763 16.563.707 3.652-5.272 6.955-9.52 7.019Z" fill="#FFE1CC"/>
	<path d="M77.66 87.396c-1.453 3.771-5.058 8.765-12.355 9.29-.032-.874-.072-1.81-.111-2.78a117.528 117.528 0 0 0-.35-5.288l12.816-1.222Z" fill="#FFCCA9"/>
	<path d="M57.365 89.873s15.816 7.44 20.295-2.485c4.478-9.925 9.535-15.642-.374-20.811-9.909-5.169-13.593-2.27-15.895.675-2.295 2.946-8.028 20.437-4.026 22.62Z" fill="#FFE1CC"/>
	<path d="M76.627 75.16a9.266 9.266 0 0 0-7.987-8.297c-2.176-.294-4.748-.524-7.25-.477-4.215.072-4.652-8.662 4.749-11.608 9.52-2.993 18.119 2.406 21.843 5.106 6.153 4.462-4.042 25.312-4.685 25.415-.643.104-4.494 1.763-4.494 1.763s-.58-3.589.071-4.025c2.954-2.001 3.97-7.67-.722-5.487-1 .453-1.382-.905-1.525-2.39Z" fill="#0B3563"/>
	<path d="M57.81 85.831a.444.444 0 1 1 .887-.001.444.444 0 0 1-.887.001ZM59.294 84.625a.444.444 0 1 1 .888-.002.444.444 0 0 1-.888.002ZM60.755 85.117a.444.444 0 1 1 .888-.002.444.444 0 0 1-.888.002ZM59.406 86.173a.444.444 0 1 1 .887-.002.444.444 0 0 1-.887.002ZM59.62 87.832a.445.445 0 1 0 0-.889.445.445 0 0 0 0 .89ZM61.438 87.054a.444.444 0 1 1 .888-.001.444.444 0 0 1-.888.001ZM70.124 80.472a.444.444 0 1 1 .445.445.454.454 0 0 1-.445-.445ZM71.61 79.257a.444.444 0 1 1 .887-.001.444.444 0 0 1-.888.001ZM73.07 79.75a.444.444 0 1 1 .888-.002.444.444 0 0 1-.888.001ZM71.728 80.805a.444.444 0 1 1 .888-.001.444.444 0 0 1-.888.001ZM71.498 82.02a.444.444 0 1 1 .888-.001.444.444 0 0 1-.888.001ZM73.76 81.687a.444.444 0 1 1 .889-.002.444.444 0 0 1-.888.002Z" fill="#FF8463"/>
	<path d="M48.115 81.536s.167-.381.278-.564c.111-.182.58-.706.659-.587.08.119.397.92.23 1.15-.167.231.008.62-.834.858l-.333-.857Z" fill="#FFAE73"/>
	<path d="M38.754 79.13s4.311 3.597 5.994 3.263c1.318-.262 3.335-.952 3.335-.952l.405 1.032s-1.81 2.453-3.7 2.47c-2.946.023-5.13-1.28-5.13-1.28l-.904-4.533Z" fill="#83B7C9"/>
	<path d="M31.187 117.099s.127 2.017.516 2.048h1.985l2.462-.015s-.016-.596-.739-.723-1.921-.635-2.358-1.58c-.46-.993-1.866.27-1.866.27Z" fill="#282828"/>
	<path d="M31.052 117.242s.746.254 1.334.254c.651 0 1.246-.175 1.246-.175s.143-1.365.913-4.367a98.626 98.626 0 0 1 1.81-6.113c2.288-6.956 2.978-11.021 3.042-11.402 0-.024.008-.032.008-.032h-.008l-7.027-3.08s.866 9.583-.238 13.259a15.8 15.8 0 0 0-.405 1.763c-.69 3.978-.675 9.893-.675 9.893Z" fill="#282828"/>
	<path d="M34.546 112.946a98.748 98.748 0 0 1 1.81-6.113c2.287-6.956 2.977-11.021 3.04-11.402v-.032l-7.026-3.08s.866 9.583-.238 13.259c-.151.5 2.414 7.368 2.414 7.368Z" fill="#282828"/>
	<path d="M36.673 117.099s.127 2.017.517 2.048h1.985l2.46-.015s-.015-.596-.737-.723c-.723-.127-1.922-.635-2.359-1.58-.46-.993-1.866.27-1.866.27Z" fill="#3D3D3D"/>
	<path d="M40.66 92.533s.087 6.209-.985 13.831-.707 10.862-.707 10.862-.738.238-1.032.262c-.762.063-1.54-.175-1.54-.175s-1.54-7.63-1.096-11.441c.445-3.819-2.104-13.093-2.104-13.093l7.463-.246Z" fill="#3D3D3D"/>
	<path d="M38.516 77.026c-.04.627-.136 1.405-.374 1.874h-1.088l-1.373-.897s.516-.977.381-2.422c-.008-.08-.055-.635-.063-.651l.69.302 1.85.817c0 .008.016.43-.023.977Z" fill="#FFE1CC"/>
	<path d="M41.072 92.803c-.032 3.279-.246 10.941-.405 11.1-1.707 1.651-9.218-.453-9.615-2.271-.397-1.818 1.517-23.272 4.43-24.13.604-.174 3.843.866 3.843.866s.509 1.326.842 3.017c.127.627.524 5.097.762 8.083.064.794.111 1.485.143 1.969v1.366Z" fill="#A9CFE0"/>
	<path d="M38.516 77.026c-.715-.262-1.954-.802-2.319-1.413-.167-.286.08-.373.492-.366l1.85.818c0-.008.016.413-.023.961Z" fill="#FFCCA9"/>
	<path d="M39.238 75.938s-2.977.93-3.533-.937c-.548-1.866-1.302-3.001.572-3.676 1.881-.675 2.461-.071 2.794.508.342.588.93 3.82.167 4.105Z" fill="#FFE1CC"/>
	<path d="M38.96 71.659s-.286 2.374-.635 2.072c-.667-.556-1.08-.556-.842.35.167.634-.85 1.738-1.397 1.841-1.366.262-2.62-3.636-2.24-4.311 1.097-1.937 6.702-2.327 5.114.048Z" fill="#0B3563"/>
	<path d="M38.523 77.55c-.04-.016-2.215-.992-2.477-.913-.254.087-.572.865-.572.865l3.844.866s-.302-.611-.794-.818Z" fill="#83B7C9"/>
	<path opacity=".2" d="M65.083 87.205a9.073 9.073 0 0 1-4.518 2.62 9.08 9.08 0 0 1-8.337-2.223c-3.66-3.446-3.835-9.202-.39-12.855a9.102 9.102 0 0 1 12.864-.397c3.644 3.438 3.819 9.195.38 12.855Z" fill="#ACCEFC"/>
	<path d="M51.593 87.848 40.548 99.591c-.214.23-.484.334-.587.23l-.342-.325c-.11-.103-.023-.373.199-.603l11.036-11.736c.215-.23.485-.333.588-.23l.341.326c.111.095.024.365-.19.595Z" fill="#0B4D87"/>
	<path d="m45.606 94.208-5.05 5.368c-.222.238-.5.349-.603.254l-.342-.326c-.11-.103-.015-.381.215-.62l5.05-5.367.73.691Z" fill="#062538"/>
	<path d="M65.17 74.144c-.048-.048-.103-.095-.15-.143-3.852-3.629-9.918-3.438-13.538.413a9.571 9.571 0 0 0-2.184 9.361 9.598 9.598 0 0 0 2.596 4.184c3.851 3.629 9.917 3.438 13.546-.413 3.573-3.81 3.438-9.766-.27-13.402Zm-.12 13.037a9.023 9.023 0 0 1-4.501 2.605 9.047 9.047 0 0 1-8.297-2.216 9.05 9.05 0 0 1-.39-12.799 9.045 9.045 0 0 1 8.147-2.715 9.01 9.01 0 0 1 4.653 2.326c3.636 3.422 3.811 9.155.389 12.8Z" fill="#0B3563"/>
	<path d="M41.072 92.803c-7.122-4.828-6.542-11.458-6.542-11.458 2.779 1.564 5.534 5.28 6.391 8.13.064.795.111 1.486.143 1.97.008.198.008.683.008 1.358Z" fill="#98C7D3"/>
	<path d="M47.345 90.357c.476-.111.794-.468.857-.532 0 0 .207.016-.032.445-.016.04-.063.127-.095.198-.016.024.008.056.032.064.278.024.548-.087 1.08.024.071.016.095.19.087.262-.008.127.008.27-.143.46-.087.111-.325.23-.85.445-.198.08-.778.024-1.317-.167l-.43-.198.144-.802.11.023c.168.032.382-.174.557-.222Z" fill="#FFAE73"/>
	<path d="M36.618 78.368s-6.05 1.151 1.779 9.917c1.254 1.405 8.019 3.224 8.019 3.224s.683-.588.341-1.056c0 0-4.66-3.383-5.685-3.923-.46-.238-1.786-5.399-2.54-6.646-.755-1.238-1.914-1.516-1.914-1.516Z" fill="#83B7C9"/>
	<path d="M48.282 81.64s.198-.382.238-.58c.04-.199.286-.779.389-.882.04-.04.175.016.19.19.008.08-.031.215-.095.382-.111.27-.087.635-.127.762-.095.302-.595.127-.595.127Z" fill="#FFAE73"/>
	<path d="M81.907 110.715c.612.246 2.787.048 2.859-.127.071-.175-1.35-1.834-1.962-2.08a1.188 1.188 0 0 0-1.548.659c-.254.611.04 1.302.651 1.548ZM87.394 111.755c-.342.564-.5 2.74-.334 2.843.16.095 2.025-1.04 2.366-1.604a1.19 1.19 0 0 0-2.033-1.239ZM84.464 116.027c.627.199 2.779-.167 2.842-.341.056-.183-1.492-1.723-2.112-1.922a1.186 1.186 0 0 0-1.492.77c-.215.62.135 1.287.762 1.493Z" fill="#9BD399"/>
	<path d="M87.632 118.131c0-.048-.246-4.986-2.946-7.535l.056-.063c2.723 2.572 2.97 7.543 2.97 7.59l-.08.008ZM96.652 110.826c-.381.254-1.882.421-1.953.31-.072-.111.667-1.429 1.048-1.683a.821.821 0 1 1 .905 1.373ZM93.071 112.287c.31.334.715 1.795.62 1.882-.096.087-1.517-.429-1.835-.762a.827.827 0 0 1 .04-1.167.844.844 0 0 1 1.175.047ZM95.651 114.781c-.397.222-1.913.269-1.977.158-.063-.111.77-1.373 1.168-1.596a.823.823 0 0 1 1.12.318.814.814 0 0 1-.31 1.12Z" fill="#9BD399"/>
	<path d="M93.793 116.654c-.008-.031-.524-3.414.961-5.518l-.047-.032c-1.493 2.12-.97 5.534-.97 5.566l.056-.016ZM91.118 117.845l-.175-.024c-.675-8.757-3.35-15.046-3.39-15.133l.159-.072c.04.088 2.73 6.416 3.406 15.229Z" fill="#9BD399"/>
	<path d="M85.734 101.807c.334.373 1.874.976 1.985.881.104-.095-.301-1.699-.627-2.072a.896.896 0 0 0-1.27-.08.897.897 0 0 0-.088 1.271Z" fill="#fff"/>
	<path d="M88.108 100.504c-.301.397-.571 2.033-.452 2.12.111.088 1.604-.643 1.905-1.04a.9.9 0 0 0-.182-1.262.9.9 0 0 0-1.27.182Z" fill="#fff"/>
	<path d="M89.879 102.243c-.484-.135-2.104.215-2.136.35-.04.135 1.183 1.254 1.668 1.389a.902.902 0 0 0 1.111-.635.905.905 0 0 0-.643-1.104Z" fill="#fff"/>
	<path d="M88.791 104.411c-.047-.492-.945-1.89-1.087-1.874-.143.016-.755 1.556-.707 2.049a.905.905 0 0 0 .984.809.905.905 0 0 0 .81-.984Z" fill="#fff"/>
	<path d="M86.33 104.3c.445-.231 1.39-1.588 1.326-1.715-.064-.127-1.723-.111-2.168.119a.905.905 0 0 0-.38 1.223.912.912 0 0 0 1.222.373Z" fill="#fff"/>
	<path d="M87.362 102.537a.298.298 0 0 1 .588.095.3.3 0 0 1-.342.247.299.299 0 0 1-.246-.342Z" fill="#0B3563"/>
	<path d="M91.062 108.889c-.492.603-1.016 3.136-.85 3.271.175.143 2.541-.897 3.034-1.5a1.402 1.402 0 0 0-.207-1.977 1.41 1.41 0 0 0-1.977.206ZM81.36 118.743h-.12c-1.214-5.757-3.549-9.695-3.58-9.743l.095-.055c.04.047 2.382 4.009 3.605 9.798Z" fill="#9BD399"/>
	<path d="M76.381 108.571c.254.223 1.326.485 1.39.413.063-.071-.35-1.103-.596-1.326a.604.604 0 0 0-.794.913Z" fill="#fff"/>
	<path d="M77.834 107.5c-.159.293-.198 1.397-.119 1.445.08.047 1.008-.564 1.167-.858a.617.617 0 0 0-.23-.826.605.605 0 0 0-.818.239Z" fill="#fff"/>
	<path d="M79.168 108.492c-.333-.048-1.374.326-1.39.421-.015.095.898.73 1.231.778a.608.608 0 0 0 .683-.516.614.614 0 0 0-.524-.683Z" fill="#fff"/>
	<path d="M78.636 110.032c-.071-.325-.794-1.167-.89-1.151-.094.024-.364 1.096-.293 1.421a.603.603 0 0 0 .723.453.602.602 0 0 0 .46-.723Z" fill="#fff"/>
	<path d="M76.993 110.175c.27-.19.785-1.175.73-1.254-.056-.08-1.151.071-1.43.27a.607.607 0 0 0-.142.841c.19.27.572.334.842.143Z" fill="#fff"/>
	<path d="M77.525 108.913c0-.111.095-.199.206-.191.111 0 .198.096.19.207a.192.192 0 0 1-.206.19.192.192 0 0 1-.19-.206Z" fill="#0B3563"/>
	<path d="M80.542 112.803c-.27.445-.405 2.168-.278 2.247.127.08 1.612-.817 1.882-1.262a.94.94 0 0 0-1.604-.985ZM99.947 117.98l.151-.024c.603-7.805 2.985-13.402 3.017-13.474l-.143-.063c-.032.079-2.43 5.717-3.025 13.561Z" fill="#9BD399"/>
	<path d="M104.735 103.696c-.294.334-1.668.866-1.763.786-.095-.087.262-1.516.556-1.85a.804.804 0 0 1 1.207 1.064Z" fill="#fff"/>
	<path d="M102.623 102.537c.262.357.508 1.81.405 1.89-.104.079-1.43-.572-1.692-.929a.81.81 0 0 1 .167-1.128.801.801 0 0 1 1.12.167Z" fill="#fff"/>
	<path d="M101.043 104.085c.428-.119 1.873.191 1.905.318.032.119-1.056 1.119-1.485 1.239a.796.796 0 0 1-.984-.564.802.802 0 0 1 .564-.993Z" fill="#fff"/>
	<path d="M102.019 106.015c.04-.445.842-1.683.969-1.668.127.016.675 1.382.627 1.827a.804.804 0 0 1-.881.722.803.803 0 0 1-.715-.881Z" fill="#fff"/>
	<path d="M104.203 105.919c-.397-.206-1.239-1.413-1.183-1.524.055-.111 1.532-.103 1.929.103a.803.803 0 1 1-.746 1.421Z" fill="#fff"/>
	<path d="M103.29 104.347a.267.267 0 0 0-.302-.222.267.267 0 0 0-.222.302.265.265 0 0 0 .524-.08Z" fill="#0B3563"/>
	<path d="M99.59 112.097c.436.54.905 2.795.754 2.914-.151.127-2.263-.794-2.7-1.334a1.25 1.25 0 0 1 .183-1.763 1.25 1.25 0 0 1 1.763.183ZM75.19 119.346s.866-2.279 4.01-2.422c3.144-.143 5.304 1.715 7.9.858 2.596-.858 6.892-2.795 10.957-1.501 4.065 1.286 4.748 3.065 4.748 3.065H75.19Z" fill="#9BD399"/>
	<defs>
		<linearGradient id="a" x1="83" y1="0" x2="83" y2="166" gradientUnits="userSpaceOnUse">
			<stop stop-color="#F0F1FF"/>
			<stop offset="1" stop-color="#fff" stop-opacity="0"/>
		</linearGradient>
	</defs>
</svg>
