<svg width="166" height="166" fill="none" xmlns="http://www.w3.org/2000/svg">
	<circle cx="83" cy="83" r="83" fill="url(#a)"/>
	<path d="M54.7 97.962h73.336c4.028 0 7.329-3.301 7.329-7.33V67.68H54.699c-4.028 0-7.329 3.3-7.329 7.329V90.64c0 4.02 3.3 7.322 7.33 7.322Z" fill="#D5D6DA"/>
	<path d="M43.284 96.088h86.496c3.005 0 5.463 2.457 5.463 5.463v3.077c0 8.317-6.804 15.127-15.127 15.127H43.284c-3.005 0-5.463-2.458-5.463-5.463v-12.734c0-3.013 2.458-5.47 5.463-5.47Z" fill="#D5D6DA"/>
	<path d="M71.239 119.503c-3.005 0-5.463-2.458-5.463-5.463v-12.734c0-2.436 1.622-4.52 3.834-5.218H43.284c-3.005 0-5.463 2.457-5.463 5.463v12.734c0 3.005 2.458 5.463 5.463 5.463h76.839c.929 0 1.845-.087 2.731-.252H71.239v.007Z" fill="#B8C1C9"/>
	<path d="M123.928 96.52h6.407V72.068a4.401 4.401 0 0 1 4.389-4.39h.605c.151 0 .267.123.267.267v51.81H116.62a.418.418 0 0 1-.418-.418v-15.098c.007-4.245 3.481-7.719 7.726-7.719Z" fill="#657285"/>
	<path d="M116.253 67.88s6.118-.583 8.237 2.934c2.119 3.517 0 16.763 1.794 19.105 1.795 2.35 3.914 3.769 3.834 6.536l-13.152.145s-11.567.418-11.48 6.579c.086 6.162 0 16.821 0 16.821h-6.623s-3.056-26.954 3.646-28.56c14.688-3.517 13.744-23.56 13.744-23.56Z" fill="#B8C1C9"/>
	<path d="M94.892 79.534s-1.478-.923-2.126-.786c-.642.137-2.4.642-2.458 1.37-.057.728 2.515 1.873 4.41 1.232 1.903-.641.174-1.816.174-1.816Z" fill="#FFD0C5"/>
	<path d="M102.74 118.177c0 .324-.159.547-.432.699h-.008c-.504.274-1.304.065-2.27.021-.122-.007-1.398.541-3.207.699-2.06.173-2.825-.454-2.947-.742-.101-.245.785-.519 1.772-.836.051-.014.094-.029.145-.043l.396-.13c1.175-.389 2.335-.858 2.623-2.047.31-1.261-.612-4.792-.612-4.792l3.272-.353s.317 3.69.519 4.835c.108.613.389 1.103.554 1.629.015.036.022.072.036.108.08.31.159.627.159.952Z" fill="#FF9783"/>
	<path d="M60.652 96.088h50.361l-48.019-2.162-9.397 2.522 7.055-.36Z" fill="#B8C1C9"/>
	<path d="M102.74 118.177c0 .324-.159.547-.432.699h-.008c-.728.468-2.025-.18-4.136.792-.094.044-.8-.007-1.29-.014-.642-.007-1.564.05-1.78.014-.995-.158-1.146-.648-1.211-.814-.101-.245.785-.519 1.773-.836.273.108 1.6.569 3.163.267 1.377-.26 2.746-.944 3.726-1.175.015.036.022.072.036.108.08.317.159.634.159.959Z" fill="#131F2D"/>
	<path d="m102.416 118.753-.483.901h-1.052v-.656l1.535-.245ZM119.633 86.74l-10.58-1.008s-16.194.072-17.7 2.212c0 0-2.89 2.004.375 10.291 3.272 8.288 7.106 16.562 7.106 16.562s.98.266 2.321.165c.526-.043 1.246-.223 1.246-.223s-.735-12.36-2.371-17.174c-1.636-4.807-2.14-3.877.757-3.61 2.89.266 12.194 2.407 16.467 1.873 4.26-.533 2.379-9.087 2.379-9.087Z" fill="#131F2D"/>
	<path d="M61.546 118.177c0 .324.159.547.432.699h.008c.504.274 1.39.302 2.349.266.123-.007.23-.007.332-.007h.136c.952.022.85.31 2.66.461 2.06.173 2.825-.454 2.947-.742.101-.245-.785-.519-1.773-.836-.05-.014-.093-.029-.144-.043l-.396-.13c-1.175-.389-2.335-.858-2.623-2.047-.31-1.261.612-4.792.612-4.792l-3.272-.353s-.317 3.69-.519 4.835c-.108.613-.389 1.103-.555 1.629-.014.036-.021.072-.035.108-.073.31-.16.627-.16.952Z" fill="#FF7955"/>
	<path d="M61.546 118.177c0 .324.159.547.432.699h.008c.533.245 1.405.281 2.349.259.123 0 .23-.007.332 0h.136c.952.022.85.31 2.66.461 2.06.173 2.825-.454 2.947-.742.101-.245-.785-.519-1.773-.836-.273.108-1.6.569-3.163.267-1.377-.26-2.746-.944-3.726-1.175-.015.036-.022.072-.036.108-.08.317-.166.634-.166.959Z" fill="#131F2D"/>
	<path d="M104.779 118.177c0 .324-.158.547-.432.699h-.007c-.505.274-1.326-.332-5.095.562-2.018.475-3.207-.296-3.33-.584-.1-.245.786-.519 1.773-.836l.144-.043.397-.13c1.174-.389 2.335-.858 2.623-2.047.31-1.261-.613-4.792-.613-4.792l3.272-.353s.317 3.69.519 4.835c.108.613.389 1.103.555 1.629.014.036.022.072.036.108.079.31.158.627.158.952ZM82.756 114.011c.18.908 1.477.757 2.918.404 1.449-.353 1.103.065 3.157-.159 2.054-.23 2.68-.994 2.746-1.297.057-.274-.959-.368-2.054-.49-.137-.015-.274-.029-.411-.051-1.232-.151-2.133-.951-3.25-1.599-1.06-.62-2.638-3.135-2.638-3.135l-2.825.223s1.477 2.249 2.054 3.229c.339.576.317 1.333.274 1.924-.015.303-.03.627.029.951Z" fill="#FFD0C5"/>
	<path d="M85.682 114.407c1.448-.353 1.102.065 3.156-.158 2.054-.231 2.681-.995 2.746-1.297.058-.274-.959-.368-2.054-.49l-.007.014s-1.233.872-2.948.915c-1.398.036-2.875-.367-3.841-.353-.022.317-.043.649.022.966.187.915 1.477.757 2.926.403Z" fill="#131F2D"/>
	<path d="M76.478 72.565s.67-1.65 1.413-1.715c.742-.065 3.092-.44 3.257-.101.166.339 0 1.55-.504 1.982-.505.44-3.632 1.145-3.632 1.145l-.534-1.311Z" fill="#FFD0C5"/>
	<path d="m71.945 95.965-6.082 16.367s-.937.094-1.83-.166c-.822-.238-1.766-.865-1.766-.865s1.506-15.71 4.273-18.982c2.768-3.265 5.405 3.646 5.405 3.646Z" fill="#131F2D"/>
	<path d="M66.778 89.119s-3.02-3.834-2.299-9.304a5.036 5.036 0 0 1 2.933-3.913h1.067l-.043-.094c-.959-2.083-.858-4.49.23-6.515.008-.007.008-.022.015-.029.396-.778.706-1.585 1.585-1.585H58.144l-.677 20.669 9.311.77Z" fill="#B8C1C9"/>
	<path d="M45.95 88.564a5.773 5.773 0 0 0 3.906.137c4.67-1.492 16.317-5.009 19.416-4.014 3.898 1.254 15.595 24.539 15.595 24.539s-.267.353-.987.62c-.67.252-2.292.237-2.292.237s-10.558-9.051-11.82-11.689c-1.253-2.638-1.758-5.153-3.019-4.9-1.254.252-16.215 6.161-19.61 2.637-3.394-3.517-2.507-8.093-2.507-8.093l1.318.526Z" fill="#364154"/>
	<path d="M58.57 61.863c.28-.577.59-1.6.742-3.423-.022.18-.339 2.479-1.225 3.783-3.633 2.386-10.602 10.35-10.465 11.862 0 0-2.45-4.158-2.493-4.187 0 0-4.526-5.758.836-9.051 2.724-1.672 2.71-3.827 2.601-5.694-.115-1.866.743-9.91 6.206-7.805 0 0 .879-.389 1.268-.331 0 0-.317.065-.483.23.634-.036 1.535.008 2.292.44 2.01 1.132 3.798 11.344.72 14.176Z" fill="#131F2D"/>
	<path d="M57.878 62.338c.021.008-1.752.93-3.085.563-1.254-.34-2.075-1.968-2.054-1.975.534-.108.685-.836.67-3.971l.238.05 4.036.8s-.094 1.269-.094 2.465c0 1.009.058 1.96.289 2.068Z" fill="#FFD0C5"/>
	<path d="M57.683 57.805s-.094 1.269-.094 2.465c-2.262-.065-3.452-2.126-3.942-3.265l4.036.8Z" fill="#FF9783"/>
	<path d="M53.23 56.566s-1.183-1.874-1.47-3.474c-.203-1.139.381-5.376 4.633-4.764 0 0 1.232.123 2.4.908.922.627 2.256 1.968.764 5.665l-.39 1.247-5.938.418Z" fill="#131F2D"/>
	<path d="M58.44 58.937s-5.348.086-5.348-3.243c-.007-3.33-.699-5.564 2.717-5.759 3.416-.194 4.08 1.074 4.346 2.184.274 1.117-.324 6.71-1.715 6.818Z" fill="#FFD0C5"/>
	<path d="M53.388 50.563s3.654-2.494 4.807-.772c.353-.302.973-.518 1.801.483 1.24 1.5.137 4.158.137 4.158-.511.058-.627-1.686-.893-2.536-.202-.642-.872-1.29-1.19-1.578-.468 1.052-1.75 3.567-3.516 4.02-2.249.577-3.222-.02-3.222-.02s1.723-1.37 2.076-3.755Z" fill="#131F2D"/>
	<path d="M45.972 76.723c-.526-2.212 1.268-6.5 3.142-10.053 1.701-3.222 3.46-5.83 3.618-5.737 4.483 2.66 4.886.447 4.886.447s4.072.54 5.225 2.522c1.593 2.746 3.33 10.976 5.038 10.854.785-.058 8.662-3.02 8.662-3.02s1.312 1.232 1.06 2.739c0 0-3.892 2.601-7.178 4.266-1.737.88-3.315 1.492-4.05 1.319-1.5-.353-3.842-3.827-5.103-5.874 0-.007-.007-.007-.007-.014-1.614 9.138.584 11.22-.533 12.18-1.175 1.016-2.847-.483-6.537 1.117-2.422 1.052-5.773 2.565-8.036 2.832-1.181.137-2.068-.065-2.356-.865-.843-2.328 3.178-8.504 2.169-12.713Z" fill="#FFA9D6"/>
	<path d="M57.25 56.919s.102.425 1.154.36c0 0 .886-.057.857-.519 0 0-.857-.331-2.01.159Z" fill="#fff"/>
	<path d="M55.953 82.892a.216.216 0 0 0 .274-.115l1.91-4.555-.677-.26-1.636 4.663c-.036.101.021.224.13.267Z" fill="#364154"/>
	<path d="m58.137 76.572.425.158-.418 1.485-.684-.26.677-1.383Z" fill="#131F2D"/>
	<path d="m58.375 75.368.829.317c.158.065.202.274.072.39l-.087.13c-.13.208-.317.374-.54.482l-.094.05-.418-.158-.022-.058a1.274 1.274 0 0 1-.079-.713l.03-.195c-.015-.18.15-.31.309-.245Z" fill="#131F2D"/>
	<path d="M43.795 89.436c.289.8 1.175 1.009 2.357.865 1.564-.685 8.317-3.301 8.245-5.074-.116-2.623-1.297-2.71-.462-5.953.67-2.601-5.57-7.437-6.565-8.49-1.874 3.554-1.924 3.72-1.398 5.932 1.009 4.216-3.013 10.392-2.177 12.72ZM61.265 74.194c1.261 2.046 3.603 5.52 5.102 5.873.743.173 2.314-.44 4.05-1.319-1.268.325-2.5.317-3.704.202-1.297-.123-1.679-1.715-3.733-4.108-1.326-1.55-1.65-1.16-1.715-.648Z" fill="#FF64AE"/>
	<path d="M55.002 79.217s1.132-.88 2.198-.67c1.067.209 1.593.944 1.55 1.275-.044.339-.606 1.276-1.427 1.362-.815.087-3.142-.504-3.142-.504l.821-1.463Z" fill="#FFD0C5"/>
	<path d="M52.732 60.933s-4.36.267-5.866 2.371c-2.126 2.962-7.221 16.136-4.807 17.815 2.717 1.896 13.253-.057 13.253-.057s.324-1.5-.122-2.227c-.447-.728-7.712-1.903-8.043-2.234-.339-.339 4.187-6.537 4.187-7.546.007-1.002 1.398-8.122 1.398-8.122Z" fill="#FFA9D6"/>
	<path d="m121.11 87.497-9.924-.836s-16.193.072-17.7 2.14c0 0-2.45 1.536.822 9.557 3.272 8.021 6.58 16.849 6.58 16.849s.735.101 1.621.029c1.117-.093 1.485-.454 1.485-.454s-.231-10.976-1.867-15.638c-1.636-4.656-2.263-4.188.627-3.928 2.89.26 11.02 2.284 16.626 1.21 4.231-.8 1.73-8.929 1.73-8.929Z" fill="#364154"/>
	<path d="M95.922 118.861c.065.159.21.62 1.117.793h3.207c1.103-.504 1.989-.562 2.681-.569.613-.008 1.081.014 1.42-.202h.007c.015-.007.036-.022.051-.029a.742.742 0 0 0 .382-.67c0-.324-.087-.642-.166-.951-.007-.036-.022-.073-.036-.109-.98.231-2.35.916-3.726 1.175-1.564.296-2.89-.166-3.164-.266-.994.302-1.88.583-1.773.828Z" fill="#131F2D"/>
	<path d="m104.455 118.753-.483.901h-1.052v-.656l1.535-.245Z" fill="#131F2D"/>
	<path d="M94.171 81.45c.014.094.043.181.08.267.417.923 9.138 2.098 10.226 1.507.49-.26 1.196-4.656 1.83-9.434.786-5.91 1.456-12.403 1.456-12.403s-3.618 1.139-4.036 3.07c-.418 1.924-.504 13.83-1.592 14.414-1.089.584-5.7.086-7.294.339-.007-.015-.843 1.304-.67 2.24Z" fill="#FFA9D6"/>
	<path d="M107.518 47.68c.677-.54 1.658-.476 2.292-.44-.166-.166-.483-.23-.483-.23.389-.058 1.268.331 1.268.331s3.323-1.7 4.858 2.66c0 0-.267-.332-.627-.7.886 2.508-.008 6.3-2.811 6.977-1.816.44-11.437-3.02-4.497-8.598Z" fill="#131F2D"/>
	<path d="M107.497 62.338c-.022.008 1.751.93 3.084.563 1.254-.34 2.076-1.968 2.054-1.975-.533-.108-.685-.836-.67-3.971l-.238.05-4.036.8s.094 1.269.094 2.465c0 1.009-.058 1.96-.288 2.068Z" fill="#FFD0C5"/>
	<path d="M107.691 57.805s.094 1.269.094 2.465c2.263-.065 3.452-2.126 3.942-3.265l-4.036.8Z" fill="#FF9783"/>
	<path d="M112.145 56.566s1.182-1.874 1.47-3.474c.202-1.139-.382-5.376-4.634-4.764 0 0-1.232.123-2.4.908-.922.627-2.256 1.968-.764 5.665l.389 1.247 5.939.418Z" fill="#131F2D"/>
	<path d="M106.934 58.937s5.348.086 5.348-3.243c.007-3.33.699-5.564-2.717-5.759-3.416-.194-4.079 1.074-4.346 2.184-.274 1.117.324 6.71 1.715 6.818Z" fill="#FFD0C5"/>
	<path d="M105.63 66.31c.094-.383-.706-.664-.901-.325-.367.634-.44 1.434-.584 2.068-.418 1.817 0 4.303 0 4.303l1.485-6.047Z" fill="#FF64AE"/>
	<path d="M105.378 50.274c.821-1.002 1.448-.785 1.801-.483 1.153-1.73 4.807.772 4.807.772.361 2.392 2.083 3.754 2.083 3.754s-.973.606-3.221.022c-1.766-.454-3.049-2.97-3.517-4.021-.317.28-.988.936-1.19 1.578-.266.85-.389 2.594-.893 2.537-.007-.008-1.11-2.66.13-4.159Z" fill="#131F2D"/>
	<path d="M108.123 56.919s-.1.425-1.153.36c0 0-.886-.057-.857-.519 0 0 .857-.331 2.01.159Z" fill="#fff"/>
	<path d="M94.171 81.45c.014.095.043.181.08.267.417.923 9.138 2.098 10.226 1.507.49-.26 1.34-5.73.728-10.616-.656 2.796-.858 8.533-2.4 8.8-1.759.302-6.35-.281-8.634.043Z" fill="#FF64AE"/>
	<path d="M103.814 72.58c2.169 10.442.353 12.049 1.477 13.072.007.008 1.002.433 1.009.44 1.175 1.016 1.204-.216 4.894 1.384 1.758.764 4.007 1.773 5.974 2.37.742.224 1.441.39 2.061.462 1.182.137 2.069-.065 2.357-.865.836-2.328-3.186-8.504-2.177-12.72l.022-.108a4.71 4.71 0 0 0 .05-1.254c-.187-2.35-1.672-5.773-3.214-8.684-1.701-3.222-3.459-5.83-3.618-5.737-4.482 2.66-4.886.447-4.886.447s-4.691 7.625-3.949 11.192Z" fill="#FFA9D6"/>
	<path d="M105.94 85.948c-.007-.007.007 0 0 0 1.174 1.016 1.556-.072 5.246 1.528 1.759.764 4.007 1.773 5.975 2.37 1.002.174 1.751.332 2.061.462 1.182.137 2.068-.065 2.357-.865.836-2.328-3.186-8.504-2.177-12.72l.022-.108c.086-.418.101-.829.05-1.254-.209-1.787-1.528-3.726-3.012-6.55-.995 1.051-8.475-.167-6.703 10.226.534 3.178-3.351 4.439-3.819 6.91Z" fill="#FF64AE"/>
	<path d="M106.3 86.474s-1.65-.39-2.4-.087c-.756.31-2.263 1.089-2.126 1.507.137.418 1.924.641 2.681.223.757-.418 1.312.115 2.234-.195.93-.302-.389-1.448-.389-1.448Z" fill="#FFD0C5"/>
	<path d="M112.642 60.933s6.083.08 7.171 3.013.757 13.238-.836 16.345c-1.593 3.099-10.645 7.293-11.646 7.459-1.009.165-1.636-1.384-1.593-1.55.043-.166 9.513-7.834 9.47-8.634-.051-.8-2.566-16.633-2.566-16.633Z" fill="#FFA9D6"/>
	<path d="m109.99 70.67 2.22.288a.778.778 0 0 0 .879-.678l.094-.735a.778.778 0 0 0-.678-.879l-2.22-.288a.778.778 0 0 0-.879.677l-.093.735a.781.781 0 0 0 .677.88Z" fill="#131F2D"/>
	<path d="m111.822 70.342.9.118.18-1.372-.901-.118-.179 1.372ZM109.76 69.032l1.957.257.046-.35-1.958-.257-.045.35ZM109.675 69.642l1.958.257.045-.35-1.957-.257-.046.35Z" fill="#00A3FE"/>
	<path d="M38.614 119.676h37.36a6.358 6.358 0 0 0 6.356-6.357v-5.996a6.357 6.357 0 0 0-6.356-6.356h-37.36a6.357 6.357 0 0 0-6.356 6.356v5.996a6.358 6.358 0 0 0 6.356 6.357Z" fill="#FF64AE"/>
	<path d="M35.356 119.676h27.876a6.358 6.358 0 0 0 6.357-6.357v-5.996a6.357 6.357 0 0 0-6.357-6.356H35.356A6.357 6.357 0 0 0 29 107.323v5.996a6.358 6.358 0 0 0 6.356 6.357Z" fill="#FFA9D6"/>
	<path d="M69.668 100.996h2.991c.605 0 1.103-.49 1.103-1.103v-1.038c0-.605-.49-1.102-1.103-1.102h-2.99c-.606 0-1.103.49-1.103 1.102v1.038a1.107 1.107 0 0 0 1.102 1.103Z" fill="#B05638"/>
	<path d="M68.564 100.168h5.196v-1.095h-5.196v1.095ZM68.564 98.665h5.196v-.188h-5.196v.188Z" fill="#A0462D"/>
	<path d="m91.08 81.645 2.255-1.967a1.105 1.105 0 0 0 .108-1.557l-.684-.785a1.105 1.105 0 0 0-1.557-.108l-2.256 1.967a1.105 1.105 0 0 0-.108 1.557l.685.785a1.1 1.1 0 0 0 1.556.108Z" fill="#131F2D"/>
	<path d="m89.704 81.75 3.918-3.412-.72-.826-3.917 3.413.72.826Z" fill="#B05638"/>
	<path d="m88.718 80.613 3.918-3.413-.123-.141-3.918 3.413.123.141Z" fill="#016EB9"/>
	<path d="m78.914 73.545 2.184-.915-1.99-6.544-3.48 1.463 3.286 5.996Z" fill="#FF64AE"/>
	<path d="M79.058 70.835c.62-.26.916-.98.656-1.6-.26-.62-.98-.915-1.6-.656-.62.26-.915.98-.655 1.6.259.627.98.916 1.6.656Z" fill="#C63CC0"/>
	<path d="m76.281 68.249 2.89-1.216-.062-.146-2.89 1.215.062.147Z" fill="#A0462D"/>
	<path d="m80.385 74.943.691-.295a.8.8 0 0 0 .426-1.045l-.411-.973-2.17.908.411.973c.18.41.642.598 1.053.432Z" fill="#C63CC0"/>
	<path d="m63.65 99.086 2.364.021.764-6.796-3.783-.028.655 6.803Z" fill="#FF64AE"/>
	<path d="M64.854 97.436a1.223 1.223 0 0 0 .022-2.444 1.223 1.223 0 0 0-.022 2.444Z" fill="#C63CC0"/>
	<path d="m63.322 93.174 3.135.027.001-.159-3.134-.026-.002.158Z" fill="#A0462D"/>
	<path d="m64.443 100.952.757.008c.44.007.8-.353.807-.793l.007-1.052-2.35-.022-.006 1.052c-.008.44.346.8.785.807Z" fill="#C63CC0"/>
	<path d="m52.17 98.747 2.717.022a.308.308 0 0 0 .31-.288l.627-7.748-4.468-.036.497 7.755a.321.321 0 0 0 .317.295Z" fill="#FFA9D6"/>
	<path d="M53.547 96.794c.8.007 1.448-.634 1.455-1.434a1.443 1.443 0 0 0-1.434-1.456 1.443 1.443 0 0 0-1.456 1.434c0 .793.642 1.449 1.434 1.456Z" fill="#FFD2EC"/>
	<path d="m51.74 91.756 3.704.03.001-.187-3.704-.03-.002.187Z" fill="#131F2D"/>
	<path d="m51.737 93.322 3.705.03.008-.915-3.705-.03-.008.915ZM53.07 100.945l.894.007a.947.947 0 0 0 .952-.936l.007-1.247-2.775-.022-.007 1.247a.927.927 0 0 0 .93.951Z" fill="#FFD2EC"/>
	<path d="M56.977 100.96h2.868V90.957c0-.54-.44-.973-.973-.973h-.922c-.541 0-.973.44-.973.973v10.003Z" fill="#B2CBFD"/>
	<path d="M58.281 90.099h.36a.38.38 0 0 0 .382-.382v-.843a.38.38 0 0 0-.382-.382h-.36a.38.38 0 0 0-.382.382v.843c0 .209.173.382.382.382ZM56.976 99.375h2.162V93.17h-2.162v6.205Z" fill="#1A51AA"/>
	<path d="M37.742 100.938h11.105l-3.358-6.565H34.391l3.35 6.565Z" fill="#8C8C8C"/>
	<path d="M37.511 100.938h11.106l-3.358-6.565H34.16l3.351 6.565Z" fill="#D1D1D1"/>
	<path d="M51.658 100.938h-3.041v-.231h3.041c.065 0 .115.051.115.116s-.05.115-.115.115Z" fill="#8C8C8C"/>
	<path d="M40.48 98.149c.166.454.584.72.93.59.346-.129.497-.597.332-1.051-.166-.454-.584-.72-.93-.591-.346.122-.49.598-.332 1.052Z" fill="#131F2D"/>
	<path d="M87.072 95.187c-.836-.519-.706-1.47-.706-1.47v-16.8L85.054 93.71c-.1 1.297.872 1.7.872 1.7s1.982.289 1.146-.223Z" fill="#B8C1C9"/>
	<defs>
		<linearGradient id="a" x1="83" y1="0" x2="83" y2="166" gradientUnits="userSpaceOnUse">
			<stop stop-color="#EEF0FF"/>
			<stop offset="1" stop-color="#fff"/>
		</linearGradient>
	</defs>
</svg>
