<svg width="166" height="166" fill="none" xmlns="http://www.w3.org/2000/svg">
	<circle cx="83" cy="83" r="83" fill="url(#a)"/>
	<path d="M43.818 93.255a1.188 1.188 0 0 0 1.512-.647l10.432-24.876-3.709-1.403-8.929 25.423c-.216.609.093 1.272.694 1.503Z" fill="#364154"/>
	<path d="m55.755 58.75 2.29.87-2.283 8.113-3.709-1.404 3.702-7.58ZM57.05 52.18l4.519 1.712c.886.331 1.102 1.48.408 2.12l-.455.717a7.361 7.361 0 0 1-2.945 2.637l-.524.255-2.29-.872-.132-.331a7.438 7.438 0 0 1-.455-3.91l.162-1.048a1.262 1.262 0 0 1 1.712-1.28Z" fill="#131F2D"/>
	<path d="M25.551 113.867h25.994a1.18 1.18 0 0 0 1.18-1.18v-15.33a1.18 1.18 0 0 0-1.18-1.18H25.55a1.18 1.18 0 0 0-1.18 1.18v15.33c.008.655.533 1.18 1.18 1.18Z" fill="#9DA8ED"/>
	<path d="M24.373 109.34h28.345v-5.991H24.373v5.991ZM24.373 101.135h28.345v-1.011H24.373v1.011Z" fill="#4754C7"/>
	<path d="m102.683 108.13 11.875-4.997-10.826-35.717-19.015 7.996 17.966 32.718Z" fill="#FF64AE"/>
	<path d="M103.446 93.332a6.674 6.674 0 0 0 3.563-8.736 6.674 6.674 0 0 0-8.737-3.562 6.674 6.674 0 0 0-3.562 8.736 6.676 6.676 0 0 0 8.736 3.563Z" fill="#C63CC0"/>
	<path d="m88.28 79.211 15.77-6.635-.338-.803-15.77 6.635.337.803Z" fill="#A0462D"/>
	<path d="m107.448 117.097 10.248-4.31a.855.855 0 0 0 .455-1.118l-3.593-8.536-11.821 4.973 3.593 8.536a.855.855 0 0 0 1.118.455Z" fill="#C63CC0"/>
	<path d="m68.439 104.914 14.82.108a1.699 1.699 0 0 0 1.704-1.557l3.44-42.264-24.375-.208 2.73 42.333a1.683 1.683 0 0 0 1.681 1.588Z" fill="#FFA9D6"/>
	<path d="M75.98 94.227c4.357.038 7.912-3.462 7.95-7.819.039-4.356-3.462-7.911-7.819-7.95-4.356-.038-7.911 3.462-7.95 7.82-.038 4.356 3.463 7.918 7.82 7.949Z" fill="#FFD2EC"/>
	<path d="m66.104 66.78 20.226.17.008-1.026-20.225-.17-.009 1.026Z" fill="#131F2D"/>
	<path d="m66.07 75.322 20.225.17.042-4.997-20.226-.17-.042 4.997ZM69.218 116.874l13.14.108a1.015 1.015 0 0 0 1.017-1.003l.093-10.949-15.16-.124-.093 10.95c-.007.555.44 1.01 1.003 1.018Z" fill="#FFD2EC"/>
	<path d="M121.968 117.051h15.66V58.179c0-.579-.47-1.041-1.04-1.041h-13.572c-.578 0-1.041.47-1.041 1.04v58.873h-.007Z" fill="#B2CBFD"/>
	<path d="M127.404 57.77h5.359a.407.407 0 0 0 .409-.409v-7.98a.406.406 0 0 0-.409-.409h-5.359a.407.407 0 0 0-.409.409v7.973a.404.404 0 0 0 .409.416ZM121.965 108.398h11.79V74.54h-11.79v33.858Z" fill="#1A51AA"/>
	<defs>
		<linearGradient id="a" x1="83" y1="0" x2="83" y2="166" gradientUnits="userSpaceOnUse">
			<stop stop-color="#EEEFFF"/>
			<stop offset="1" stop-color="#fff" stop-opacity="0"/>
		</linearGradient>
	</defs>
</svg>
