<svg width="475" height="314" fill="none" xmlns="http://www.w3.org/2000/svg">
	<path fill="#fff" d="M0 0h475v314H0z"/>
	<path fill-rule="evenodd" clip-rule="evenodd" d="M414.341 163.816c-3.285 46.437-27.255 89.965-64.525 117.77-33.055 24.66-76.532 21.998-117.559 18.071-36.023-3.448-69.702-14.877-97.056-38.611-29.82-25.873-61.826-57.778-59.503-97.23 2.27-38.562 68.208-30.9 96.802-56.816 26.34-23.873 25-66.44 59.757-85.079C275-1 330.651-.827 367.748 28.082c39.188 30.54 50.102 86.12 46.593 135.734Z" fill="#F5F6FF"/>
	<path d="M160.961 197.697h205.348c11.281 0 20.523-9.242 20.523-20.523v-64.272H160.961c-11.281 0-20.523 9.242-20.523 20.523v43.77c0 11.26 9.242 20.502 20.523 20.502Z" fill="#D5D6DA"/>
	<path d="M128.996 192.45h242.197c8.415 0 15.296 6.882 15.296 15.297v8.616c0 23.288-19.049 42.358-42.357 42.358H128.996c-8.415 0-15.296-6.882-15.296-15.297v-35.657c0-8.435 6.881-15.317 15.296-15.317Z" fill="#D5D6DA"/>
	<path d="M207.273 258.014c-8.414 0-15.296-6.881-15.296-15.296v-35.657c0-6.821 4.541-12.653 10.736-14.611h-73.717c-8.415 0-15.296 6.882-15.296 15.297v35.657c0 8.415 6.881 15.296 15.296 15.296h215.156c2.604 0 5.166-.242 7.649-.706H207.273v.02Z" fill="#B8C1C9"/>
	<path d="M354.806 193.661h17.94v-68.47c0-6.76 5.529-12.289 12.29-12.289h1.695c.424 0 .746.343.746.747v145.072h-53.133c-.645 0-1.17-.525-1.17-1.171v-42.276c.02-11.886 9.747-21.613 21.632-21.613Z" fill="#657285"/>
	<path d="M333.315 113.467s17.133-1.635 23.066 8.213c5.932 9.848 0 46.938 5.024 53.497 5.025 6.578 10.958 10.554 10.736 18.303l-36.828.403s-32.388 1.171-32.146 18.424c.242 17.254 0 47.1 0 47.1h-18.545s-8.557-75.472 10.211-79.973c41.126-9.847 38.482-65.967 38.482-65.967Z" fill="#B8C1C9"/>
	<path d="M273.502 146.098s-4.136-2.583-5.953-2.2c-1.796.384-6.719 1.796-6.881 3.834-.161 2.038 7.043 5.247 12.35 3.451 5.328-1.796.484-5.085.484-5.085Z" fill="#FFD0C5"/>
	<path d="M295.479 254.301c0 .908-.444 1.534-1.211 1.957h-.02c-1.413.767-3.653.182-6.357.061-.343-.02-3.915 1.513-8.98 1.957-5.771.485-7.91-1.271-8.253-2.078-.283-.686 2.199-1.453 4.964-2.341.141-.04.262-.081.404-.121.363-.121.746-.242 1.109-.363 3.29-1.09 6.539-2.402 7.346-5.731.868-3.532-1.715-13.42-1.715-13.42l9.161-.989s.888 10.332 1.453 13.541c.303 1.715 1.09 3.087 1.554 4.561.04.1.06.201.101.302.222.868.444 1.756.444 2.664Z" fill="#FF9783"/>
	<path d="M177.628 192.451h141.016l-134.457-6.054-26.314 7.063 19.755-1.009Z" fill="#B8C1C9"/>
	<path d="M295.479 254.301c0 .908-.444 1.534-1.211 1.958h-.02c-2.038 1.311-5.67-.505-11.583 2.219-.262.122-2.24-.02-3.612-.04-1.796-.02-4.379.141-4.985.04-2.784-.443-3.208-1.816-3.39-2.28-.282-.686 2.2-1.453 4.964-2.341.767.303 4.48 1.595 8.859.747 3.855-.726 7.689-2.644 10.433-3.289.041.101.061.202.101.302.222.888.444 1.776.444 2.684Z" fill="#131F2D"/>
	<path d="m294.571 255.916-1.352 2.522h-2.946v-1.836l4.298-.686ZM342.779 166.277l-29.624-2.825s-45.344.202-49.561 6.195c0 0-8.092 5.61 1.049 28.817 9.162 23.207 19.897 46.373 19.897 46.373s2.745.747 6.498.464c1.473-.121 3.491-.626 3.491-.626s-2.058-34.608-6.639-48.088c-4.581-13.46-5.993-10.856 2.119-10.11 8.092.747 34.144 6.74 46.111 5.247 11.926-1.493 6.659-25.447 6.659-25.447Z" fill="#131F2D"/>
	<path d="M180.132 254.301c0 .908.444 1.534 1.211 1.957h.02c1.412.767 3.894.848 6.578.747.343-.02.646-.02.929-.02h.383c2.664.06 2.381.868 7.446 1.291 5.772.485 7.911-1.271 8.254-2.078.282-.686-2.2-1.453-4.964-2.341-.142-.04-.263-.081-.404-.121-.363-.121-.747-.242-1.11-.363-3.289-1.09-6.538-2.402-7.345-5.731-.868-3.532 1.715-13.42 1.715-13.42l-9.162-.989s-.887 10.332-1.452 13.541c-.303 1.715-1.09 3.087-1.554 4.561-.041.1-.061.201-.101.302-.202.868-.444 1.756-.444 2.664Z" fill="#FF7955"/>
	<path d="M180.132 254.301c0 .908.444 1.534 1.211 1.958h.02c1.493.686 3.935.787 6.578.726.343 0 .646-.02.929 0h.383c2.664.061 2.381.868 7.446 1.292 5.772.484 7.911-1.272 8.254-2.079.282-.686-2.2-1.453-4.964-2.341-.767.303-4.48 1.595-8.859.747-3.855-.726-7.689-2.644-10.433-3.289-.04.101-.061.202-.101.302-.222.888-.464 1.776-.464 2.684Z" fill="#131F2D"/>
	<path d="M301.189 254.301c0 .908-.444 1.534-1.211 1.957h-.02c-1.412.767-3.713-.928-14.267 1.574-5.65 1.332-8.98-.827-9.323-1.634-.282-.686 2.2-1.453 4.964-2.341.142-.04.263-.081.404-.121.363-.121.747-.242 1.11-.363 3.289-1.09 6.538-2.402 7.345-5.731.868-3.532-1.715-13.42-1.715-13.42l9.162-.989s.887 10.332 1.453 13.541c.302 1.715 1.089 3.087 1.553 4.561.041.1.061.201.101.302.222.868.444 1.756.444 2.664ZM239.521 242.637c.504 2.543 4.136 2.119 8.172 1.131 4.057-.989 3.088.181 8.839-.444 5.751-.646 7.507-2.785 7.689-3.633.161-.767-2.684-1.029-5.752-1.372-.383-.04-.766-.081-1.15-.141-3.451-.424-5.973-2.664-9.101-4.48-2.966-1.736-7.386-8.778-7.386-8.778l-7.91.625s4.137 6.296 5.751 9.041c.949 1.614.888 3.733.767 5.388-.04.847-.081 1.755.081 2.663Z" fill="#FFD0C5"/>
	<path d="M247.714 243.747c4.056-.989 3.087.182 8.839-.444 5.751-.645 7.507-2.785 7.688-3.632.162-.767-2.684-1.029-5.751-1.372l-.02.04s-3.451 2.442-8.254 2.563c-3.915.101-8.051-1.029-10.756-.989-.06.888-.121 1.816.061 2.704.525 2.563 4.137 2.119 8.193 1.13Z" fill="#131F2D"/>
	<path d="M221.944 126.584s1.877-4.621 3.956-4.803c2.078-.181 8.657-1.231 9.121-.282.464.948 0 4.338-1.413 5.549-1.412 1.231-10.17 3.209-10.17 3.209l-1.494-3.673Z" fill="#FFD0C5"/>
	<path d="m209.251 192.107-17.032 45.829s-2.623.262-5.126-.465c-2.3-.665-4.944-2.421-4.944-2.421s4.218-43.992 11.967-53.153c7.749-9.142 15.135 10.21 15.135 10.21Z" fill="#131F2D"/>
	<path d="M194.782 172.937s-8.456-10.736-6.438-26.052c.646-4.823 3.774-8.96 8.213-10.958h2.987l-.121-.262c-2.684-5.832-2.401-12.572.646-18.243.02-.02.02-.06.04-.08 1.11-2.18 1.978-4.44 4.44-4.44h-33.943l-1.897 57.875 26.073 2.16Z" fill="#B8C1C9"/>
	<path d="M136.463 171.383a16.17 16.17 0 0 0 10.937.383c13.077-4.177 45.687-14.025 54.365-11.24 10.917 3.511 43.668 68.712 43.668 68.712s-.746.989-2.764 1.735c-1.877.707-6.417.666-6.417.666s-29.564-25.345-33.095-32.731c-3.511-7.386-4.924-14.429-8.455-13.722-3.512.706-45.405 17.253-54.909 7.385-9.505-9.847-7.023-22.661-7.023-22.661l3.693 1.473Z" fill="#364154"/>
	<path d="M171.797 96.617c.787-1.614 1.655-4.48 2.079-9.585-.061.504-.949 6.942-3.431 10.594-10.17 6.679-29.684 28.978-29.301 33.216 0 0-6.861-11.644-6.982-11.725 0 0-12.673-16.123 2.341-25.345 7.628-4.682 7.587-10.716 7.285-15.942-.323-5.227 2.078-27.747 17.374-21.855 0 0 2.462-1.09 3.552-.928 0 0-.888.181-1.352.646 1.776-.101 4.298.02 6.417 1.23 5.63 3.169 10.635 31.763 2.018 39.694Z" fill="#131F2D"/>
	<path d="M169.86 97.949c.061.02-4.904 2.603-8.637 1.574-3.511-.949-5.812-5.51-5.751-5.53 1.493-.302 1.917-2.34 1.877-11.118l.666.14 11.3 2.24s-.262 3.552-.262 6.902c0 2.825.161 5.49.807 5.792Z" fill="#FFD0C5"/>
	<path d="M169.315 85.256s-.262 3.552-.262 6.901c-6.336-.181-9.666-5.953-11.038-9.141l11.3 2.24Z" fill="#FF9783"/>
	<path d="M156.844 81.785s-3.31-5.247-4.117-9.727c-.565-3.188 1.07-15.054 12.976-13.338 0 0 3.451.343 6.72 2.542 2.583 1.756 6.316 5.51 2.139 15.862l-1.09 3.49-16.628 1.171Z" fill="#131F2D"/>
	<path d="M171.434 88.424s-14.973.242-14.973-9.08c-.021-9.324-1.958-15.58 7.607-16.124 9.565-.545 11.422 3.007 12.169 6.114.767 3.128-.908 18.787-4.803 19.09Z" fill="#FFD0C5"/>
	<path d="M157.288 64.975s10.231-6.982 13.46-2.159c.989-.848 2.724-1.453 5.045 1.352 3.471 4.197.383 11.644.383 11.644-1.433.161-1.756-4.722-2.502-7.103-.565-1.797-2.442-3.613-3.33-4.42-1.312 2.946-4.904 9.99-9.848 11.26-6.296 1.615-9.02-.06-9.02-.06s4.823-3.834 5.812-10.514Z" fill="#131F2D"/>
	<path d="M136.523 138.227c-1.473-6.195 3.552-18.202 8.798-28.15 4.763-9.021 9.687-16.326 10.131-16.063 12.551 7.446 13.681 1.25 13.681 1.25s11.402 1.514 14.631 7.064c4.459 7.688 9.323 30.733 14.105 30.39 2.2-.161 24.256-8.455 24.256-8.455s3.673 3.451 2.967 7.668c0 0-10.897 7.285-20.099 11.947-4.864 2.462-9.283 4.177-11.341 3.693-4.198-.989-10.756-10.716-14.287-16.447 0-.02-.021-.02-.021-.04-4.52 25.588 1.635 31.42-1.493 34.104-3.289 2.845-7.971-1.352-18.303 3.127-6.78 2.947-16.164 7.184-22.5 7.931-3.31.383-5.792-.182-6.599-2.422-2.361-6.518 8.899-23.812 6.074-35.597Z" fill="#FFA9D6"/>
	<path d="M168.104 82.774s.283 1.19 3.229 1.009c0 0 2.482-.162 2.401-1.453 0 0-2.401-.928-5.63.444Z" fill="#fff"/>
	<path d="M164.472 155.501a.605.605 0 0 0 .767-.322l5.348-12.754-1.897-.727-4.581 13.057c-.101.282.061.625.363.746Z" fill="#364154"/>
	<path d="m170.587 137.804 1.19.444-1.17 4.157-1.917-.727 1.897-3.874Z" fill="#131F2D"/>
	<path d="m171.253 134.434 2.32.888c.444.181.565.767.202 1.089l-.242.364a3.635 3.635 0 0 1-1.514 1.352l-.262.141-1.17-.444-.061-.161a3.57 3.57 0 0 1-.222-1.998l.081-.545c-.041-.505.424-.868.868-.686Z" fill="#131F2D"/>
	<path d="M130.429 173.824c.807 2.24 3.289 2.826 6.598 2.422 4.379-1.917 23.288-9.242 23.086-14.207-.323-7.345-3.632-7.587-1.292-16.668 1.877-7.285-15.598-20.825-18.383-23.772-5.247 9.949-5.388 10.413-3.915 16.608 2.825 11.805-8.435 29.099-6.094 35.617ZM179.344 131.144c3.531 5.731 10.09 15.458 14.287 16.447 2.078.484 6.478-1.231 11.341-3.693-3.552.908-7.002.888-10.372.565-3.633-.343-4.702-4.803-10.453-11.502-3.714-4.339-4.622-3.249-4.803-1.817Z" fill="#FF64AE"/>
	<path d="M161.808 145.21s3.169-2.462 6.155-1.877c2.987.585 4.46 2.644 4.339 3.572-.121.948-1.695 3.572-3.996 3.814-2.28.242-8.798-1.413-8.798-1.413l2.3-4.096Z" fill="#FFD0C5"/>
	<path d="M155.451 94.014s-12.208.747-16.426 6.639c-5.953 8.294-20.22 45.182-13.46 49.884 7.608 5.308 37.111-.161 37.111-.161s.908-4.198-.343-6.236c-1.251-2.038-21.593-5.327-22.521-6.255-.948-.949 11.725-18.303 11.725-21.129.02-2.805 3.914-22.742 3.914-22.742Z" fill="#FFA9D6"/>
	<path d="m346.917 168.396-27.787-2.341s-45.344.202-49.561 5.994c0 0-6.861 4.298 2.3 26.758 9.162 22.46 18.424 47.18 18.424 47.18s2.059.283 4.541.081c3.128-.263 4.157-1.272 4.157-1.272s-.646-30.733-5.227-43.789c-4.581-13.037-6.336-11.725 1.756-10.998 8.092.726 30.855 6.397 46.554 3.39 11.846-2.24 4.843-25.003 4.843-25.003Z" fill="#364154"/>
	<path d="M276.389 256.218c.182.444.586 1.736 3.128 2.22h8.98c3.088-1.412 5.57-1.574 7.507-1.594 1.715-.02 3.027.04 3.975-.565H300c.04-.02.1-.061.141-.081.686-.424 1.069-1.029 1.069-1.877 0-.908-.242-1.796-.464-2.663a1.71 1.71 0 0 0-.101-.303c-2.744.646-6.578 2.563-10.433 3.289-4.379.828-8.092-.464-8.858-.746-2.785.847-5.267 1.634-4.965 2.32Z" fill="#131F2D"/>
	<path d="m300.282 255.916-1.352 2.522h-2.946v-1.836l4.298-.686Z" fill="#131F2D"/>
	<path d="M271.485 151.465c.04.263.121.505.222.747 1.17 2.583 25.588 5.872 28.635 4.218 1.372-.727 3.35-13.037 5.126-26.416 2.199-16.547 4.076-34.729 4.076-34.729s-10.13 3.189-11.301 8.597c-1.17 5.388-1.412 38.724-4.46 40.359-3.047 1.635-15.962.242-20.421.948-.021-.04-2.361 3.653-1.877 6.276Z" fill="#FFA9D6"/>
	<path d="M308.858 56.904c1.897-1.514 4.641-1.332 6.417-1.232-.464-.464-1.352-.645-1.352-.645 1.09-.162 3.552.928 3.552.928s9.302-4.762 13.601 7.446c0 0-.747-.928-1.756-1.957 2.482 7.022-.02 17.637-7.87 19.534-5.085 1.23-32.025-8.455-12.592-24.074Z" fill="#131F2D"/>
	<path d="M308.797 97.949c-.061.02 4.904 2.603 8.637 1.574 3.511-.949 5.812-5.51 5.751-5.53-1.493-.302-1.917-2.34-1.877-11.118l-.666.14-11.3 2.24s.262 3.552.262 6.902c0 2.825-.161 5.49-.807 5.792Z" fill="#FFD0C5"/>
	<path d="M309.342 85.256s.263 3.552.263 6.901c6.336-.181 9.666-5.953 11.038-9.141l-11.301 2.24Z" fill="#FF9783"/>
	<path d="M321.814 81.785s3.309-5.247 4.116-9.727c.565-3.188-1.069-15.054-12.975-13.338 0 0-3.451.343-6.72 2.542-2.583 1.756-6.316 5.51-2.139 15.862l1.09 3.49 16.628 1.171Z" fill="#131F2D"/>
	<path d="M307.224 88.424s14.973.242 14.973-9.08c.02-9.324 1.957-15.58-7.608-16.124-9.565-.545-11.422 3.007-12.168 6.114-.767 3.128.908 18.787 4.803 19.09Z" fill="#FFD0C5"/>
	<path d="M303.57 109.068c.263-1.07-1.977-1.857-2.522-.908-1.029 1.776-1.231 4.016-1.635 5.791-1.17 5.086 0 12.048 0 12.048l4.157-16.931Z" fill="#FF64AE"/>
	<path d="M302.864 64.168c2.301-2.805 4.056-2.2 5.045-1.352 3.229-4.843 13.46 2.16 13.46 2.16 1.009 6.699 5.832 10.513 5.832 10.513s-2.724 1.695-9.021.06c-4.944-1.27-8.536-8.314-9.847-11.26-.888.787-2.765 2.624-3.33 4.42-.747 2.38-1.09 7.264-2.502 7.103-.02-.02-3.108-7.447.363-11.644Z" fill="#131F2D"/>
	<path d="M310.552 82.774s-.283 1.19-3.229 1.009c0 0-2.482-.162-2.401-1.453 0 0 2.401-.928 5.63.444Z" fill="#fff"/>
	<path d="M271.484 151.466c.041.262.121.504.222.746 1.171 2.583 25.588 5.873 28.635 4.218 1.373-.727 3.754-16.043 2.038-29.725-1.836 7.83-2.401 23.893-6.719 24.64-4.924.847-17.779-.787-24.176.121Z" fill="#FF64AE"/>
	<path d="M298.486 126.624c6.074 29.241.989 33.741 4.137 36.606.02.02 2.805 1.211 2.825 1.231 3.289 2.845 3.37-.605 13.702 3.875 4.924 2.139 11.22 4.964 16.729 6.639 2.079.625 4.036 1.089 5.772 1.291 3.309.384 5.791-.181 6.598-2.421 2.341-6.518-8.919-23.812-6.094-35.618l.061-.302c.201-1.029.242-2.22.141-3.511-.525-6.579-4.682-16.164-9-24.317-4.763-9.02-9.687-16.325-10.131-16.063-12.551 7.446-13.681 1.251-13.681 1.251s-13.137 21.35-11.059 31.339Z" fill="#FFA9D6"/>
	<path d="M304.438 164.058c-.02-.021.02 0 0 0 3.289 2.845 4.359-.202 14.691 4.278 4.924 2.139 11.22 4.964 16.729 6.639 2.805.484 4.903.928 5.771 1.291 3.31.384 5.792-.181 6.599-2.421 2.341-6.518-8.92-23.812-6.094-35.617l.06-.303c.242-1.171.283-2.321.141-3.511-.585-5.005-4.278-10.433-8.435-18.344-2.784 2.947-23.731-.464-18.767 28.635 1.493 8.9-9.383 12.431-10.695 19.353Z" fill="#FF64AE"/>
	<path d="M305.448 165.531s-4.621-1.09-6.72-.242c-2.118.867-6.336 3.047-5.953 4.217.384 1.171 5.388 1.796 7.507.626 2.119-1.171 3.673.323 6.256-.545 2.603-.848-1.09-4.056-1.09-4.056Z" fill="#FFD0C5"/>
	<path d="M323.205 94.014s17.032.222 20.079 8.435c3.047 8.213 2.119 37.07-2.341 45.768-4.46 8.677-29.805 20.421-32.61 20.886-2.825.464-4.581-3.875-4.46-4.339.121-.464 26.637-21.935 26.516-24.175-.141-2.24-7.184-46.575-7.184-46.575Z" fill="#FFA9D6"/>
	<path d="m315.78 121.277 6.215.807a2.176 2.176 0 0 0 2.462-1.897l.263-2.058a2.178 2.178 0 0 0-1.897-2.462l-6.216-.807a2.177 2.177 0 0 0-2.462 1.897l-.262 2.058a2.188 2.188 0 0 0 1.897 2.462Z" fill="#131F2D"/>
	<path d="m320.909 120.359 2.521.331.503-3.842-2.521-.33-.503 3.841ZM315.135 116.693l5.483.718.128-.98-5.482-.719-.129.981ZM314.897 118.4l5.482.718.129-.98-5.482-.718-.129.98Z" fill="#00A3FE"/>
	<path d="M115.919 258.499h104.612c9.827 0 17.798-7.971 17.798-17.799v-16.789c0-9.828-7.971-17.799-17.798-17.799H115.919c-9.827 0-17.798 7.971-17.798 17.799V240.7c0 9.828 7.971 17.799 17.798 17.799Z" fill="#FF64AE"/>
	<path d="M106.798 258.499h78.056c9.827 0 17.798-7.971 17.798-17.799v-16.789c0-9.828-7.971-17.799-17.798-17.799h-78.056c-9.827 0-17.798 7.971-17.798 17.799V240.7c0 9.828 7.971 17.799 17.798 17.799Z" fill="#FFA9D6"/>
	<path d="M202.875 206.193h8.374a3.089 3.089 0 0 0 3.088-3.088v-2.906a3.088 3.088 0 0 0-3.088-3.087h-8.374a3.088 3.088 0 0 0-3.088 3.087v2.906c.02 1.715 1.393 3.088 3.088 3.088Z" fill="#B05638"/>
	<path d="M199.785 203.876h14.549v-3.067h-14.549v3.067ZM199.785 199.666h14.549v-.525h-14.549v.525Z" fill="#A0462D"/>
	<path d="m262.827 152.01 6.317-5.509c1.291-1.11 1.412-3.067.302-4.358l-1.917-2.2c-1.11-1.292-3.067-1.413-4.358-.303l-6.317 5.509c-1.291 1.11-1.412 3.068-.302 4.359l1.917 2.2c1.13 1.291 3.087 1.432 4.358.302Z" fill="#131F2D"/>
	<path d="m258.977 152.306 10.971-9.558-2.015-2.313-10.971 9.558 2.015 2.313Z" fill="#B05638"/>
	<path d="m256.217 149.12 10.971-9.557-.345-.396-10.971 9.558.345.395Z" fill="#016EB9"/>
	<path d="m228.764 129.328 6.115-2.562-5.57-18.324-9.747 4.097 9.202 16.789Z" fill="#FF64AE"/>
	<path d="M229.167 121.741a3.436 3.436 0 0 0 1.837-4.48 3.436 3.436 0 0 0-4.48-1.836 3.435 3.435 0 0 0-1.837 4.479c.727 1.756 2.745 2.563 4.48 1.837Z" fill="#C63CC0"/>
	<path d="m221.393 114.498 8.09-3.404-.172-.409-8.091 3.404.173.409Z" fill="#A0462D"/>
	<path d="m232.881 133.243 1.937-.827c1.13-.484 1.675-1.796 1.191-2.926l-1.15-2.724-6.074 2.542 1.15 2.725a2.27 2.27 0 0 0 2.946 1.21Z" fill="#C63CC0"/>
	<path d="m186.024 200.845 6.619.061 2.139-19.03-10.594-.081 1.836 19.05Z" fill="#FF64AE"/>
	<path d="M189.394 196.224c1.897.02 3.43-1.513 3.451-3.39.02-1.897-1.514-3.431-3.391-3.451-1.897-.02-3.43 1.514-3.45 3.39a3.422 3.422 0 0 0 3.39 3.451Z" fill="#C63CC0"/>
	<path d="m185.105 184.293 8.778.073.004-.444-8.778-.073-.004.444Z" fill="#A0462D"/>
	<path d="m188.244 206.072 2.119.02c1.231.02 2.24-.989 2.26-2.22l.02-2.946-6.578-.061-.02 2.947a2.23 2.23 0 0 0 2.199 2.26Z" fill="#C63CC0"/>
	<path d="m153.877 199.897 7.608.06a.863.863 0 0 0 .868-.807l1.756-21.693-12.512-.101 1.393 21.713c.04.464.423.828.887.828Z" fill="#FFA9D6"/>
	<path d="M157.733 194.428a4.04 4.04 0 0 0 4.076-4.016 4.04 4.04 0 0 0-4.016-4.076 4.04 4.04 0 0 0-4.076 4.016c0 2.22 1.796 4.056 4.016 4.076Z" fill="#FFD2EC"/>
	<path d="m152.673 180.319 10.372.087.005-.524-10.373-.087-.004.524Z" fill="#131F2D"/>
	<path d="m152.668 184.704 10.372.087.022-2.562-10.373-.087-.021 2.562ZM156.4 206.051l2.502.021c1.453.02 2.643-1.171 2.664-2.624l.02-3.491-7.769-.06-.021 3.491a2.597 2.597 0 0 0 2.604 2.663Z" fill="#FFD2EC"/>
	<path d="M167.337 206.092h8.032v-28.009a2.726 2.726 0 0 0-2.724-2.725h-2.583a2.726 2.726 0 0 0-2.725 2.725v28.009Z" fill="#B2CBFD"/>
	<path d="M170.99 175.681h1.009c.606 0 1.07-.484 1.07-1.069v-2.361c0-.606-.484-1.07-1.07-1.07h-1.009c-.605 0-1.069.484-1.069 1.07v2.361c0 .585.484 1.069 1.069 1.069ZM167.336 201.654h6.054V184.28h-6.054v17.374Z" fill="#1A51AA"/>
	<path d="M113.477 206.031h31.097l-9.404-18.383h-31.076l9.383 18.383Z" fill="#8C8C8C"/>
	<path d="M112.832 206.031h31.097l-9.404-18.383h-31.076l9.383 18.383Z" fill="#D1D1D1"/>
	<path d="M152.445 206.031h-8.516v-.645h8.516c.181 0 .322.141.322.323a.318.318 0 0 1-.322.322Z" fill="#8C8C8C"/>
	<path d="M121.146 198.222c.464 1.271 1.634 2.018 2.603 1.655.968-.364 1.392-1.675.928-2.947-.464-1.271-1.634-2.018-2.603-1.654-.969.343-1.372 1.674-.928 2.946Z" fill="#131F2D"/>
	<path d="M251.607 189.928c-2.341-1.453-1.978-4.117-1.978-4.117v-47.038l-3.672 47.018c-.283 3.633 2.441 4.763 2.441 4.763s5.55.807 3.209-.626Z" fill="#B8C1C9"/>
</svg>
