<svg width="475" height="314" fill="none" xmlns="http://www.w3.org/2000/svg">
	<path fill="#fff" d="M0 0h475v314H0z"/>
	<path fill-rule="evenodd" clip-rule="evenodd" d="M236.61 50.228c41.732-3.596 87.073-37.203 120.297-11.813 33.56 25.647 12.32 72.547 9.812 114.585-2.305 38.634 7.201 87.447-23.298 111.453-29.062 22.875-76.217 17.967-112.702 11.547-36.485-6.42-54.593-15.865-78.5-32-33.541-22.638-74.276-45.966-80.295-85.854C65.777 117.409 91.219 94.5 121.219 71.5c30.001-23 80.39-18.255 115.391-21.272Z" fill="#F5F6FF"/>
	<path d="M140.825 183.735a3.105 3.105 0 0 0 3.95-1.692l27.266-65.012-9.693-3.668-23.337 66.443a3.094 3.094 0 0 0 1.814 3.929Z" fill="#364154"/>
	<path d="m172.021 93.553 5.986 2.277-5.965 21.201-9.694-3.668 9.673-19.81ZM175.406 76.383l11.81 4.474c2.317.867 2.881 3.87 1.068 5.542l-1.189 1.874a19.244 19.244 0 0 1-7.699 6.892l-1.37.665-5.985-2.277-.343-.867a19.438 19.438 0 0 1-1.189-10.217l.423-2.74c-.201-2.419 2.197-4.213 4.474-3.346Z" fill="#131F2D"/>
	<path d="M93.083 237.603h67.934a3.083 3.083 0 0 0 3.084-3.083v-40.063a3.083 3.083 0 0 0-3.084-3.083H93.083A3.083 3.083 0 0 0 90 194.457v40.063c.02 1.713 1.39 3.083 3.083 3.083Z" fill="#9DA8ED"/>
	<path d="M90.004 225.774h74.081v-15.658h-74.08v15.658ZM90.004 204.328h74.081v-2.64h-74.08v2.64Z" fill="#4754C7"/>
	<path d="m294.669 222.61 31.035-13.059-28.294-93.346-49.696 20.898 46.955 85.507Z" fill="#FF64AE"/>
	<path d="M296.665 183.937c8.867-3.728 13.038-13.945 9.31-22.832-3.728-8.867-13.945-13.039-22.833-9.311-8.867 3.728-13.038 13.946-9.31 22.833 3.728 8.867 13.966 13.039 22.833 9.31Z" fill="#C63CC0"/>
	<path d="m257.026 147.031 41.217-17.342-.883-2.099-41.217 17.342.883 2.099Z" fill="#A0462D"/>
	<path d="m307.124 246.047 26.783-11.265c1.128-.484 1.672-1.794 1.189-2.922l-9.391-22.309-30.894 12.998 9.391 22.309c.484 1.129 1.794 1.673 2.922 1.189Z" fill="#C63CC0"/>
	<path d="m205.171 214.206 38.733.282c2.317.021 4.252-1.753 4.454-4.07l8.988-110.456-63.702-.544 7.134 110.637a4.397 4.397 0 0 0 4.393 4.151Z" fill="#FFA9D6"/>
	<path d="M224.881 186.275c11.386.101 20.676-9.049 20.777-20.435.101-11.386-9.048-20.676-20.435-20.777-11.386-.101-20.676 9.049-20.777 20.435-.101 11.386 9.049 20.696 20.435 20.777Z" fill="#FFD2EC"/>
	<path d="m199.069 114.541 52.86.443.022-2.68-52.86-.444-.022 2.681Z" fill="#131F2D"/>
	<path d="m198.978 136.867 52.86.443.11-13.059-52.86-.443-.11 13.059ZM207.207 245.463l34.34.282c1.451.02 2.64-1.169 2.66-2.62l.242-28.617-39.62-.322-.242 28.617c-.02 1.451 1.149 2.64 2.62 2.66Z" fill="#FFD2EC"/>
	<path d="M345.071 245.926h40.93V92.062c0-1.511-1.23-2.72-2.721-2.72h-35.468a2.722 2.722 0 0 0-2.721 2.72v153.864h-.02Z" fill="#B2CBFD"/>
	<path d="M359.278 90.994h14.006c.605 0 1.068-.484 1.068-1.068V69.068c0-.605-.483-1.068-1.068-1.068h-14.006c-.604 0-1.068.484-1.068 1.068v20.838a1.055 1.055 0 0 0 1.068 1.088ZM345.065 223.311h30.813v-88.49h-30.813v88.49Z" fill="#1A51AA"/>
</svg>
