<svg width="490" height="304" fill="none" xmlns="http://www.w3.org/2000/svg">
	<path d="M478.69 60.96c-12.355-24.132-39.484-42.279-65.89-36.71-15.81 3.334-31.524 14.516-46.683 8.902-10.928-4.046-17.094-15.524-26.28-22.724C325.7-.655 305.633-.525 288.406 4.44c-17.229 4.965-32.999 14.097-50.019 19.743-29.006 9.62-61.383 8.576-89.719-2.895-12.439-5.035-24.083-11.985-36.745-16.42-12.664-4.434-27.026-6.155-39.249-.61C60.451 9.801 51.68 24.303 55.923 37.101c.846 2.552 2.173 5.067 1.998 7.75-.279 4.305-4.41 7.457-8.59 8.415-4.18.957-8.535.333-12.822.441C17.277 54.198.091 71.851 0 91.208c-.075 16.052 9.765 30.157 18.175 43.796 8.412 13.638 15.97 30.004 10.96 45.243-2.972 9.037-9.942 16.105-14.509 24.441-11.838 21.612-5.51 50.221 11.02 68.449 16.532 18.228 41.289 27.148 65.724 29.272 24.435 2.123 48.939-1.863 73.15-5.803 24.21-3.94 48.734-7.858 73.158-5.602l-1.313-.717c47.714 11.859 97.624 14.708 146.365 8.35 10.203-1.331 21.918-4.192 26.23-13.591 3.642-7.935.372-17.239 1.12-25.946 1.079-12.55 10.439-22.828 20.644-30.124 10.205-7.296 21.782-12.725 30.975-21.274 17.986-16.722 24.089-42.609 26.771-67.101 2.956-26.981 2.575-55.51-9.78-79.642Z" fill="url(#a)"/>
	<path d="M129.412 296.069c16.401-8.389 22.015-37.192 12.692-46.553-6.299-6.326-15.332.327-24.048-6.228-11.126-8.372-2.941-24.138-11.691-44.586-7.445-17.402-25.302-33.868-35.736-30.488-10.924 3.536-16.678 29.777-7.349 45.57 6.066 10.27 15.352 10.775 17.368 20.327 2.338 11.083-8.955 16.137-9.018 26.882-.108 19.298 36.085 46.173 57.782 35.076Z" fill="#BDD0FB"/>
	<path d="M120.563 303.445a.682.682 0 0 0 .292-.066.648.648 0 0 0 .309-.876c-21.743-43.979-28.118-94.996-28.18-95.507a.665.665 0 0 0-.742-.574.66.66 0 0 0-.584.729c.063.511 6.466 51.749 28.306 95.923a.66.66 0 0 0 .599.371Z" fill="#91B3FA"/>
	<path d="M75.953 220.209c.07 0 .139-.021.197-.065a.31.31 0 0 0 .056-.44c-6.864-8.648-14.47-21.639-11.732-34.422 1.63-7.614 6.222-11.585 6.267-11.623a.31.31 0 0 0 .033-.442.323.323 0 0 0-.45-.032c-.195.166-4.799 4.15-6.475 11.968-1.54 7.185-.733 19.081 11.853 34.935a.32.32 0 0 0 .251.121ZM130.891 292.229a.325.325 0 0 0 .264-.136c10.547-15.109 14.144-26.784 10.69-34.7-3.071-7.037-10.824-8.346-10.902-8.359a.317.317 0 0 0-.365.259.315.315 0 0 0 .264.359c.073.012 7.493 1.273 10.421 7.996 3.357 7.705-.22 19.174-10.633 34.091a.31.31 0 0 0 .082.435.325.325 0 0 0 .179.055Z" fill="#F0F0F0"/>
	<path d="M59.307 162.714H40.752c-2.3 0-4.429 1.205-5.58 3.163l-9.277 15.771a6.225 6.225 0 0 0 0 6.324l9.278 15.772c1.15 1.957 3.278 3.163 5.58 3.163h18.554c2.301 0 4.43-1.206 5.58-3.163l9.277-15.772a6.225 6.225 0 0 0 0-6.324l-9.277-15.771c-1.15-1.96-3.276-3.163-5.58-3.163Z" fill="#7D97F4"/>
	<path d="M40.752 203.879a3.381 3.381 0 0 1-2.908-1.649l-9.278-15.774a3.25 3.25 0 0 1 0-3.297l9.278-15.772a3.384 3.384 0 0 1 2.908-1.649h18.555c1.196 0 2.312.633 2.91 1.649l9.277 15.774a3.25 3.25 0 0 1 0 3.297l-9.278 15.772a3.384 3.384 0 0 1-2.909 1.649H40.752Z" fill="#91B3FA"/>
	<path d="M100.513 187.57H81.958c-2.3 0-4.429 1.206-5.58 3.163l-9.277 15.772a6.225 6.225 0 0 0 0 6.324L76.38 228.6c1.15 1.957 3.278 3.163 5.58 3.163h18.554c2.301 0 4.429-1.206 5.58-3.163l9.277-15.771a6.223 6.223 0 0 0 0-6.324l-9.277-15.772c-1.151-1.959-3.279-3.163-5.58-3.163Z" fill="#7D97F4"/>
	<path d="M81.959 228.736a3.38 3.38 0 0 1-2.91-1.65l-9.277-15.773c-.599-1.017-.599-2.28 0-3.297l9.278-15.772a3.384 3.384 0 0 1 2.909-1.649h18.555c1.195 0 2.311.633 2.908 1.649l9.278 15.774a3.25 3.25 0 0 1 0 3.297l-9.278 15.771a3.382 3.382 0 0 1-2.908 1.65H81.959Z" fill="#91B3FA"/>
	<path d="M103.948 138.698H85.393c-2.301 0-4.43 1.205-5.58 3.162l-9.277 15.772a6.225 6.225 0 0 0 0 6.324l9.277 15.771c1.15 1.958 3.279 3.163 5.58 3.163h18.555c2.301 0 4.429-1.205 5.579-3.163l9.278-15.771a6.227 6.227 0 0 0 0-6.324l-9.278-15.772c-1.15-1.957-3.278-3.162-5.579-3.162Z" fill="#7D97F4"/>
	<path d="M85.392 179.865a3.38 3.38 0 0 1-2.908-1.649l-9.278-15.774a3.25 3.25 0 0 1 0-3.297l9.278-15.772a3.381 3.381 0 0 1 2.908-1.649h18.555a3.38 3.38 0 0 1 2.909 1.649l9.278 15.774a3.25 3.25 0 0 1 0 3.297l-9.278 15.772a3.384 3.384 0 0 1-2.909 1.649H85.392ZM472.287 143.348c-4.459 23.352-36.673 158.06-185.094 148.159 0 0-4.617-94.571 182.064-150.504 1.633-.491 3.32.819 3.03 2.345Z" fill="#91B3FA"/>
	<path d="M455.627 166.273c-2.291 3.513-4.73 6.905-7.223 10.268-1.242 1.685-2.524 3.337-3.796 4.999-1.302 1.639-2.575 3.299-3.908 4.914a340.702 340.702 0 0 1-16.533 18.928c-11.502 12.2-23.873 23.645-37.227 33.896-3.304 2.607-6.749 5.033-10.155 7.506-3.495 2.354-6.942 4.778-10.543 6.979-3.533 2.306-7.218 4.369-10.856 6.506-1.851 1.015-3.722 2-5.582 3-.934.49-1.853 1.014-2.802 1.479l-2.851 1.389-2.85 1.388c-.951.463-1.894.936-2.872 1.344l-5.815 2.543c-.487.208-.967.43-1.458.628l-1.481.573-2.963 1.146c-1.976.76-3.938 1.56-5.96 2.197l-6.027 2.023c-2.024.626-4.077 1.172-6.112 1.762l-3.06.868c-1.029.259-2.065.484-3.099.728l-6.202 1.435a.858.858 0 0 1-1.031-.626.84.84 0 0 1 .637-1.012h.005l.043-.011 6.153-1.393c1.025-.235 2.054-.454 3.073-.704l3.036-.847c2.022-.575 4.057-1.106 6.068-1.717l5.986-1.979c2.009-.622 3.96-1.407 5.924-2.15l2.945-1.123 1.473-.561c.489-.195.966-.411 1.449-.617l5.787-2.497c.973-.399 1.912-.868 2.859-1.322l2.839-1.365 2.84-1.365c.945-.456 1.86-.972 2.792-1.456 1.853-.985 3.715-1.955 5.562-2.955 3.627-2.11 7.303-4.143 10.828-6.419 3.592-2.171 7.035-4.568 10.525-6.892 3.404-2.448 6.845-4.844 10.147-7.426 13.35-10.144 25.735-21.492 37.264-33.6a340.442 340.442 0 0 0 16.583-18.799c1.336-1.605 2.614-3.254 3.923-4.882 1.276-1.652 2.564-3.293 3.81-4.967 2.5-3.337 4.959-6.719 7.243-10.189l.004-.007a.368.368 0 0 1 .502-.106.35.35 0 0 1 .106.488Z" fill="#BDD0FB"/>
	<path d="M405.056 32.078c11.042 27.813 67.523 191.899-104.098 264.611 0 0-69.898-99.889 99.126-265.452 1.48-1.45 4.25-.976 4.972.84Z" fill="#BDD0FB"/>
	<path d="M397.734 75.553c-1.406 9.312-3.147 18.556-5.046 27.773-1.905 9.215-4 18.394-6.293 27.523-4.589 18.26-9.917 36.35-16.241 54.115-6.338 17.752-13.648 35.209-22.521 51.921-4.446 8.347-9.273 16.511-14.656 24.326-5.35 7.833-11.297 15.292-17.878 22.193a.871.871 0 0 1-1.213.041.833.833 0 0 1-.041-1.191l.002-.002.004-.004c6.533-6.795 12.461-14.159 17.805-21.911 5.376-7.735 10.211-15.833 14.673-24.118 8.903-16.594 16.269-33.966 22.668-51.65 6.386-17.695 11.786-35.734 16.449-53.947a667.522 667.522 0 0 0 6.405-27.461c1.936-9.196 3.718-18.432 5.158-27.706v-.006a.364.364 0 0 1 .415-.3c.202.028.34.208.31.404Z" fill="#BDD0FB"/>
	<path d="M351.128 210.92c8.148-7.552 12.404-18.96 11.156-29.892-1.247-10.932-7.975-21.129-17.625-26.722-5.294-3.07-11.771-5.174-14.699-10.482-2.364-4.284-1.71-9.493-1.07-14.324 3.12-23.575 4.219-48.299-4.78-70.37-13.371-32.792-50.096-54.8-85.915-51.563-35.819-3.235-72.547 18.77-85.916 51.563-8.998 22.071-7.902 46.795-4.779 70.37.64 4.831 1.293 10.04-1.071 14.324-2.928 5.306-9.405 7.412-14.701 10.482-9.649 5.593-16.375 15.792-17.623 26.722-1.248 10.932 3.008 22.34 11.157 29.892 2.66 2.465 5.835 4.725 7 8.128 1.629 4.744-1.213 9.695-2.733 14.473-5.108 16.06 5.687 33.666 20.43 42.246 13.819 8.041 30.25 10.034 46.314 11.484 6.996 2.089 14.128 4.076 21.427 3.952 7.738-.131 15.832-3.029 20.279-9.244.075-.106.142-.217.216-.323.073.106.14.217.216.323 4.446 6.215 12.543 9.115 20.279 9.244 7.298.124 14.429-1.863 21.427-3.952 16.063-1.45 32.495-3.443 46.314-11.484 14.744-8.58 25.538-26.186 20.43-42.246-1.521-4.778-4.36-9.729-2.734-14.473 1.166-3.4 4.343-5.663 7.001-8.128Z" fill="url(#b)"/>
	<path d="M329.35 262.337c-21.011.59-48.626 10.607-61.234-5.893-12.607-16.5-7.804-67.175-7.804-67.175s-15.48-1.584-23.512-1.268c-8.032-.314-23.512 1.268-23.512 1.268s4.803 50.675-7.805 67.175c-12.607 16.5-40.222 6.483-61.233 5.893-16.626-.467-22.45 30.102-20.037 37.782.619 1.972 2.479 3.309 4.581 3.309h219.442c2.102 0 3.962-1.337 4.581-3.309 2.417-7.68-6.841-38.249-23.467-37.782Z" fill="url(#c)"/>
	<path d="M329.35 262.337c-10.882.306-23.535 3.139-34.958 3.509-10.441 8.457-30.255 20.87-55.401 19.467-27.705-1.545-47.558-13.29-56.171-19.44-12.312.236-26.523-3.197-38.566-3.534-16.626-.467-22.45 30.102-20.036 37.782.618 1.972 2.478 3.309 4.58 3.309H348.24c2.103 0 3.962-1.337 4.581-3.309 2.413-7.682-6.845-38.251-23.471-37.784Z" fill="url(#d)"/>
	<path d="M185.772 72.09a13.341 13.341 0 0 0-1.973 6.696c-.35 15.795-1.431 80.777 4.209 93.55 6.998 15.85 24.986 33.15 47.626 36.326 22.641 3.175 50.335-27.345 53.572-42.007 1.709-7.741 1.518-70.542 1.436-87.258a13.4 13.4 0 0 0-2.645-7.913c-6.371-8.61-24.1-28.547-50.418-26.445-17.902 1.426-36.754 2.57-51.807 27.052Z" fill="url(#e)"/>
	<path d="M287.11 126.509s0-28.572 16.172-12.701c16.172 15.874-16.172 38.097-16.172 38.097v-25.396Z" fill="url(#f)"/>
	<path d="M186.799 126.509s0-28.572-16.172-12.701c-16.172 15.874 16.172 38.097 16.172 38.097v-25.396Z" fill="url(#g)"/>
	<path d="M180.339 101.541c.039.983 13.849-9.405 37.679-13.736 29.065-5.283 39.204-20.942 45.752-20.942 3.229 0 8.073 1.965 7.534 15.725-.538 13.76 14.533 29.974 26.375 14.25 11.843-15.726-10.227-56.511-60.823-55.529-50.596.983-58.132 19.937-56.517 60.232Z" fill="url(#h)"/>
	<path d="M190.451 124.095c2.658-1.132 4.667-3.745 7.416-4.867 3.261-1.333 6.704-1.323 9.967-.281 5.662 1.809 11.57 6.292 17.647 3.445.214-.099.162-.528-.076-.517-7.822.36-13.637-6.175-21.23-6.702-2.868-.199-6.265-.248-8.921 1.066-2.361 1.167-7.651 4.857-7.651 4.857s2.262 3.249 2.848 2.999Z" fill="url(#i)"/>
	<path d="M283.72 124.095c-2.658-1.132-4.667-3.745-7.416-4.867-3.261-1.333-6.704-1.323-9.967-.281-5.662 1.809-11.57 6.292-17.647 3.445-.214-.099-.162-.528.076-.517 7.822.36 13.637-6.175 21.23-6.702 2.868-.199 6.265-.248 8.921 1.066 2.361 1.167 7.651 4.857 7.651 4.857s-2.26 3.249-2.848 2.999Z" fill="url(#j)"/>
	<path d="M248.156 102.078c0 1.395 1.39 2.388 2.738 1.949 6.539-2.134 23.475-6.443 36.271.978 0 0-7.152-16.145-37.67-4.842a2.045 2.045 0 0 0-1.339 1.915Z" fill="url(#k)"/>
	<path d="M226.195 102.078c0 1.395-1.391 2.388-2.738 1.949-6.54-2.134-23.475-6.443-36.271.978 0 0 7.151-16.145 37.67-4.842a2.048 2.048 0 0 1 1.339 1.915Z" fill="url(#l)"/>
	<path d="M264.055 168.98s-9.89-4.502-16.691-3.94c-6.799.563-8.964 2.25-8.964 2.25s-2.162-1.687-8.964-2.25c-6.799-.562-16.691 3.94-16.691 3.94 5.16 12.808 17.31 17.444 25.655 17.323 8.346.121 20.495-4.513 25.655-17.323Z" fill="url(#m)"/>
	<path d="M257.606 172.074s-8.598 5.908-19.203 5.908c-10.606 0-19.204-5.908-19.204-5.908s8.598-1.407 19.204-1.407c10.605 0 19.203 1.407 19.203 1.407Z" fill="#fff"/>
	<path d="M162.318 182.754a9.83 9.83 0 0 1-2.018-.208.421.421 0 0 1-.33-.499.43.43 0 0 1 .508-.325c4.381.913 10.449-1.889 12.614-8 1.598-4.511.958-10.151-1.801-15.882-1.588-3.299-3.694-6.404-5.731-9.406-1.056-1.556-2.148-3.165-3.158-4.789-4.911-7.884-7.64-15.689-8.114-23.203-.558-8.843 2.182-17.266 7.518-23.108 6.092-6.672 15.062-9.762 23.031-11.904 5.785-1.556 11.745-2.823 17.508-4.05 7.172-1.526 14.587-3.104 21.711-5.248 15.32-4.608 26.424-11.131 33.95-19.936a.437.437 0 0 1 .606-.053.419.419 0 0 1 .054.594c-7.636 8.935-18.875 15.543-34.357 20.2-7.158 2.154-14.591 3.736-21.78 5.264-5.752 1.225-11.699 2.49-17.463 4.04-7.848 2.11-16.673 5.145-22.618 11.656-5.184 5.676-7.844 13.874-7.299 22.494.465 7.374 3.153 15.05 7.991 22.815 1.003 1.609 2.089 3.211 3.14 4.761 2.052 3.027 4.176 6.158 5.791 9.514 2.857 5.931 3.508 11.798 1.836 16.519-1.606 4.526-6.297 8.754-11.589 8.754ZM158.27 88.378c-.009 0-.016 0-.024-.002a.214.214 0 0 1-.191-.233c.52-4.517 3.409-8.873 7.933-11.951 4.383-2.985 9.656-4.411 13.758-5.322 7.6-1.685 15.48-2.496 23.101-3.28 1.938-.199 3.876-.399 5.811-.61 9.345-1.03 19.254-2.463 28.397-5.947 6.994-2.666 16.607-7.786 22.684-17.039a.218.218 0 0 1 .296-.063.21.21 0 0 1 .065.29c-6.14 9.349-15.835 14.516-22.887 17.203-9.189 3.503-19.13 4.94-28.503 5.971-1.936.213-3.873.412-5.813.612-7.608.78-15.478 1.59-23.051 3.27-4.066.903-9.284 2.314-13.609 5.257-4.421 3.007-7.245 7.255-7.749 11.651a.223.223 0 0 1-.218.193ZM315.101 253.054a.43.43 0 0 1-.409-.29.42.42 0 0 1 .275-.531c2.93-.936 4.416-4.243 4.371-7.026-.05-3.11-1.545-6.063-2.939-8.587l-.474-.853c-1.373-2.46-2.794-5.005-3.339-7.814-1.629-8.395 4.937-15.519 7.837-18.194 2.379-2.194 5.037-4.135 7.608-6.011 2.848-2.078 5.796-4.229 8.339-6.714 5.668-5.541 8.103-12.159 6.51-17.708-1.514-5.271-6.019-8.597-10.787-12.118-2.208-1.631-4.492-3.316-6.434-5.205-5.725-5.568-9.176-13.949-9.472-22.998-.249-7.584 1.509-15.602 5.376-24.513a.432.432 0 0 1 .562-.223c.219.091.32.34.227.552-3.817 8.797-5.553 16.697-5.309 24.157.29 8.834 3.648 17.009 9.219 22.426 1.901 1.849 4.161 3.517 6.345 5.131 4.674 3.451 9.507 7.019 11.099 12.564 1.678 5.848-.837 12.777-6.73 18.533-2.589 2.529-5.56 4.698-8.432 6.795-2.552 1.862-5.191 3.787-7.533 5.948-2.796 2.579-9.13 9.438-7.58 17.421.52 2.679 1.908 5.165 3.249 7.568l.475.855c1.445 2.613 2.989 5.676 3.043 8.975.05 3.093-1.639 6.778-4.965 7.839a.405.405 0 0 1-.132.021Z" fill="#7D97F4"/>
	<path d="M180.35 81.19c-1.54 0-2.79-1.226-2.79-2.737V61.522c0-4.72 3.91-8.56 8.717-8.56h11.938c1.54 0 2.79 1.228 2.79 2.74 0 1.51-1.25 2.738-2.79 2.738h-11.938c-1.73 0-3.137 1.381-3.137 3.08v16.93c0 1.514-1.25 2.74-2.79 2.74Z" fill="url(#n)"/>
	<path d="M296.077 81.19c-1.54 0-2.79-1.226-2.79-2.738v-16.93c0-1.698-1.408-3.08-3.138-3.08h-11.937c-1.54 0-2.79-1.227-2.79-2.739 0-1.511 1.25-2.738 2.79-2.738h11.937c4.807 0 8.717 3.84 8.717 8.559v16.93c0 1.51-1.247 2.737-2.789 2.737Z" fill="url(#o)"/>
	<path d="M198.215 215.164h-11.938c-4.807 0-8.717-3.838-8.717-8.557v-16.931c0-1.511 1.25-2.738 2.79-2.738 1.542 0 2.79 1.227 2.79 2.738v16.931c0 1.698 1.407 3.08 3.137 3.08h11.938c1.54 0 2.79 1.227 2.79 2.738 0 1.514-1.25 2.739-2.79 2.739Z" fill="url(#p)"/>
	<path d="M290.149 215.164h-11.937c-1.54 0-2.79-1.227-2.79-2.739 0-1.511 1.25-2.738 2.79-2.738h11.937c1.73 0 3.138-1.382 3.138-3.08v-16.931c0-1.511 1.25-2.738 2.79-2.738 1.539 0 2.789 1.227 2.789 2.738v16.931c0 4.719-3.91 8.557-8.717 8.557Z" fill="url(#q)"/>
	<path d="M287.277 206.667h-98.292c-1.616 0-2.93-1.291-2.93-2.877V63.916c0-1.585 1.314-2.876 2.93-2.876h98.292c1.615 0 2.93 1.29 2.93 2.876V203.79c0 1.586-1.312 2.877-2.93 2.877Zm-98.29-144.784c-1.142 0-2.072.912-2.072 2.033V203.79c0 1.121.93 2.034 2.072 2.034h98.292c1.142 0 2.072-.913 2.072-2.034V63.916c0-1.12-.93-2.033-2.072-2.033h-98.292Z" fill="url(#r)"/>
	<path d="M273.608 170.574a3.327 3.327 0 0 0 0-4.767 3.48 3.48 0 0 0-4.856 0 3.327 3.327 0 0 0 0 4.767 3.48 3.48 0 0 0 4.856 0Z" fill="#91B3FA"/>
	<path d="M271.183 168.611a.427.427 0 0 1-.348-.177.416.416 0 0 1 .099-.588l36.483-25.699a.44.44 0 0 1 .251-.079h123.186c.238 0 .428.189.428.42a.424.424 0 0 1-.428.421H307.807l-36.371 25.621a.441.441 0 0 1-.253.081ZM192.986 131.447c1.846-.425 2.992-2.239 2.56-4.051-.433-1.813-2.281-2.938-4.128-2.513-1.846.425-2.992 2.239-2.559 4.051.432 1.813 2.28 2.937 4.127 2.513Z" fill="#91B3FA"/>
	<path d="M192.205 128.587a.446.446 0 0 1-.251-.079l-36.37-25.621H32.537a.424.424 0 0 1-.428-.42c0-.234.192-.42.428-.42h123.185a.44.44 0 0 1 .251.078l36.483 25.7a.418.418 0 0 1 .1.588.442.442 0 0 1-.351.174Z" fill="#91B3FA"/>
	<path d="M458.334 115.146h-77.689a.424.424 0 0 1-.428-.42V67.538c0-.234.192-.42.428-.42h77.689c.238 0 .428.188.428.42v47.185a.426.426 0 0 1-.428.423Zm-77.261-.843h76.83V67.96h-76.83v46.343Z" fill="#fff"/>
	<path d="M419.883 104.403c-.115 0-.227 0-.34-.002-9.766.125-21.896-5.458-27.052-18.256a1.467 1.467 0 0 1 .766-1.88c.419-.192 10.333-4.658 17.448-4.072 4.878.404 7.562 1.382 8.836 2.013 1.276-.63 3.958-1.61 8.836-2.013 7.113-.586 17.031 3.88 17.448 4.072a1.466 1.466 0 0 1 .766 1.88c-5.093 12.65-17.013 18.258-26.708 18.258Zm-.34-2.951h.022c6.282.083 18.096-3.025 23.665-15.073-2.855-1.155-9.695-3.651-14.597-3.244-6.088.503-8.16 1.94-8.179 1.955-.567.442-1.298.446-1.845-.019-.002 0-2.076-1.433-8.155-1.936-4.907-.407-11.745 2.089-14.598 3.244 5.569 12.048 17.37 15.164 23.666 15.073h.021Z" fill="#fff"/>
	<path d="M438.747 88.699s-8.598 5.908-19.204 5.908c-10.605 0-19.204-5.908-19.204-5.908s8.599-1.407 19.204-1.407c10.606 0 19.204 1.407 19.204 1.407Z" fill="#fff"/>
	<path d="M376.461 150.376c-.008 1.18-.99 2.133-2.193 2.125-1.202-.009-2.173-.972-2.164-2.152.008-1.181.99-2.133 2.192-2.125 1.205.006 2.174.97 2.165 2.152Z" fill="url(#s)"/>
	<path d="M376.389 150.376c-.009 1.142-.959 2.061-2.12 2.055-1.163-.009-2.1-.938-2.093-2.08.008-1.142.958-2.061 2.119-2.054 1.166.006 2.102.938 2.094 2.079Z" fill="url(#t)"/>
	<path d="M376.462 163.342c-.008 1.18-.99 2.133-2.193 2.124-1.202-.008-2.173-.972-2.164-2.152.008-1.18.99-2.133 2.193-2.124 1.204.006 2.173.969 2.164 2.152Z" fill="url(#u)"/>
	<path d="M376.389 163.342c-.009 1.142-.958 2.061-2.12 2.054-1.163-.008-2.1-.938-2.093-2.08.008-1.142.958-2.06 2.119-2.054 1.166.006 2.102.938 2.094 2.08Z" fill="url(#v)"/>
	<path d="M374.283 178.432c1.203 0 2.179-.958 2.179-2.14 0-1.181-.976-2.139-2.179-2.139-1.204 0-2.18.958-2.18 2.139 0 1.182.976 2.14 2.18 2.14Z" fill="url(#w)"/>
	<path d="M376.389 176.306c-.009 1.141-.958 2.06-2.12 2.054-1.163-.008-2.1-.938-2.093-2.08.008-1.142.958-2.061 2.119-2.054 1.166.008 2.102.94 2.094 2.08Z" fill="url(#x)"/>
	<path d="m379.814 150.265.011.365c.028.987.655 1.768 1.421 1.772l58.36.087c.791.004 1.436-.821 1.433-1.84-.002-1-.623-1.812-1.399-1.834l-58.371-.45c-.819-.023-1.483.847-1.455 1.9Z" fill="url(#y)"/>
	<path d="m379.814 163.168.011.365c.028.987.655 1.768 1.421 1.772l58.36.087c.791.004 1.436-.821 1.433-1.84-.002-1-.623-1.813-1.399-1.834l-58.371-.452c-.819-.023-1.483.847-1.455 1.902Z" fill="url(#z)"/>
	<path d="m379.814 176.069.011.365c.028.987.655 1.768 1.421 1.773l58.36.087c.791.004 1.436-.822 1.433-1.841-.002-.999-.623-1.812-1.399-1.833l-58.371-.452c-.819-.021-1.483.847-1.455 1.901Z" fill="url(#A)"/>
	<path d="M88.388 112.475c.008 1.18.99 2.133 2.193 2.124 1.202-.008 2.173-.972 2.165-2.152-.01-1.18-.99-2.132-2.193-2.124-1.205.006-2.174.97-2.165 2.152Z" fill="url(#B)"/>
	<path d="M88.459 112.474c.008 1.142.958 2.061 2.119 2.055 1.163-.009 2.1-.938 2.093-2.08-.008-1.142-.958-2.061-2.12-2.054-1.163.006-2.099.938-2.093 2.079Z" fill="#91B3FA"/>
	<path d="M88.388 125.44c.008 1.18.99 2.133 2.193 2.125 1.202-.009 2.173-.972 2.165-2.152-.01-1.18-.99-2.133-2.193-2.124-1.205.006-2.174.969-2.165 2.151Z" fill="url(#C)"/>
	<path d="M88.459 125.439c.008 1.142.958 2.061 2.119 2.055 1.163-.009 2.1-.938 2.093-2.08-.008-1.142-.958-2.061-2.12-2.054-1.163.008-2.099.94-2.093 2.079Z" fill="#91B3FA"/>
	<path d="M88.388 138.406c.008 1.18.99 2.133 2.193 2.125 1.202-.009 2.173-.972 2.165-2.152-.01-1.18-.99-2.133-2.193-2.125-1.205.007-2.174.97-2.165 2.152Z" fill="url(#D)"/>
	<path d="M88.459 138.403c.008 1.142.958 2.061 2.119 2.055 1.163-.009 2.1-.938 2.093-2.08-.008-1.142-.958-2.061-2.12-2.054-1.163.006-2.099.938-2.093 2.079ZM85.036 112.363l-.011.365c-.028.987-.655 1.768-1.421 1.772l-58.36.087c-.791.005-1.436-.821-1.433-1.84.002-.999.622-1.812 1.399-1.833l58.37-.45c.82-.024 1.484.847 1.456 1.899ZM85.036 125.264l-.011.366c-.028.986-.655 1.767-1.421 1.772l-58.36.087c-.791.004-1.436-.822-1.433-1.84.002-1 .622-1.813 1.399-1.834l58.37-.452c.82-.021 1.484.849 1.456 1.901ZM85.036 138.169l-.011.365c-.028.986-.655 1.767-1.421 1.772l-58.36.087c-.791.004-1.436-.822-1.433-1.84.002-1 .622-1.813 1.399-1.834l58.37-.452c.82-.023 1.484.847 1.456 1.902Z" fill="#91B3FA"/>
	<path d="M125.148 96.343h-77.69a.424.424 0 0 1-.428-.42V48.733c0-.233.193-.42.428-.42h77.69c.237 0 .428.19.428.42V95.92a.426.426 0 0 1-.428.423ZM47.887 95.5h76.83V49.157h-76.83V95.5Z" fill="#fff"/>
	<path d="M84.443 89.32c-15.683 0-28.092-14.032-28.611-14.629a1.456 1.456 0 0 1 0-1.917c.521-.596 12.928-14.63 28.611-14.63s28.092 14.034 28.611 14.63c.48.552.48 1.365 0 1.917-.521.597-12.928 14.63-28.61 14.63ZM59.015 73.735a51.984 51.984 0 0 0 6.942 5.903c4.343 3.072 11.075 6.736 18.486 6.736 7.411 0 14.143-3.664 18.486-6.736a51.997 51.997 0 0 0 6.942-5.903 52.005 52.005 0 0 0-6.942-5.903c-4.343-3.072-11.075-6.736-18.486-6.736-7.411 0-14.143 3.662-18.486 6.736a51.807 51.807 0 0 0-6.942 5.903Z" fill="#fff"/>
	<path d="M84.443 86.372c-7.1 0-12.876-5.67-12.876-12.639 0-6.969 5.776-12.638 12.876-12.638s12.876 5.67 12.876 12.638c0 6.97-5.776 12.639-12.876 12.639Zm0-22.329c-5.443 0-9.872 4.347-9.872 9.69 0 5.343 4.429 9.69 9.872 9.69s9.872-4.347 9.872-9.69c0-5.345-4.429-9.69-9.872-9.69Z" fill="#fff"/>
	<path d="M84.443 79.841c3.437 0 6.224-2.735 6.224-6.11 0-3.373-2.787-6.108-6.224-6.108-3.437 0-6.224 2.735-6.224 6.109s2.787 6.11 6.224 6.11Z" fill="#fff"/>
	<path d="M78.464 203.158s-3.863 5.056-8.417 6.438c-2.167.658-6.023 2.388-6.549 6.546-.27 2.149-1.89 3.868-4.07 4.195-5.428.817-13.79 3.583-15.13 12.832-1.02 7.06 2.646 9.737 6.495 10.664 2.827.682 4.704 3.38 4.133 6.18-.55 2.687.27 5.792 5.01 8.246 10.625 5.502 21.237-13.037 21.237-13.037l2.174-32.374-4.883-9.69Z" fill="url(#E)"/>
	<path d="M102.78 196.843s-6.265 16.767-16.942 22.006c0 0 3.553 5.691 5.409 6.037 0 0 11.405-14.328 12.569-26.067l-1.036-1.976Z" fill="url(#F)"/>
	<path d="m59.841 297.697-.315 2.542c-.06.482-.448.864-.939.919-.83.094-2.163.189-3.467.053a.9.9 0 0 1-.77-1.167c.319-.98.9-2.455 1.74-3.321h2.873c.53 0 .943.456.878.974Z" fill="url(#G)"/>
	<path d="m82.35 267.911.484 2.8s-1.624 16.149-1.913 22.609a4.992 4.992 0 0 0 .763 2.876l2.824 4.502-7.177-4.158-.143-.86 1.174-1.585-1.54-18.092a5.442 5.442 0 0 1 .645-3.07l1.486-2.738 3.397-2.284Z" fill="url(#H)"/>
	<path d="M84.982 301.35h-2.29a1.39 1.39 0 0 1-1.095-.526c-.713-.911-2.192-2.688-2.9-2.734-.951-.062-.83 3.26-.83 3.26h-.534l-.677-4.129a2.432 2.432 0 0 1 1.306-2.555s.218 1.579 1.4 2.279c1.18.699 4.802 3.204 4.802 3.204s.444-.062.93.023c.723.127.621 1.178-.112 1.178Z" fill="url(#I)"/>
	<path d="M72.519 269.24s-9.516 17.716-11.027 21.762c-1.512 4.046-2.042 7.419-2.063 7.74-.033.498-.664.978-2.41.978-.899 0-1.34-.354-1.556-.696a.98.98 0 0 1-.04-.966c.552-1.093 2.297-4.587 2.944-6.173.772-1.891 2.433-10.467 3.345-13.449.91-2.983 1.942-6.216 5.909-9.196.002 0 2.725-2.617 4.898 0Z" fill="url(#J)"/>
	<path d="M78.528 240.21c2.455-10.208-3.762-15.984-3.762-15.984 3.923-3.696 11.072-5.379 11.072-5.379s6.82 4.895 6.012 8.726c-.474 2.246-4.794 13.452-4.794 13.452s-3.997 1.857-8.528-.815Z" fill="#FF64AE"/>
	<path d="M73.088 245.266c.999-2.955 5.44-5.054 5.44-5.054 4.531 2.67 8.526.815 8.526.815s.895 3.363.276 6.485c-.618 3.125-4.498 23.199-4.498 23.199-6.113 1.216-15.514-1.223-15.514-1.223 3.895-6.786 4.77-21.269 5.77-24.222Z" fill="url(#K)"/>
	<path d="m81.38 212.103-1.997 8.798c-.19.775.528.648 1.328.501 1.306-.242 2.993-.741 3.555-1.738a.9.9 0 0 0 .102-.331l.856-6.101a1.098 1.098 0 0 0-.653-1.153l-1.654-.719c-.638-.28-1.376.078-1.538.743Z" fill="url(#L)"/>
	<path d="M74.766 224.228s-13.93 9.781-1.782 20.059c0 0 .463.514 1.375.782.46.135 1.821 1.146 2.51 1.672.224.17.544.113.693-.121a.626.626 0 0 0 .037-.607l-1.724-3.579a1.35 1.35 0 0 0-1.728-.074.663.663 0 0 1-.995-.221c-.938-1.876-2.712-7.397 4.546-13.636a.763.763 0 0 0 .175-.938c-.512-.964-1.68-2.872-3.107-3.337Z" fill="url(#M)"/>
	<path d="M83.719 203.724s2.364.978 3.97 4.332c1.607 3.352.407 4.9-1.1 5.114-1.508.212-3.761.18-6.147-1.985-2.383-2.167.206-8.622 3.277-7.461Z" fill="url(#N)"/>
	<path d="M82.047 209.394s-1.784-4.903 2.647-4.963l1.043.716s1.626-2.719-1.043-4.019c-2.669-1.297-5.79-.225-6.925 3.303-1.135 3.528-1.33 5.891.56 7.578 1.889 1.688 2.667-.225 2.667-.225s-1.03-1.579-.61-2.424c.42-.844 1.384.174 1.384.174l.277-.14Z" fill="url(#O)"/>
	<path d="M81.55 209.939s-.902-2.525-2.105-1.519c-1.202 1.006.978 2.332 1.832 2.763l.272-1.244Z" fill="url(#P)"/>
	<path d="M103.381 199.893c.095.3-1.012.754-1.663-.467-.024-.584-.385-3.09-.028-3.566 1.897-2.537 5.571-5.717 5.571-5.717.62.601.11 1.193.11 1.193l-1.784 1.824c.372.662.828 1.22 1.04 2.021a2.407 2.407 0 0 1-.249 1.804c-.313.554-.739 1.274-1.144 1.836-.763 1.066-1.853 1.072-1.853 1.072Z" fill="url(#Q)"/>
	<path d="m104.333 198.654-.422-.075c.05-.278.506-2.727.878-3.321.134-.214.188-.39.156-.507a.31.31 0 0 0-.115-.151l-1.464 1.218-.491 1.295-.402-.147.53-1.398 1.777-1.479.128.063c.244.123.393.283.45.484.069.24.002.514-.204.841-.281.447-.689 2.444-.821 3.177Z" fill="url(#R)"/>
	<path opacity=".71" d="M52.073 239.235c-1.885 0-3.82-1.307-4.537-3.215-.752-2.009-.264-4.469 1.276-6.422 1.237-1.568 3.136-2.851 5.642-3.81 1.387-.531 2.844-.934 4.254-1.322.772-.213 1.57-.433 2.347-.671 1.836-.565 3.862-1.365 4.98-3.025.686-1.021.947-2.259 1.198-3.456.056-.269.115-.539.175-.804.284-1.234.824-2.974 2.243-3.853.642-.399 1.397-.573 2.126-.741.236-.055.48-.11.716-.174 1.215-.325 2.002-.86 2.342-1.586a.053.053 0 0 1 .071-.025.05.05 0 0 1 .026.07c-.353.756-1.163 1.31-2.411 1.643-.238.064-.483.121-.718.174-.72.168-1.466.34-2.094.728-1.384.858-1.916 2.573-2.195 3.787-.06.265-.117.535-.175.804-.253 1.208-.517 2.454-1.215 3.492-1.136 1.69-3.184 2.499-5.037 3.068-.778.24-1.576.46-2.35.673-1.409.388-2.862.789-4.244 1.318-2.489.953-4.37 2.224-5.596 3.778-1.519 1.926-2 4.348-1.261 6.322.824 2.197 3.298 3.581 5.4 3.022a.052.052 0 0 1 .065.037.05.05 0 0 1-.037.063 3.881 3.881 0 0 1-.99.125Z" fill="#fff"/>
	<path opacity=".71" d="M51.626 237.421h-.009c-.913-.145-1.72-.932-1.961-1.911-.212-.855-.037-1.83.493-2.742 1.074-1.858 3.3-3.085 6.608-3.645.602-.102 1.22-.187 1.82-.27 1.95-.267 3.965-.545 5.715-1.454 1.877-.976 3.348-2.668 4.035-4.64.342-.978.496-2.025.645-3.038.089-.594.177-1.209.305-1.808.432-2.021 1.282-3.422 2.526-4.167a.055.055 0 0 1 .073.017.053.053 0 0 1-.017.072c-1.218.728-2.05 2.108-2.478 4.099a27.768 27.768 0 0 0-.305 1.8c-.15 1.017-.305 2.068-.651 3.057-.697 1.997-2.187 3.708-4.088 4.697-1.764.92-3.79 1.198-5.75 1.467-.597.083-1.215.168-1.817.27-3.276.556-5.475 1.764-6.535 3.594-.515.889-.685 1.836-.482 2.666.231.94 1.001 1.694 1.873 1.832.03.004.05.031.045.059.002.026-.02.045-.045.045Z" fill="#fff"/>
	<path d="M374.196 220.432s-10.785 11.796-3.863 11.796h6.01l-2.147-11.796Z" fill="#FF64AE"/>
	<path d="M379.187 295.328s.366 2.033.545 4.048c.069.787-.547 1.471-1.351 1.503-2.732.112-8.575.329-10.673.238a.452.452 0 0 1-.404-.618c.097-.242.285-.435.525-.544l9.652-4.353 1.706-.274Z" fill="url(#S)"/>
	<path d="m379.488 294.133-.294 2.432s-1.691.772-2.846-.098l.7-2.71 2.44.376Z" fill="url(#T)"/>
	<path d="M379.267 248.395c.128.635.681 31.705-2.701 45.628a.471.471 0 0 0 .284.55c.519.208 1.535.509 2.755.549a.826.826 0 0 0 .821-.583c.967-3.231 5.601-19.417 6.207-34.879.675-17.277 0-.588 0-.588l-.396-10.679-6.97.002Z" fill="url(#U)"/>
	<path d="M390.29 296.389s.582 1.028 1.146 3.755a.847.847 0 0 1-.759 1.012c-.901.087-2.29.2-3.404.191-.512-.004-.912-.441-.852-.94.124-.995.506-2.63 1.694-3.903l2.175-.115Z" fill="url(#V)"/>
	<path d="m390.803 293.26-.688 3.678s-.679.497-2.024.136l.329-3.958 2.383.144Z" fill="url(#W)"/>
	<path d="M392.658 249.348c2.768 16.392-.601 40.516-1.737 45.237a.743.743 0 0 1-.605.558c-.506.083-1.341.151-2.165-.085a.679.679 0 0 1-.495-.622c-.151-3.816.121-27.251-2.457-36.512a2.103 2.103 0 0 0-.826-1.161l-5.004-3.492-.383-5.645 13.672 1.722Z" fill="url(#X)"/>
	<path d="M374.196 220.432c8.155-2.528 18.274-.006 18.274-.006 2.472 14.159.432 30.489.432 30.489-6.42 1.653-13.663-1.011-13.663-1.011-1.068-5.92-7.482-28.716-5.043-29.472Z" fill="#FF64AE"/>
	<path d="m389.289 228.305 3.181-7.881s7.747 5.166 9.02 11.715c-1.464.106-4.126.48-6.734 1.772-.573-3.092-5.467-5.606-5.467-5.606Z" fill="#FF64AE"/>
	<path d="M382.518 235.722s8.698 4.825 11.63.705c.61-.855.755-1.704.606-2.515 2.606-1.293 5.27-1.667 6.734-1.773.385 1.974.182 4.076-1.001 6.199-5.141 9.229-19.12-.51-19.12-.51l1.151-2.106Z" fill="url(#Y)"/>
	<path d="m383.564 241.825-4.746-16.271a.484.484 0 0 0-.409-.341c-.861-.098-3.352-.376-6.228-.614-3.467-.289-7.489-.52-9.896-.323a.475.475 0 0 0-.396.686c1.367 2.715 6.994 13.764 9.809 17.383a.497.497 0 0 0 .392.189l11.012-.1a.48.48 0 0 0 .462-.609Z" fill="url(#Z)"/>
	<path d="m371.688 223.19-3.441-.563a.243.243 0 0 0-.275.314l.342 1.013c.03.089.108.152.201.163l3.311.435a.242.242 0 0 0 .272-.295l-.211-.885a.247.247 0 0 0-.199-.182Z" fill="#7D97F4"/>
	<path d="m374.263 226.048-.283-1.45a.336.336 0 0 0-.301-.269l-6.95-.692a.337.337 0 0 0-.366.412l.441 1.806a.342.342 0 0 0 .316.256l6.793.336a.336.336 0 0 0 .35-.399Z" fill="#7D97F4"/>
	<path d="M382.416 237.895s.662-2.668.394-3.614c-.266-.947-.783-2.163-2.507-1.894-1.721.27-3.754.983-3.754.983s.101 1.233 1.412.836l-.811.616s.117.987 1.222.461l-.755.817s.476.811 1.289.291c.813-.523 1.202 1.825 3.51 1.504Z" fill="url(#aa)"/>
	<path d="M366.413 234.656s-2.636-.924-3.296-1.662c-.659-.739-1.412-1.83-.236-3.095 1.177-1.265 2.898-2.541 2.898-2.541s.995.762-.062 1.617l.971-.327s.776.637-.279 1.255l1.111-.17s.431.834-.46 1.216c-.891.38.893 1.989-.647 3.707Z" fill="url(#ab)"/>
	<path d="m383.854 213.268 2.638 7.491a.268.268 0 0 1-.125.325c-.72.39-3.311 1.518-6.434-.425a1.272 1.272 0 0 1-.597-.908l-.854-6.483h5.372Z" fill="url(#ac)"/>
	<path d="M378.112 206.332s-2.898 5.354-2.526 7.517c.372 2.163 3.962 2.008 7.098.25l2.191-5.78-6.763-1.987Z" fill="url(#ad)"/>
	<path d="M382.546 211.262a.217.217 0 0 1-.097-.323c.231-.348.668-1.059.806-1.679 0 0 .521-.327-1.325-.762-1.847-.433-4.6-1.108-5.18-2.649-.564-1.505.919-5.288 3.285-2.273a.23.23 0 0 0 .357.002c.387-.495 1.408-1.524 2.822-.9 1.326.584 1.475 1.537 1.456 2.016a.221.221 0 0 0 .263.225c.671-.125 2.278-.233 3.028 1.386.618 1.334.216 2.087-.149 2.456a.219.219 0 0 0 .095.366c.441.131 1.008.498.951 1.511-.077 1.399-1.671 1.276-2.125 1.212a.223.223 0 0 0-.199.07c-.39.422-2.143 2.218-4.04 2.435a.224.224 0 0 1-.238-.295l.822-2.344a.219.219 0 0 0-.121-.274l-.411-.18Z" fill="url(#ae)"/>
	<path d="M382.217 211.593s2.063-1.39 2.214-.218c.151 1.169-1.857 1.693-2.852 1.258l.638-1.04Z" fill="url(#af)"/>
	<defs>
		<linearGradient id="a" x1="174.759" y1="-42.047" x2="318.161" y2="372.041" gradientUnits="userSpaceOnUse">
			<stop stop-color="#DAE3FE"/>
			<stop offset="1" stop-color="#E9EFFD"/>
		</linearGradient>
		<linearGradient id="b" x1="286.252" y1="-20.698" x2="206.787" y2="332.157" gradientUnits="userSpaceOnUse">
			<stop stop-color="#09005D"/>
			<stop offset="1" stop-color="#1A0F91"/>
		</linearGradient>
		<linearGradient id="c" x1="239.07" y1="143.966" x2="238.445" y2="302.548" gradientUnits="userSpaceOnUse">
			<stop stop-color="#FF928E"/>
			<stop offset="1" stop-color="#FEB3B1"/>
		</linearGradient>
		<linearGradient id="d" x1="237.342" y1="278.404" x2="243.133" y2="376.159" gradientUnits="userSpaceOnUse">
			<stop stop-color="#4042E2"/>
			<stop offset="1" stop-color="#4F52FF"/>
		</linearGradient>
		<linearGradient id="e" x1="233.104" y1="14.201" x2="240.606" y2="189.354" gradientUnits="userSpaceOnUse">
			<stop stop-color="#FF928E"/>
			<stop offset="1" stop-color="#FEB3B1"/>
		</linearGradient>
		<linearGradient id="f" x1="291.856" y1="11.685" x2="299.358" y2="186.838" gradientUnits="userSpaceOnUse">
			<stop stop-color="#FF928E"/>
			<stop offset="1" stop-color="#FEB3B1"/>
		</linearGradient>
		<linearGradient id="g" x1="182.994" y1="-9.499" x2="175.491" y2="165.654" gradientUnits="userSpaceOnUse">
			<stop stop-color="#FF928E"/>
			<stop offset="1" stop-color="#FEB3B1"/>
		</linearGradient>
		<linearGradient id="h" x1="264.648" y1="-18.934" x2="198.77" y2="273.593" gradientUnits="userSpaceOnUse">
			<stop stop-color="#09005D"/>
			<stop offset="1" stop-color="#1A0F91"/>
		</linearGradient>
		<linearGradient id="i" x1="206.611" y1="30.555" x2="206.611" y2="77.046" gradientUnits="userSpaceOnUse">
			<stop stop-color="#09005D"/>
			<stop offset="1" stop-color="#1A0F91"/>
		</linearGradient>
		<linearGradient id="j" x1="297.273" y1="29.723" x2="284.729" y2="69.981" gradientUnits="userSpaceOnUse">
			<stop stop-color="#09005D"/>
			<stop offset="1" stop-color="#1A0F91"/>
		</linearGradient>
		<linearGradient id="k" x1="256.963" y1="23.929" x2="262.279" y2="65.027" gradientUnits="userSpaceOnUse">
			<stop stop-color="#09005D"/>
			<stop offset="1" stop-color="#1A0F91"/>
		</linearGradient>
		<linearGradient id="l" x1="225.786" y1="-38.629" x2="220.47" y2="2.468" gradientUnits="userSpaceOnUse">
			<stop stop-color="#09005D"/>
			<stop offset="1" stop-color="#1A0F91"/>
		</linearGradient>
		<linearGradient id="m" x1="213.47" y1="177.327" x2="264.395" y2="172.913" gradientUnits="userSpaceOnUse">
			<stop stop-color="#E1473D"/>
			<stop offset="1" stop-color="#E9605A"/>
		</linearGradient>
		<linearGradient id="n" x1="177.559" y1="67.076" x2="201.005" y2="67.076" gradientUnits="userSpaceOnUse">
			<stop stop-color="#DAE3FE"/>
			<stop offset="1" stop-color="#E9EFFD"/>
		</linearGradient>
		<linearGradient id="o" x1="275.421" y1="67.076" x2="298.867" y2="67.076" gradientUnits="userSpaceOnUse">
			<stop stop-color="#DAE3FE"/>
			<stop offset="1" stop-color="#E9EFFD"/>
		</linearGradient>
		<linearGradient id="p" x1="177.559" y1="201.051" x2="201.005" y2="201.051" gradientUnits="userSpaceOnUse">
			<stop stop-color="#DAE3FE"/>
			<stop offset="1" stop-color="#E9EFFD"/>
		</linearGradient>
		<linearGradient id="q" x1="275.421" y1="201.051" x2="298.867" y2="201.051" gradientUnits="userSpaceOnUse">
			<stop stop-color="#DAE3FE"/>
			<stop offset="1" stop-color="#E9EFFD"/>
		</linearGradient>
		<linearGradient id="r" x1="186.057" y1="133.853" x2="290.208" y2="133.853" gradientUnits="userSpaceOnUse">
			<stop stop-color="#DAE3FE"/>
			<stop offset="1" stop-color="#E9EFFD"/>
		</linearGradient>
		<linearGradient id="s" x1="377.85" y1="146.999" x2="371.268" y2="153.44" gradientUnits="userSpaceOnUse">
			<stop stop-color="#53D8FF"/>
			<stop offset="1" stop-color="#3840F7"/>
		</linearGradient>
		<linearGradient id="t" x1="372.177" y1="150.362" x2="376.39" y2="150.362" gradientUnits="userSpaceOnUse">
			<stop stop-color="#DAE3FE"/>
			<stop offset="1" stop-color="#E9EFFD"/>
		</linearGradient>
		<linearGradient id="u" x1="377.851" y1="159.964" x2="371.269" y2="166.405" gradientUnits="userSpaceOnUse">
			<stop stop-color="#53D8FF"/>
			<stop offset="1" stop-color="#3840F7"/>
		</linearGradient>
		<linearGradient id="v" x1="372.177" y1="163.327" x2="376.39" y2="163.327" gradientUnits="userSpaceOnUse">
			<stop stop-color="#DAE3FE"/>
			<stop offset="1" stop-color="#E9EFFD"/>
		</linearGradient>
		<linearGradient id="w" x1="377.851" y1="172.93" x2="371.269" y2="179.371" gradientUnits="userSpaceOnUse">
			<stop stop-color="#53D8FF"/>
			<stop offset="1" stop-color="#3840F7"/>
		</linearGradient>
		<linearGradient id="x" x1="372.177" y1="176.293" x2="376.39" y2="176.293" gradientUnits="userSpaceOnUse">
			<stop stop-color="#DAE3FE"/>
			<stop offset="1" stop-color="#E9EFFD"/>
		</linearGradient>
		<linearGradient id="y" x1="379.813" y1="150.426" x2="441.039" y2="150.426" gradientUnits="userSpaceOnUse">
			<stop stop-color="#DAE3FE"/>
			<stop offset="1" stop-color="#E9EFFD"/>
		</linearGradient>
		<linearGradient id="z" x1="379.813" y1="163.327" x2="441.039" y2="163.327" gradientUnits="userSpaceOnUse">
			<stop stop-color="#DAE3FE"/>
			<stop offset="1" stop-color="#E9EFFD"/>
		</linearGradient>
		<linearGradient id="A" x1="379.813" y1="176.229" x2="441.039" y2="176.229" gradientUnits="userSpaceOnUse">
			<stop stop-color="#DAE3FE"/>
			<stop offset="1" stop-color="#E9EFFD"/>
		</linearGradient>
		<linearGradient id="B" x1="86.999" y1="109.098" x2="93.581" y2="115.539" gradientUnits="userSpaceOnUse">
			<stop stop-color="#53D8FF"/>
			<stop offset="1" stop-color="#3840F7"/>
		</linearGradient>
		<linearGradient id="C" x1="86.999" y1="122.063" x2="93.581" y2="128.504" gradientUnits="userSpaceOnUse">
			<stop stop-color="#53D8FF"/>
			<stop offset="1" stop-color="#3840F7"/>
		</linearGradient>
		<linearGradient id="D" x1="86.999" y1="135.029" x2="93.581" y2="141.47" gradientUnits="userSpaceOnUse">
			<stop stop-color="#53D8FF"/>
			<stop offset="1" stop-color="#3840F7"/>
		</linearGradient>
		<linearGradient id="E" x1="85.425" y1="182.739" x2="71.027" y2="219.534" gradientUnits="userSpaceOnUse">
			<stop stop-color="#09005D"/>
			<stop offset="1" stop-color="#1A0F91"/>
		</linearGradient>
		<linearGradient id="F" x1="97.211" y1="205.307" x2="85.513" y2="232.424" gradientUnits="userSpaceOnUse">
			<stop stop-color="#A22B25"/>
			<stop offset="1" stop-color="#C0423C"/>
		</linearGradient>
		<linearGradient id="G" x1="59.848" y1="299.001" x2="54.308" y2="299.001" gradientUnits="userSpaceOnUse">
			<stop stop-color="#A737D5"/>
			<stop offset="1" stop-color="#EF497A"/>
		</linearGradient>
		<linearGradient id="H" x1="83.258" y1="320.445" x2="75.575" y2="228.96" gradientUnits="userSpaceOnUse">
			<stop stop-color="#A22B25"/>
			<stop offset="1" stop-color="#C0423C"/>
		</linearGradient>
		<linearGradient id="I" x1="85.587" y1="298.008" x2="76.623" y2="298.008" gradientUnits="userSpaceOnUse">
			<stop stop-color="#A737D5"/>
			<stop offset="1" stop-color="#EF497A"/>
		</linearGradient>
		<linearGradient id="J" x1="67.221" y1="321.806" x2="59.536" y2="230.297" gradientUnits="userSpaceOnUse">
			<stop stop-color="#A22B25"/>
			<stop offset="1" stop-color="#C0423C"/>
		</linearGradient>
		<linearGradient id="K" x1="61.102" y1="229.995" x2="80.505" y2="261.624" gradientUnits="userSpaceOnUse">
			<stop stop-color="#4042E2"/>
			<stop offset="1" stop-color="#4F52FF"/>
		</linearGradient>
		<linearGradient id="L" x1="84.133" y1="230.292" x2="82.689" y2="219.531" gradientUnits="userSpaceOnUse">
			<stop stop-color="#A22B25"/>
			<stop offset="1" stop-color="#C0423C"/>
		</linearGradient>
		<linearGradient id="M" x1="71.931" y1="243.888" x2="79.39" y2="212.928" gradientUnits="userSpaceOnUse">
			<stop stop-color="#A22B25"/>
			<stop offset="1" stop-color="#C0423C"/>
		</linearGradient>
		<linearGradient id="N" x1="87.912" y1="216.427" x2="75.212" y2="193.399" gradientUnits="userSpaceOnUse">
			<stop stop-color="#A22B25"/>
			<stop offset="1" stop-color="#C0423C"/>
		</linearGradient>
		<linearGradient id="O" x1="85.103" y1="196.55" x2="78.776" y2="212.717" gradientUnits="userSpaceOnUse">
			<stop stop-color="#09005D"/>
			<stop offset="1" stop-color="#1A0F91"/>
		</linearGradient>
		<linearGradient id="P" x1="85.131" y1="217.959" x2="72.434" y2="194.934" gradientUnits="userSpaceOnUse">
			<stop stop-color="#A22B25"/>
			<stop offset="1" stop-color="#C0423C"/>
		</linearGradient>
		<linearGradient id="Q" x1="99.596" y1="206.336" x2="87.898" y2="233.453" gradientUnits="userSpaceOnUse">
			<stop stop-color="#A22B25"/>
			<stop offset="1" stop-color="#C0423C"/>
		</linearGradient>
		<linearGradient id="R" x1="105.381" y1="196.371" x2="102.471" y2="196.371" gradientUnits="userSpaceOnUse">
			<stop stop-color="#A22B25"/>
			<stop offset="1" stop-color="#C0423C"/>
		</linearGradient>
		<linearGradient id="S" x1="409.393" y1="387.214" x2="397.945" y2="357.916" gradientUnits="userSpaceOnUse">
			<stop stop-color="#09005D"/>
			<stop offset="1" stop-color="#1A0F91"/>
		</linearGradient>
		<linearGradient id="T" x1="379.487" y1="295.32" x2="376.348" y2="295.32" gradientUnits="userSpaceOnUse">
			<stop stop-color="#FF928E"/>
			<stop offset="1" stop-color="#FEB3B1"/>
		</linearGradient>
		<linearGradient id="U" x1="387.204" y1="251.258" x2="372" y2="294.599" gradientUnits="userSpaceOnUse">
			<stop stop-color="#09005D"/>
			<stop offset="1" stop-color="#1A0F91"/>
		</linearGradient>
		<linearGradient id="V" x1="422.288" y1="382.161" x2="410.844" y2="352.866" gradientUnits="userSpaceOnUse">
			<stop stop-color="#09005D"/>
			<stop offset="1" stop-color="#1A0F91"/>
		</linearGradient>
		<linearGradient id="W" x1="390.802" y1="295.162" x2="388.092" y2="295.162" gradientUnits="userSpaceOnUse">
			<stop stop-color="#FF928E"/>
			<stop offset="1" stop-color="#FEB3B1"/>
		</linearGradient>
		<linearGradient id="X" x1="391.619" y1="252.807" x2="376.416" y2="296.148" gradientUnits="userSpaceOnUse">
			<stop stop-color="#09005D"/>
			<stop offset="1" stop-color="#1A0F91"/>
		</linearGradient>
		<linearGradient id="Y" x1="380.102" y1="241.193" x2="398.943" y2="236.211" gradientUnits="userSpaceOnUse">
			<stop stop-color="#FF928E"/>
			<stop offset="1" stop-color="#FEB3B1"/>
		</linearGradient>
		<linearGradient id="Z" x1="370.846" y1="243.648" x2="374.183" y2="224.522" gradientUnits="userSpaceOnUse">
			<stop stop-color="#09005D"/>
			<stop offset="1" stop-color="#1A0F91"/>
		</linearGradient>
		<linearGradient id="aa" x1="389.24" y1="221.8" x2="380.385" y2="234.832" gradientUnits="userSpaceOnUse">
			<stop stop-color="#FF928E"/>
			<stop offset="1" stop-color="#FEB3B1"/>
		</linearGradient>
		<linearGradient id="ab" x1="363.813" y1="233.517" x2="367.195" y2="228.271" gradientUnits="userSpaceOnUse">
			<stop stop-color="#FF928E"/>
			<stop offset="1" stop-color="#FEB3B1"/>
		</linearGradient>
		<linearGradient id="ac" x1="380.875" y1="207.723" x2="383.655" y2="225.428" gradientUnits="userSpaceOnUse">
			<stop stop-color="#FF928E"/>
			<stop offset="1" stop-color="#FEB3B1"/>
		</linearGradient>
		<linearGradient id="ad" x1="349.629" y1="281.961" x2="353.289" y2="273.082" gradientUnits="userSpaceOnUse">
			<stop stop-color="#FF928E"/>
			<stop offset="1" stop-color="#FEB3B1"/>
		</linearGradient>
		<linearGradient id="ae" x1="390.069" y1="201.655" x2="378.834" y2="210.696" gradientUnits="userSpaceOnUse">
			<stop stop-color="#09005D"/>
			<stop offset="1" stop-color="#1A0F91"/>
		</linearGradient>
		<linearGradient id="af" x1="352.613" y1="283.183" x2="356.273" y2="274.306" gradientUnits="userSpaceOnUse">
			<stop stop-color="#FF928E"/>
			<stop offset="1" stop-color="#FEB3B1"/>
		</linearGradient>
	</defs>
</svg>
