<svg width="475" height="314" fill="none" xmlns="http://www.w3.org/2000/svg">
	<path fill="#fff" d="M0 0h475v314H0z"/>
	<path fill-rule="evenodd" clip-rule="evenodd" d="M237.07 73.606c26.661 3.321 54.263-.169 75.915 15.794 25.215 18.589 46.954 44.856 48.868 76.199 1.998 32.722-16.636 62.215-38.956 86.148-23.227 24.905-52.217 52.715-85.827 47.65-32.338-4.873-39.873-47.365-63.421-70.14-24.494-23.689-67.883-30.255-74.92-63.658-7.573-35.958 10.388-77.492 40.914-97.791 28.194-18.748 63.864 1.617 97.427 5.798Z" fill="#F5F6FF"/>
	<path opacity=".5" d="M135.825 216.897c-3.823-9.145 10.754-16.679 10.754-16.679s18.915 6.484 21.687 4.851c2.75-1.632-15.091-8.697-15.091-8.697 4.516-4.27 21.575-7.937 21.575-7.937s11.179 16.031 13.459 13.75c2.28-2.28-10.642-13.682-10.642-13.682 5.813-2.259 14.51-.157 14.51-.157 12.475 4.695 5.813 20.457 5.813 20.457s4.002 5.478 12.073 9.033c0 0 1.632.559 3.868 1.9l-1.297 1.006c-.38-.268-.738-.514-1.118-.738h-.022a82.608 82.608 0 0 0-1.006-.536 48.288 48.288 0 0 1-2.191-1.096c-3.063-1.498-7.199-3.331-8.832-3.107 0 0-.022-.313-.178-.805.067.246.111.514.178.805 1.454 6.439-8.943 15.762-16.052 19.272-7.11 3.51-5.791-.291-4.651-5.679 1.118-5.366 8.608-10.016 9.815-12.699 1.185-2.683-2.66-1.476-6.506 2.012-3.845 3.488-2.705 9.167-8.831 14.935-6.126 5.768-20.815-2.75-20.815-2.75 5.657-2.124 11.894-11 10.978-12.811-.917-1.811-12.901 7.758-15.159 8.742-2.258.939-8.496-.268-12.319-9.39Z" fill="#A8CCFF"/>
	<path d="M124.4 95.696c1.14-11.067 19.563-10.687 19.563-10.687s15.181 16.567 18.78 16.433c3.6-.134-10.217-16.7-10.217-16.7 6.729-1.79 25.554 3.755 25.554 3.755s2.437 21.821 5.903 20.793c3.465-1.029-3.13-19.205-3.13-19.205 6.953.894 14.398 7.624 14.398 7.624 9.793 11.312-5.254 23.296-5.254 23.296s1.006 7.535 7.043 15.404c0 0 1.296 1.409 2.817 3.958l-1.811.29c-.224-.469-.47-.894-.716-1.319v-.022c-.179-.268-.402-.626-.715-1.073a32.229 32.229 0 0 1-1.565-2.258c-2.214-3.13-5.321-7.155-7.043-7.825 0 0 .157-.313.246-.895-.089.291-.156.582-.246.895-2.012 7.132-17.282 10.754-26.18 10.396-8.899-.358-5.545-3.399-1.543-8.094 4.002-4.695 13.884-5.254 16.5-7.266 2.616-2.012-1.834-2.884-7.49-1.498-5.679 1.386-7.602 7.579-16.724 9.994-9.121 2.392-19.048-13.884-19.048-13.884 6.729.939 17.64-4.472 17.707-6.752.089-2.28-16.88.715-19.652.492-2.817-.246-8.317-4.785-7.177-15.852Z" fill="#DCEAFB"/>
	<path opacity=".5" d="M340.911 93.416c-1.542-15.092-26.65-14.555-26.65-14.555s-20.681 22.559-25.599 22.38c-4.919-.179 13.906-22.738 13.906-22.738-9.189-2.437-34.811 5.12-34.811 5.12s-3.308 29.736-8.026 28.35c-4.717-1.387 4.27-26.181 4.27-26.181-9.479 1.23-19.607 10.374-19.607 10.374-13.325 15.426 7.154 31.747 7.154 31.747s-1.364 10.285-9.614 20.972c0 0-1.788 1.923-3.823 5.388l2.46.402c.313-.626.626-1.229.983-1.81 0 0 0-.023.023-.023.223-.358.559-.849.961-1.453.984-1.342 1.677-2.348 2.124-3.085 3.018-4.248 7.244-9.748 9.614-10.643 0 0-.201-.424-.336-1.207.112.38.224.783.336 1.207 2.727 9.726 23.542 14.667 35.683 14.175 12.117-.492 7.556-4.628 2.124-11.045-5.433-6.394-18.915-7.154-22.47-9.904-3.577-2.75 2.504-3.913 10.218-2.035 7.713 1.879 10.351 10.352 22.804 13.616 12.431 3.264 25.957-18.914 25.957-18.914-9.166 1.274-24.034-6.082-24.146-9.189-.112-3.108 23.006.984 26.762.671 3.756-.358 11.269-6.529 9.703-21.62Z" fill="#A8CCFF"/>
	<path d="M164.98 45.615s4.248-7.422 14.421-6.595c0 0 14.778-12.364 30.518-1.655 0 0 16.746-2.66 29.155 2.303 8.272 3.31 10.999 6.775 10.999 6.775l-85.093-.828ZM274.241 60.394s2.548-5.858 8.674-5.21c0 0 8.876-9.77 18.356-1.296 0 0 10.083-2.102 17.528 1.81 4.964 2.616 6.618 5.344 6.618 5.344l-51.176-.648ZM231 21.767s2.37-4.561 8.004-4.07c0 0 8.183-7.601 16.925-1.006 0 0 9.278-1.632 16.164 1.409 4.584 2.034 6.104 4.159 6.104 4.159L231 21.767Z" fill="#F6FBFF"/>
	<path d="M396.492 158.32v88.491H259.373V158.32s19.987-1.945 29.109-1.945c11 .022 32.933 1.99 43.91 1.945 10.218-.045 30.63-2.124 40.87-1.945 5.835.112 23.23 1.945 23.23 1.945Z" fill="#FFA5A8"/>
	<path d="M396.493 157.94v22.246c-10.419-1.319-11.582 8.048-18.311 8.473-6.73.425-2.661-7.49-8.966-7.646-6.304-.157-3.867 4.919-9.993 7.065-6.104 2.146-10.598-2.146-12.834-5.433-2.235-3.286-5.097-4.27-9.166-1.811-4.069 2.459-3.264 7.557-11 7.222-7.736-.336-5.903-8.854-12.029-6.551-6.103 2.303-8.361 6.729-14.062 6.551-5.702-.179-4.07-7.378-10.397-7.222-6.305.157-4.382 5.5-14.465 6.976-10.083 1.475-15.874-4.427-15.874-4.427V157.94s19.988-1.565 29.11-1.565c11 .022 32.932 1.587 43.91 1.565 10.217-.022 30.63-1.722 40.87-1.565 5.812.089 23.207 1.565 23.207 1.565Z" fill="#FFE1CC"/>
	<path d="M396.493 158.32v9.502s-30.138-1.14-48.472-.223c-18.333.916-46.772-1.23-58.085-1.521-11.312-.313-30.54 1.521-30.54 1.521v-9.257s19.988-1.945 29.11-1.945c11 .023 32.932 1.99 43.91 1.945 10.217-.044 30.63-2.123 40.87-1.945 5.812.09 23.207 1.923 23.207 1.923Z" fill="#FFCCA9"/>
	<path d="M259.373 233.039s11.29-1.476 22.894 0c11.626 1.476 34.229-2.795 47.688-.648 13.46 2.146 23.23.313 40.043-.604s26.471 1.61 26.471 1.61v13.414H259.373v-13.772ZM300.265 229.283c-3.711 0-7.065-.157-9.793-.581-13.235-2.013-30.875-.872-31.054-.872l-.067-.917c.178-.022 17.908-1.14 31.255.872 7.043 1.073 18.378.402 29.311-.246 9.838-.581 19.138-1.118 24.482-.358 5.12.738 15.002.09 24.548-.536 11.291-.738 22.962-1.498 27.657-.067l-.269.872c-4.538-1.387-16.119-.626-27.343.089-10.038.648-19.518 1.274-24.75.514-5.254-.76-14.51-.223-24.302.358-6.752.447-13.683.872-19.675.872Z" fill="#FF7A7E"/>
	<path d="M301.494 227.069c-2.079 0-4.136-.111-6.26-.38-13.392-1.676-35.638-1.453-35.861-1.453v-.917c.223 0 22.536-.201 35.973 1.476 6.036.76 11.671.201 18.825-.469 8.854-.85 19.876-1.901 36.599-1.007 17.014.917 25.6-.536 31.86-1.587 4.986-.849 8.585-1.453 13.906-.581l-.156.894c-5.165-.849-8.72-.246-13.616.581-6.305 1.074-14.935 2.527-32.061 1.61-16.656-.917-27.634.157-36.465 1.006-4.695.447-8.764.827-12.744.827Z" fill="#7E9BEA"/>
	<path opacity=".4" d="M266.102 243.368a1.565 1.565 0 1 0 0-3.13 1.565 1.565 0 0 0 0 3.13ZM261.117 242.474c0-.872.693-1.565 1.565-1.565a1.57 1.57 0 0 1 1.565 1.565 1.57 1.57 0 0 1-1.565 1.565 1.57 1.57 0 0 1-1.565-1.565ZM265.633 238.159c0-.872.693-1.565 1.565-1.565s1.565.693 1.565 1.565a1.57 1.57 0 0 1-1.565 1.565 1.57 1.57 0 0 1-1.565-1.565ZM261.988 238.964c0-.85.693-1.565 1.565-1.565.85 0 1.565.693 1.565 1.565s-.693 1.565-1.565 1.565a1.555 1.555 0 0 1-1.565-1.565ZM270.015 242.586a1.565 1.565 0 1 0 0-3.13 1.565 1.565 0 0 0 0 3.13ZM274.487 241.021a1.565 1.565 0 1 0 0-3.13 1.565 1.565 0 0 0 0 3.13ZM271.133 238.964a1.565 1.565 0 1 0 0-3.13 1.565 1.565 0 0 0 0 3.13ZM278.332 242.832a1.565 1.565 0 1 0 0-3.13 1.565 1.565 0 0 0 0 3.13ZM272.094 241.557c.604-.604 1.588-.604 2.214 0 .603.604.603 1.587 0 2.214-.604.603-1.588.603-2.214 0-.603-.627-.603-1.61 0-2.214ZM282.043 241.334a1.565 1.565 0 1 0 0-3.13 1.565 1.565 0 0 0 0 3.13ZM281.596 237.891a1.565 1.565 0 1 0 0-3.13 1.565 1.565 0 0 0 0 3.13ZM285.375 239.724a1.565 1.565 0 1 0 0-3.13 1.565 1.565 0 0 0 0 3.13ZM284.122 240.708c.604-.604 1.588-.604 2.214 0 .603.603.603 1.587 0 2.213-.604.604-1.588.604-2.214 0-.603-.626-.603-1.61 0-2.213ZM288.839 241.624a1.564 1.564 0 1 0 .002-3.128 1.564 1.564 0 0 0-.002 3.128ZM292.171 240.059a1.565 1.565 0 1 0 0-3.13 1.565 1.565 0 0 0 0 3.13ZM298.789 240.685a1.565 1.565 0 1 0 0-3.13 1.565 1.565 0 0 0 0 3.13ZM302.701 239.322a1.565 1.565 0 1 0 0-3.13 1.565 1.565 0 0 0 0 3.13ZM302.03 243.167a1.565 1.565 0 1 0 0-3.13 1.565 1.565 0 0 0 0 3.13ZM305.81 241.624a1.565 1.565 0 1 0 0-3.13 1.565 1.565 0 0 0 0 3.13ZM309.386 240.685a1.564 1.564 0 1 0 .002-3.128 1.564 1.564 0 0 0-.002 3.128ZM306.571 238.159a1.565 1.565 0 1 0 0-3.13 1.565 1.565 0 0 0 0 3.13ZM305.34 245.313a1.565 1.565 0 1 0 0-3.13 1.565 1.565 0 0 0 0 3.13ZM308.939 244.151a1.565 1.565 0 1 0 0-3.13 1.565 1.565 0 0 0 0 3.13ZM315.759 244.732a1.565 1.565 0 1 0 0-3.13 1.565 1.565 0 0 0 0 3.13ZM318.42 240.506c.603-.603 1.587-.603 2.213 0 .604.604.604 1.588 0 2.214-.604.603-1.587.603-2.213 0a1.58 1.58 0 0 1 0-2.214ZM325.841 243.167a1.565 1.565 0 1 0 0-3.13 1.565 1.565 0 0 0 0 3.13ZM329.016 241.334a1.565 1.565 0 1 0 0-3.13 1.565 1.565 0 0 0 0 3.13ZM325.841 239.322a1.565 1.565 0 1 0 0-3.13 1.565 1.565 0 0 0 0 3.13ZM322.51 237.757a1.566 1.566 0 1 0-.001-3.131 1.566 1.566 0 0 0 .001 3.131ZM311.467 236.46c.604-.604 1.587-.604 2.213 0 .604.603.604 1.587 0 2.213-.603.604-1.587.604-2.213 0-.604-.626-.604-1.61 0-2.213ZM311.467 240.171c.604-.604 1.587-.604 2.213 0 .604.604.604 1.587 0 2.213-.603.604-1.587.604-2.213 0-.604-.626-.604-1.609 0-2.213ZM316.117 241.043a1.565 1.565 0 1 0 0-3.13 1.565 1.565 0 0 0 0 3.13ZM318.42 237.063c.603-.603 1.587-.603 2.213 0 .604.604.604 1.588 0 2.214-.604.603-1.587.603-2.213 0-.604-.626-.604-1.61 0-2.214Z" fill="#FFA0A3"/>
	<path opacity=".4" d="M322.712 241.334a1.565 1.565 0 1 0 0-3.13 1.565 1.565 0 0 0 0 3.13ZM322.712 244.911a1.565 1.565 0 1 0 0-3.13 1.565 1.565 0 0 0 0 3.13ZM316.967 234.403a1.585 1.585 0 0 1 .805 2.057 1.585 1.585 0 0 1-2.057.805 1.584 1.584 0 0 1-.805-2.057c.335-.783 1.252-1.141 2.057-.805ZM298.073 244.374a1.564 1.564 0 1 0 .002-3.128 1.564 1.564 0 0 0-.002 3.128ZM294.496 236.035c.603-.604 1.587-.604 2.213 0 .604.603.604 1.587 0 2.213-.604.604-1.587.604-2.213 0a1.578 1.578 0 0 1 0-2.213ZM288.839 237.757a1.565 1.565 0 1 0 0-3.13 1.565 1.565 0 0 0 0 3.13ZM291.769 243.793a1.565 1.565 0 1 0 0-3.13 1.565 1.565 0 0 0 0 3.13ZM295.301 242.25a1.565 1.565 0 1 0 0-3.13 1.565 1.565 0 0 0 0 3.13ZM299.818 236.996a1.565 1.565 0 1 0 0-3.13 1.565 1.565 0 0 0 0 3.13ZM278.108 239.322a1.565 1.565 0 1 0 0-3.13 1.565 1.565 0 0 0 0 3.13ZM330 242.653c0-.85.693-1.565 1.565-1.565.871 0 1.565.693 1.565 1.565s-.694 1.565-1.565 1.565a1.555 1.555 0 0 1-1.565-1.565ZM328.256 245.783a1.565 1.565 0 1 0 0-3.13 1.565 1.565 0 0 0 0 3.13ZM333.152 244.464c0-.85.693-1.565 1.565-1.565s1.565.693 1.565 1.565-.693 1.565-1.565 1.565a1.57 1.57 0 0 1-1.565-1.565ZM351.419 244.039c0-.85.694-1.565 1.565-1.565.872 0 1.565.693 1.565 1.565a1.57 1.57 0 0 1-1.565 1.565 1.556 1.556 0 0 1-1.565-1.565ZM339.39 244.218c0-.85.693-1.565 1.565-1.565.85 0 1.565.693 1.565 1.565s-.693 1.565-1.565 1.565a1.57 1.57 0 0 1-1.565-1.565ZM344.51 243.346c0-.85.693-1.565 1.565-1.565.85 0 1.565.693 1.565 1.565s-.693 1.565-1.565 1.565c-.872-.022-1.565-.715-1.565-1.565ZM330.335 238.159c0-.872.693-1.565 1.565-1.565.85 0 1.565.693 1.565 1.565a1.57 1.57 0 0 1-1.565 1.565c-.85 0-1.565-.716-1.565-1.565ZM327.474 236.281c0-.738.603-1.342 1.319-1.342a1.36 1.36 0 0 1 1.341 1.342c0 .738-.603 1.341-1.341 1.341s-1.319-.626-1.319-1.341ZM334.717 242.586a1.565 1.565 0 1 0 0-3.13 1.565 1.565 0 0 0 0 3.13ZM339.189 241.021a1.565 1.565 0 1 0 0-3.13 1.565 1.565 0 0 0 0 3.13ZM335.835 238.964a1.565 1.565 0 1 0 0-3.13 1.565 1.565 0 0 0 0 3.13ZM343.058 242.832a1.565 1.565 0 1 0 0-3.13 1.565 1.565 0 0 0 0 3.13Z" fill="#FFA0A3"/>
	<path opacity=".4" d="M337.915 244.218a1.565 1.565 0 1 0 0-3.13 1.565 1.565 0 0 0 0 3.13ZM345.65 238.673c.604-.604 1.588-.604 2.214 0 .604.604.604 1.587 0 2.213-.604.604-1.587.604-2.214 0-.603-.626-.603-1.609 0-2.213ZM346.298 237.891a1.565 1.565 0 1 0 0-3.13 1.565 1.565 0 0 0 0 3.13ZM350.078 239.724a1.565 1.565 0 1 0 0-3.13 1.565 1.565 0 0 0 0 3.13ZM349.921 243.368a1.565 1.565 0 1 0 0-3.13 1.565 1.565 0 0 0 0 3.13ZM353.565 241.624a1.565 1.565 0 1 0 0-3.13 1.565 1.565 0 0 0 0 3.13ZM356.874 240.059a1.565 1.565 0 1 0 0-3.13 1.565 1.565 0 0 0 0 3.13ZM363.513 240.685a1.564 1.564 0 1 0 .002-3.128 1.564 1.564 0 0 0-.002 3.128ZM367.404 239.322a1.565 1.565 0 1 0 0-3.13 1.565 1.565 0 0 0 0 3.13ZM366.734 243.167a1.565 1.565 0 1 0 0-3.13 1.565 1.565 0 0 0 0 3.13ZM370.512 241.624a1.565 1.565 0 1 0 0-3.13 1.565 1.565 0 0 0 0 3.13ZM374.089 240.685a1.564 1.564 0 1 0 .002-3.128 1.564 1.564 0 0 0-.002 3.128ZM371.272 238.159a1.565 1.565 0 1 0 0-3.13 1.565 1.565 0 0 0 0 3.13ZM368.947 242.653c.604-.604 1.587-.604 2.213 0 .604.603.604 1.587 0 2.213-.603.604-1.587.604-2.213 0a1.578 1.578 0 0 1 0-2.213ZM373.643 244.151a1.565 1.565 0 1 0 0-3.13 1.565 1.565 0 0 0 0 3.13ZM380.461 244.732a1.565 1.565 0 1 0 0-3.13 1.565 1.565 0 0 0 0 3.13ZM383.121 240.506c.604-.603 1.588-.603 2.214 0 .626.604.603 1.588 0 2.214-.604.603-1.588.603-2.214 0a1.581 1.581 0 0 1 0-2.214ZM390.545 243.167a1.565 1.565 0 1 0 0-3.13 1.565 1.565 0 0 0 0 3.13ZM393.741 241.334a1.565 1.565 0 1 0 0-3.13 1.565 1.565 0 0 0 0 3.13ZM390.545 239.322a1.565 1.565 0 1 0 0-3.13 1.565 1.565 0 0 0 0 3.13ZM387.213 237.757a1.565 1.565 0 1 0 0-3.13 1.565 1.565 0 0 0 0 3.13ZM377.286 239.12a1.564 1.564 0 1 0 .002-3.128 1.564 1.564 0 0 0-.002 3.128ZM377.286 242.832a1.565 1.565 0 1 0 0-3.13 1.565 1.565 0 0 0 0 3.13ZM380.818 241.043a1.565 1.565 0 1 0 0-3.13 1.565 1.565 0 0 0 0 3.13ZM383.121 237.063c.604-.603 1.588-.603 2.214 0 .603.604.603 1.588 0 2.214-.604.603-1.588.603-2.214 0-.603-.626-.603-1.61 0-2.214ZM386.319 238.673c.604-.604 1.588-.604 2.214 0 .603.604.603 1.587 0 2.213-.604.604-1.588.604-2.214 0-.603-.626-.603-1.609 0-2.213ZM386.319 242.228c.604-.604 1.588-.604 2.214 0 .603.604.603 1.587 0 2.213-.604.604-1.588.604-2.214 0-.603-.603-.603-1.587 0-2.213ZM381.668 234.403a1.584 1.584 0 0 1 .805 2.057 1.585 1.585 0 0 1-2.057.805 1.585 1.585 0 0 1-.805-2.057 1.584 1.584 0 0 1 2.057-.805ZM362.777 244.375a1.565 1.565 0 1 0 0-3.13 1.565 1.565 0 0 0 0 3.13ZM360.295 238.695a1.565 1.565 0 1 0 0-3.13 1.565 1.565 0 0 0 0 3.13ZM353.565 237.757a1.565 1.565 0 1 0 0-3.13 1.565 1.565 0 0 0 0 3.13ZM356.471 243.793a1.565 1.565 0 1 0 0-3.13 1.565 1.565 0 0 0 0 3.13ZM360.004 242.25a1.565 1.565 0 1 0 0-3.13 1.565 1.565 0 0 0 0 3.13ZM364.542 236.996a1.565 1.565 0 1 0 0-3.13 1.565 1.565 0 0 0 0 3.13ZM342.811 239.322a1.565 1.565 0 1 0 0-3.13 1.565 1.565 0 0 0 0 3.13Z" fill="#FFA0A3"/>
	<path d="M396.492 184.232v.939c-5.768-.715-9.032 3.51-11.402 6.64-.961 1.252-1.722 2.259-2.482 2.683-2.593 1.454-7.02 1.096-9.502-1.788-.983-1.14-1.475-2.527-1.922-3.734-.627-1.744-1.185-3.264-2.929-3.734-.962-.268-1.543.895-2.504 2.974-1.319 2.862-3.153 6.774-7.87 7.11-.269.022-.537.022-.805.022-6.707 0-11.112-6.014-14.063-10.061-.313-.425-.604-.805-.872-1.185-.291-.402-.604-.604-.917-.604-1.006-.044-2.459 1.61-3.979 3.354-2.37 2.705-5.321 6.059-9.145 6.573-5.097.671-7.467-2.325-9.569-4.986-1.028-1.296-2.012-2.526-3.197-3.219-1.475-.827-3.577.961-6.014 3.063-3.085 2.661-6.595 5.679-10.642 5.075-4.718-.693-5.388-3.532-5.947-5.813-.336-1.364-.582-2.459-1.565-2.906-2.012-.939-2.929.246-4.36 2.437-.335.492-.671 1.028-1.051 1.52-2.034 2.683-5.835 4.091-12.721 4.695-5.88.514-11.716-1.476-13.616-2.213v-.984c1.341.537 7.512 2.817 13.526 2.28 6.618-.581 10.218-1.878 12.073-4.337.358-.469.693-.984 1.006-1.476 1.32-2.012 2.683-4.091 5.523-2.772 1.386.648 1.721 2.057 2.079 3.533.537 2.213 1.073 4.516 5.187 5.119 3.644.537 6.976-2.347 9.904-4.873 2.706-2.326 5.031-4.315 7.065-3.153 1.364.76 2.393 2.079 3.466 3.443 2.034 2.594 4.136 5.254 8.719 4.651 3.488-.47 6.305-3.667 8.586-6.261 1.833-2.079 3.264-3.711 4.717-3.666.604.022 1.163.358 1.632.984.268.38.581.76.872 1.184 2.951 4.025 7.4 10.128 14.063 9.659 4.181-.291 5.791-3.778 7.11-6.596.983-2.124 1.833-3.957 3.599-3.465 2.214.626 2.884 2.504 3.555 4.315.425 1.185.872 2.437 1.744 3.443 2.169 2.527 6.081 2.862 8.339 1.587.604-.335 1.342-1.296 2.191-2.436 2.326-3.108 5.881-7.736 12.118-7.021Z" fill="#7E9BEA"/>
	<path d="M396.493 188.301v.939c-4.181-.693-5.903 1.655-7.893 4.338-1.542 2.101-3.264 4.471-6.394 5.388a8.787 8.787 0 0 1-2.526.38c-5.388 0-8.273-5.5-9.435-7.736-.067-.134-.134-.246-.179-.357-.514-.962-.85-1.118-.984-1.118-.559 0-1.475 1.542-1.811 2.124-1.565 2.638-4.449 5.701-12.922 5.902-5.97.134-9.279-4.181-11.47-7.043-.939-1.229-1.766-2.28-2.414-2.504-.626-.223-1.364.47-2.572 1.677-2.034 2.057-5.119 5.143-11.223 5.679-7.669.671-9.524-3.532-10.62-6.036-.313-.694-.581-1.297-.849-1.566-.895-.827-1.744-.268-4.181 1.744-.47.403-1.029.828-1.61 1.297-2.884 2.258-6.35 4.315-12.051 4.136-4.561-.134-5.612-3.644-6.282-5.992-.157-.536-.313-1.05-.492-1.43-.179-.425-.403-.649-.626-.649-.403-.022-1.208.514-2.281 2.169-1.855 2.862-6.528 4.784-13.906 5.679-7.333.916-12.386-1.118-14.376-2.147v-1.05c2.213 1.274 7.49 3.107 14.242 2.258 8.853-1.096 12.095-3.466 13.258-5.277 1.162-1.788 2.191-2.638 3.108-2.571.581.045 1.05.447 1.408 1.207.201.425.358.984.537 1.543.693 2.325 1.542 5.209 5.433 5.321 5.097.157 8.272-1.453 11.447-3.935.581-.447 1.117-.894 1.587-1.274 2.236-1.833 3.846-3.152 5.388-1.699.425.402.716 1.051 1.073 1.878 2.661 6.103 6.886 5.723 9.681 5.477 5.746-.514 8.697-3.465 10.642-5.41 1.297-1.297 2.303-2.303 3.533-1.901.917.313 1.766 1.431 2.839 2.818 2.191 2.861 5.21 6.796 10.71 6.684 9.032-.201 11.223-3.867 12.14-5.432.983-1.655 1.744-2.616 2.638-2.594.85.022 1.431.917 1.789 1.61.067.112.111.223.178.358 1.387 2.615 4.606 8.764 10.911 6.908 2.839-.827 4.404-2.974 5.902-5.053 1.968-2.683 4.002-5.455 8.653-4.74ZM336.238 224.454c0-.112-.581-11.358-2.504-15.382l.626-.291c1.99 4.136 2.549 15.181 2.571 15.65l-.693.023Z" fill="#FF7A7E"/>
	<path d="m335.925 216.494-.246-.648c2.638-1.028 5.925-5.41 5.97-5.455l.559.402c-.157.202-3.466 4.628-6.283 5.701Z" fill="#FF7A7E"/>
	<path d="M343.772 212.716h-3.935v.693h3.935v-.693ZM335.008 212.426c-4.896-.984-6.841-5.165-6.931-5.344l.626-.291c.023.045 1.901 4.047 6.439 4.964l-.134.671Z" fill="#FF7A7E"/>
	<path d="m331.162 210.078-.67-.134c.581-3.018.402-5.098.402-5.12l.693-.067c-.022.089.179 2.191-.425 5.321ZM336.104 219.87c-2.236-.782-8.787-5.991-9.055-6.215l.425-.537c.067.045 6.752 5.366 8.853 6.104l-.223.648Z" fill="#FF7A7E"/>
	<path d="M329.91 215.757c-.313-1.7-1.833-4.83-1.833-4.852l.626-.291c.067.134 1.565 3.242 1.901 5.031l-.694.112Z" fill="#FF7A7E"/>
	<path d="m329.821 213.923-.38-.581c.984-.671 1.252-1.789 1.252-1.811l.671.157c0 .067-.313 1.43-1.543 2.235ZM334.83 210.592l-.469-.491c1.118-1.096 1.095-2.505 1.095-2.527l.693-.022c0 .089.023 1.744-1.319 3.04Z" fill="#FF7A7E"/>
	<path d="M335.299 209.183c-1.61-1.453-1.61-4.27-1.61-4.382h.694c0 .023 0 2.616 1.363 3.868l-.447.514ZM340.419 212.269c-.626-1.029-.357-3.376-.335-3.645l.693.09c-.067.648-.179 2.504.246 3.197l-.604.358ZM337.58 215.131c-.782-1.006-.961-3.376-.961-3.488l.693-.045c.044.626.268 2.415.827 3.108l-.559.425ZM342.543 213.23l-.582-.358c.626-1.006 1.565-1.743 1.588-1.766l.425.537s-.872.693-1.431 1.587ZM332.281 218.909c-2.616 0-5.053-1.118-5.165-1.163l.291-.626c.045.023 3.622 1.655 6.573.917l.179.671a7.94 7.94 0 0 1-1.878.201ZM371.586 227.271l-.67-.135c.022-.111 2.28-11.156 1.43-15.516l.671-.134c.894 4.516-1.319 15.338-1.431 15.785Z" fill="#FF7A7E"/>
	<path d="m372.592 219.356-.09-.693c2.795-.335 7.11-3.756 7.155-3.801l.425.537c-.179.156-4.494 3.599-7.49 3.957Z" fill="#FF7A7E"/>
	<path d="m377.362 216.676-.174.671 3.809.986.174-.671-3.809-.986ZM372.726 215.175c-4.494-2.168-5.321-6.729-5.366-6.908l.671-.112-.336.067.336-.067c0 .045.827 4.404 4.985 6.417l-.29.603Z" fill="#FF7A7E"/>
	<path d="m369.596 211.933-.626-.29c1.319-2.795 1.655-4.829 1.655-4.852l.67.112c0 .089-.335 2.169-1.699 5.03ZM371.921 222.665c-1.967-1.319-6.998-8.004-7.221-8.272l.559-.403c.044.067 5.187 6.886 7.042 8.116l-.38.559Z" fill="#FF7A7E"/>
	<path d="m367.651 217.187-.693-.044c.134-1.744-.559-5.143-.559-5.165l.671-.134c.044.134.715 3.532.581 5.343Z" fill="#FF7A7E"/>
	<path d="m367.338 215.332-.224-.648c1.118-.381 1.677-1.431 1.677-1.431l.604.313c-.023.044-.671 1.296-2.057 1.766ZM373.017 213.365l-.336-.604c1.364-.783 1.699-2.146 1.699-2.169l.671.157c-.022.089-.402 1.699-2.034 2.616Z" fill="#FF7A7E"/>
	<path d="M373.822 212.112c-1.207-1.811-.492-4.538-.447-4.65l.671.179c0 .022-.671 2.526.357 4.091l-.581.38ZM378.002 216.383c-.335-1.141.492-3.354.581-3.6l.649.246c-.246.604-.805 2.37-.559 3.175l-.671.179ZM374.537 218.44c-.514-1.163-.089-3.511-.067-3.622l.671.134c-.112.626-.335 2.392.022 3.219l-.626.269ZM379.814 217.858l-.47-.491c.872-.805 1.945-1.297 1.99-1.32l.268.627s-1.006.447-1.788 1.184ZM370.312 221.033c-3.287-.022-6.439-2.571-6.573-2.683l.447-.536c.022.022 3.085 2.504 6.126 2.526v.693Z" fill="#FF7A7E"/>
	<path d="m396.515 160.377-.023.156-.022.157c-.201-.045-21.262-4.069-49.254-.626-7.244.894-13.727 1.23-19.496 1.23-11.067 0-19.518-1.23-25.845-2.147-2.661-.38-4.941-.715-6.998-.916-8.809-.828-31.569 1.274-35.459 1.766v-.313c2.124-.268 8.63-.85 13.795-1.23 7.065-.514 16.567-1.006 21.686-.536 2.057.201 4.36.536 7.021.916 9.613 1.409 24.168 3.533 45.274.917 27.589-3.398 48.426.447 49.321.626 0 0-.023 0 0 0Z" fill="#FF9D5D"/>
	<path d="m396.492 162.054-.045.313c-.223-.022-22.737-2.437-49.276-.626-8.608.581-16.075.805-22.559.805-14.867 0-24.369-1.185-29.802-1.856-9.748-1.207-31.636.559-35.459.961v-.29c2.056-.224 8.205-.716 13.504-.984 6.975-.38 16.455-.671 21.999.022 7.781.962 23.945 2.996 52.295 1.051 26.27-1.833 48.583.514 49.343.604Z" fill="#FF9D5D"/>
	<path d="m396.514 164.715-.045.313c-.223-.045-23.386-3.868-49.276-.626-7.266.916-13.772 1.252-19.563 1.252-11 0-19.428-1.252-25.756-2.169-2.66-.403-4.985-.738-7.042-.917-8.809-.827-31.569 1.275-35.459 1.766v-.335c2.124-.268 8.63-.849 13.794-1.23 7.065-.514 16.567-1.006 21.687-.536 2.079.201 4.382.536 7.065.939 9.614 1.408 24.169 3.555 45.229.917 25.555-3.198 48.449.469 49.321.626.023-.023.045 0 .045 0Z" fill="#FF9D5D"/>
	<path d="M259.373 166.257c3.778-.604 25.308-3.399 34.05-2.571 2.012.179 4.315.492 6.976.827 10.128 1.319 25.42 3.309 46.794 1.856 26.539-1.811 49.053.603 49.276.626l.023-.157.022-.156h-.022c-.738-.09-23.051-2.415-49.321-.626-21.352 1.453-36.622-.537-46.728-1.856-2.66-.358-4.963-.648-6.975-.827-5.12-.492-14.242.246-20.972.961-5.343.559-11.111 1.297-13.101 1.632v.291h-.022Z" fill="#FF9D5D"/>
	<path d="M354.505 218.842c-2.303 0-4.36-1.207-4.204-2.728 5.567-48.739-10.955-79.704-10.955-79.704 1.498.961 19.34 27.343 19.34 79.66 0 1.52-1.834 2.772-4.159 2.772h-.022Z" fill="#0B3563"/>
	<path d="M354.394 200.128s-.894 9.189-1.476 11.939c-.581 2.75-.469 4.874 2.102 4.584 3.778-.425-.626-16.523-.626-16.523Z" fill="#FFCCA9"/>
	<path d="M313.948 218.842c-2.303 0-4.36-1.207-4.204-2.728 5.567-48.739-10.955-79.704-10.955-79.704 1.498.961 19.339 27.343 19.339 79.66 0 1.52-1.833 2.772-4.158 2.772h-.022Z" fill="#0B3563"/>
	<path d="M313.836 200.128s-.894 9.189-1.475 11.939c-.582 2.75-.47 4.874 2.101 4.584 3.779-.425-.626-16.523-.626-16.523Z" fill="#FFCCA9"/>
	<path d="M239.587 89.213s-4.472-16.165 14.264-20.904c18.736-4.74 28.417 10.552 29.602 20.904 1.184 10.351-7.311 29.109-25.689 26.963-18.401-2.124-18.177-26.963-18.177-26.963Z" fill="#052D52"/>
	<path d="M274.889 79.51c-2.124-3.533-.872-8.519-7.311-12.342-3.957-2.347-7.601-3.018-12.274-2.638-3.935.313-6.752 1.878-9.234 5.187-1.878 2.504-3.443 6.283-3.465 6.305l-1.789-1.297c.023-.112.761-2.638 2.773-5.299 2.66-3.554 6.282-5.611 10.508-5.947 4.851-.38 9.681.537 13.973 2.706 4.136 2.079 8.72 7.668 10.955 11.38l-4.136 1.945Z" fill="#052D52"/>
	<path d="M278.914 203.975c-13.146-4.114-43.731-6.685-46.749-6.864-12.141-.716-26.449 2.168-37.986 6.953-.559.246-26.829 6.171-39.953 21.217-3.354 3.846-8.25 14.578-8.25 31.301 0 0 173.227-.156 176.312-.291-9.681-29.467-15.561-43.597-43.374-52.316Z" fill="#FF64AE"/>
	<path d="M176.36 104.081c.649-.783 1.923-.716 2.951-1.051 0 0-.447-2.102-.313-5.299 0-.111 0-.223.023-.313.29-5.59 2.347-14.22 11.357-20.658 3.958-2.84 9.279-5.254 16.366-6.775 20.435-4.426 42.837 7.468 50.528 14.488 14.622 13.37 13.08 28.752 7.781 48.069-12.453 45.162-36.711 33.849-36.667 33.916-26.113 7.244-64.255-47.666-52.026-62.377Z" fill="#0B3563"/>
	<path d="M174.616 97.396c-.715-4.002-1.766-12.811 4.382-19.071 5.299-5.388 14.175-8.474 26.36-9.144 19.384-1.073 33.961 4.024 41.719 8.563 9.524 5.589 14.063 12.542 14.264 12.699l-4.762-1.677c-.179-.157-14.622-20.57-51.154-18.557-11.827.648-18.87 3.175-23.945 8.34-5.858 5.947-4.785 12.095-4.092 15.918.045.201-2.258 1.9-2.258 1.945l5.031 1.453c0-.022-5.523-.38-5.545-.47Z" fill="#0B3563"/>
	<path d="M214.39 219.245c-18.221.29-19.205-6.126-20.01-12.99-.335-2.839-.559-7.758-.782-13.638-.09-2.459-.201-5.098-.313-7.825-.201-5.254-.626-10.665-.984-14.89-.402-4.606-.76-7.781-.76-7.781l36.868-8.764 2.191-.514c.983 28.863 9.658 41.741 10.597 46.638 1.99 10.284-14.845 19.585-26.807 19.764Z" fill="#FFE1CC"/>
	<path d="M228.385 166.459c-4.092 10.619-14.242 24.682-34.788 26.158-.09-2.459-.202-5.098-.313-7.825-.202-5.254-.626-10.665-.984-14.89l36.085-3.443Z" fill="#FFCCA9"/>
	<path d="M171.24 173.434s44.536 20.949 57.145-6.998c12.61-27.947 26.852-44.044-1.05-58.599-27.903-14.555-38.277-6.394-44.76 1.9-6.462 8.295-22.604 57.549-11.335 63.697Z" fill="#FFE1CC"/>
	<path d="M225.48 132.005c-1.185-12.073-10.464-21.754-22.492-23.363-6.126-.828-13.37-1.476-20.413-1.342-11.872.201-13.101-24.392 13.37-32.687 26.807-8.428 51.02 6.775 61.506 14.376 17.327 12.565-11.38 71.276-13.191 71.567-1.811.29-12.655 4.963-12.655 4.963s-1.632-10.105.202-11.335c8.317-5.634 11.178-21.597-2.035-15.449-2.817 1.274-3.89-2.549-4.292-6.73Z" fill="#0B3563"/>
	<path d="M172.492 162.054a1.25 1.25 0 0 1 1.252-1.252 1.25 1.25 0 0 1 1.252 1.252 1.25 1.25 0 0 1-1.252 1.252 1.25 1.25 0 0 1-1.252-1.252ZM176.673 158.655a1.25 1.25 0 0 1 1.252-1.252 1.25 1.25 0 0 1 1.252 1.252 1.25 1.25 0 0 1-1.252 1.252 1.25 1.25 0 0 1-1.252-1.252ZM180.787 160.042a1.25 1.25 0 0 1 1.252-1.252 1.25 1.25 0 0 1 1.252 1.252 1.25 1.25 0 0 1-1.252 1.252 1.25 1.25 0 0 1-1.252-1.252ZM176.986 163.015a1.25 1.25 0 0 1 1.252-1.252 1.25 1.25 0 0 1 1.252 1.252 1.25 1.25 0 0 1-1.252 1.252c-.693-.022-1.252-.559-1.252-1.252ZM177.589 167.688a1.252 1.252 0 1 0 0-2.504 1.252 1.252 0 0 0 0 2.504ZM182.708 165.497a1.25 1.25 0 0 1 1.253-1.252 1.25 1.25 0 0 1 1.252 1.252 1.25 1.25 0 0 1-1.252 1.252 1.25 1.25 0 0 1-1.253-1.252ZM207.168 146.962a1.25 1.25 0 0 1 1.252-1.252 1.25 1.25 0 0 1 1.252 1.252 1.25 1.25 0 0 1-1.252 1.253c-.693-.023-1.252-.582-1.252-1.253ZM211.349 143.542a1.25 1.25 0 0 1 1.252-1.252 1.25 1.25 0 0 1 1.252 1.252 1.25 1.25 0 0 1-1.252 1.252 1.25 1.25 0 0 1-1.252-1.252ZM215.463 144.928a1.25 1.25 0 0 1 1.252-1.252 1.25 1.25 0 0 1 1.252 1.252 1.25 1.25 0 0 1-1.252 1.252 1.25 1.25 0 0 1-1.252-1.252ZM211.685 147.902a1.25 1.25 0 0 1 1.252-1.252 1.25 1.25 0 0 1 1.252 1.252 1.25 1.25 0 0 1-1.252 1.252 1.25 1.25 0 0 1-1.252-1.252ZM211.036 151.322a1.25 1.25 0 0 1 1.252-1.252 1.25 1.25 0 0 1 1.252 1.252 1.25 1.25 0 0 1-1.252 1.252 1.25 1.25 0 0 1-1.252-1.252ZM217.407 150.383a1.25 1.25 0 0 1 1.252-1.252 1.25 1.25 0 0 1 1.252 1.252 1.25 1.25 0 0 1-1.252 1.252 1.25 1.25 0 0 1-1.252-1.252Z" fill="#FF8463"/>
	<path d="M145.192 149.958s.47-1.073.783-1.587c.313-.514 1.632-1.99 1.856-1.655.223.336 1.117 2.594.648 3.242-.47.649.022 1.744-2.348 2.415l-.939-2.415Z" fill="#FFAE73"/>
	<path d="M118.833 143.184s12.141 10.128 16.88 9.189c3.712-.738 9.391-2.683 9.391-2.683l1.14 2.906s-5.098 6.909-10.419 6.954c-8.294.067-14.443-3.6-14.443-3.6l-2.549-12.766Z" fill="#83B7C9"/>
	<path d="M97.527 250.098s.358 5.679 1.453 5.768h5.589l6.931-.044s-.044-1.677-2.079-2.035c-2.034-.358-5.41-1.789-6.64-4.449-1.297-2.795-5.254.76-5.254.76Z" fill="#282828"/>
	<path d="M97.146 250.5s2.102.716 3.756.716c1.833 0 3.51-.492 3.51-.492s.403-3.846 2.571-12.297c1.141-4.427 2.773-10.128 5.098-17.215 6.439-19.585 8.384-31.033 8.563-32.106 0-.067.022-.089.022-.089h-.022l-19.787-8.675s2.437 26.986-.67 37.337c-.447 1.454-.805 3.13-1.14 4.964-1.946 11.201-1.9 27.857-1.9 27.857Z" fill="#282828"/>
	<path d="M106.984 238.405c1.14-4.427 2.772-10.128 5.097-17.216 6.439-19.585 8.384-31.032 8.563-32.105v-.09l-19.786-8.674s2.437 26.985-.671 37.337c-.425 1.408 6.797 20.748 6.797 20.748Z" fill="#282828"/>
	<path d="M112.976 250.098s.357 5.679 1.453 5.768h5.589l6.931-.044s-.045-1.677-2.079-2.035c-2.035-.358-5.411-1.789-6.64-4.449-1.297-2.795-5.254.76-5.254.76Z" fill="#3D3D3D"/>
	<path d="M124.199 180.923s.246 17.484-2.772 38.947c-3.018 21.464-1.99 30.585-1.99 30.585s-2.079.671-2.906.738c-2.147.179-4.338-.492-4.338-.492s-4.337-21.485-3.085-32.217c1.252-10.754-5.925-36.868-5.925-36.868l21.016-.693Z" fill="#3D3D3D"/>
	<path d="M118.163 137.259c-.111 1.766-.38 3.958-1.051 5.277h-3.062l-3.868-2.527s1.453-2.75 1.073-6.819c-.023-.223-.157-1.788-.179-1.833l1.945.849 5.209 2.303c0 .023.045 1.208-.067 2.75Z" fill="#FFE1CC"/>
	<path d="M125.362 181.684c-.09 9.233-.693 30.808-1.14 31.255-4.807 4.651-25.958-1.274-27.075-6.394-1.118-5.12 4.27-65.53 12.475-67.945 1.699-.491 10.821 2.437 10.821 2.437s1.431 3.734 2.37 8.496c.358 1.767 1.476 14.354 2.146 22.76.179 2.236.313 4.181.403 5.545v3.846Z" fill="#A9CFE0"/>
	<path d="M118.163 137.259c-2.012-.738-5.5-2.258-6.529-3.98-.469-.805.224-1.051 1.387-1.028l5.209 2.303c0-.023.045 1.162-.067 2.705Z" fill="#FFCCA9"/>
	<path d="M120.198 134.196s-8.384 2.616-9.949-2.638c-1.543-5.254-3.667-8.451 1.61-10.351 5.299-1.901 6.931-.202 7.87 1.43.961 1.655 2.615 10.754.469 11.559Z" fill="#FFE1CC"/>
	<path d="M119.416 122.145s-.805 6.685-1.789 5.836c-1.878-1.565-3.041-1.565-2.37.983.47 1.789-2.392 4.897-3.935 5.187-3.845.738-7.378-10.239-6.305-12.14 3.086-5.455 18.87-6.551 14.399.134Z" fill="#0B3563"/>
	<path d="M118.185 138.734c-.112-.044-6.238-2.794-6.976-2.571-.715.246-1.609 2.437-1.609 2.437l10.821 2.437s-.85-1.721-2.236-2.303Z" fill="#83B7C9"/>
	<path opacity=".2" d="M192.971 165.922a25.553 25.553 0 0 1-12.722 7.378c-8.093 1.923-16.969-.134-23.475-6.26-10.307-9.703-10.799-25.913-1.096-36.197 6.126-6.506 14.846-9.1 23.051-7.691 4.784.827 9.368 3.018 13.169 6.573 10.262 9.681 10.754 25.89 1.073 36.197Z" fill="#ACCEFC"/>
	<path d="M154.986 167.733 123.887 200.8c-.604.648-1.364.939-1.655.648l-.961-.916c-.313-.291-.067-1.051.559-1.7l31.077-33.044c.604-.648 1.364-.939 1.654-.649l.962.917c.313.268.067 1.029-.537 1.677Z" fill="#0B4D87"/>
	<path d="m138.128 185.641-14.219 15.114c-.626.671-1.409.984-1.699.715l-.962-.916c-.313-.291-.044-1.074.604-1.744l14.219-15.114 2.057 1.945Z" fill="#062538"/>
	<path d="M193.217 129.144c-.134-.135-.291-.269-.425-.403-10.843-10.217-27.924-9.681-38.119 1.163-6.864 7.288-8.876 17.416-6.149 26.359 1.319 4.36 3.779 8.429 7.311 11.783 10.844 10.217 27.925 9.681 38.142-1.163 10.061-10.732 9.681-27.5-.76-37.739Zm-.335 36.711a25.413 25.413 0 0 1-12.677 7.333c-8.049 1.9-16.88-.134-23.364-6.238-10.262-9.658-10.754-25.778-1.095-36.04 6.103-6.484 14.778-9.055 22.939-7.647a25.372 25.372 0 0 1 13.101 6.551c10.24 9.636 10.732 25.779 1.096 36.041Z" fill="#0B3563"/>
	<path d="M125.362 181.683c-20.054-13.593-18.422-32.261-18.422-32.261 7.825 4.404 15.583 14.867 17.998 22.894.178 2.235.313 4.181.402 5.544.022.559.022 1.923.022 3.823Z" fill="#98C7D3"/>
	<path d="M143.025 174.797c1.342-.313 2.236-1.319 2.415-1.498 0 0 .581.045-.09 1.252-.044.112-.179.358-.268.559-.045.067.022.157.089.179.783.067 1.543-.246 3.041.067.201.045.268.537.246.738-.022.358.022.76-.402 1.297-.246.313-.917.648-2.393 1.252-.559.223-2.191.067-3.711-.47l-1.207-.559.402-2.258.313.067c.47.09 1.073-.491 1.565-.626Z" fill="#FFAE73"/>
	<path d="M112.82 141.038s-17.037 3.241 5.008 27.924c3.532 3.957 22.581 9.077 22.581 9.077s1.923-1.654.961-2.973c0 0-13.124-9.525-16.008-11.045-1.296-.671-5.03-15.203-7.154-18.713-2.124-3.488-5.388-4.27-5.388-4.27Z" fill="#83B7C9"/>
	<path d="M145.663 150.249s.559-1.073.67-1.632c.112-.559.805-2.191 1.096-2.482.112-.112.492.045.536.537.023.223-.089.603-.268 1.073-.313.76-.246 1.789-.358 2.146-.268.85-1.676.358-1.676.358Z" fill="#FFAE73"/>
	<path d="M240.346 232.122c1.721.693 7.847.135 8.049-.357.201-.492-3.801-5.165-5.523-5.858a3.344 3.344 0 0 0-4.36 1.856 3.314 3.314 0 0 0 1.834 4.359ZM255.794 235.051c-.961 1.588-1.408 7.714-.939 8.004.447.269 5.701-2.929 6.663-4.516a3.346 3.346 0 0 0-1.118-4.606 3.35 3.35 0 0 0-4.606 1.118ZM247.545 247.08c1.766.559 7.825-.47 8.004-.962.157-.514-4.203-4.851-5.947-5.41a3.337 3.337 0 0 0-4.203 2.168c-.604 1.744.38 3.622 2.146 4.204Z" fill="#9BD399"/>
	<path d="M256.466 253.004c0-.134-.694-14.04-8.295-21.217l.156-.179c7.669 7.244 8.362 21.24 8.362 21.374l-.223.022ZM281.865 232.436c-1.073.715-5.299 1.185-5.5.871-.201-.313 1.878-4.024 2.951-4.739a2.313 2.313 0 0 1 3.22.648 2.34 2.34 0 0 1-.671 3.22ZM271.782 236.55c.871.939 2.012 5.052 1.743 5.298-.268.246-4.27-1.207-5.164-2.146a2.33 2.33 0 0 1 .112-3.287c.961-.849 2.437-.804 3.309.135ZM279.048 243.57c-1.118.626-5.388.76-5.567.447-.179-.313 2.169-3.868 3.286-4.494a2.316 2.316 0 0 1 3.153.894 2.29 2.29 0 0 1-.872 3.153Z" fill="#9BD399"/>
	<path d="M273.816 248.846c-.023-.089-1.476-9.614 2.705-15.539l-.134-.089c-4.203 5.969-2.728 15.583-2.728 15.673l.157-.045ZM266.282 252.2l-.492-.068c-1.9-24.66-9.435-42.367-9.546-42.613l.447-.201c.112.246 7.691 18.065 9.591 42.882Z" fill="#9BD399"/>
	<path d="M251.123 207.037c.939 1.051 5.277 2.75 5.59 2.482.29-.269-.85-4.785-1.767-5.836-.939-1.05-2.526-1.162-3.577-.223-1.073.916-1.163 2.526-.246 3.577Z" fill="#fff"/>
	<path d="M257.808 203.37c-.85 1.118-1.61 5.724-1.274 5.97.313.246 4.516-1.811 5.366-2.929.849-1.118.603-2.727-.515-3.555-1.162-.849-2.75-.626-3.577.514Z" fill="#fff"/>
	<path d="M262.794 208.267c-1.364-.38-5.925.604-6.014.984-.112.38 3.331 3.532 4.695 3.912 1.364.38 2.75-.424 3.13-1.788a2.547 2.547 0 0 0-1.811-3.108Z" fill="#fff"/>
	<path d="M259.731 214.37c-.134-1.386-2.661-5.321-3.063-5.276-.403.045-2.124 4.382-1.99 5.768a2.55 2.55 0 0 0 2.772 2.281 2.551 2.551 0 0 0 2.281-2.773Z" fill="#fff"/>
	<path d="M252.8 214.058c1.252-.649 3.913-4.472 3.734-4.829-.179-.358-4.852-.313-6.104.335-1.252.648-1.721 2.191-1.073 3.443a2.566 2.566 0 0 0 3.443 1.051Z" fill="#fff"/>
	<path d="M255.707 209.094a.84.84 0 0 1 .961-.693.84.84 0 0 1 .693.962.84.84 0 0 1-.961.693.84.84 0 0 1-.693-.962Z" fill="#0B3563"/>
	<path d="M266.126 226.98c-1.386 1.699-2.862 8.832-2.392 9.212.492.402 7.154-2.527 8.541-4.226a3.947 3.947 0 0 0-.582-5.567c-1.677-1.364-4.181-1.118-5.567.581ZM238.805 254.726h-.336c-3.42-16.209-9.993-27.299-10.083-27.433l.269-.156c.111.134 6.707 11.29 10.15 27.589Z" fill="#9BD399"/>
	<path d="M224.785 226.086c.716.626 3.734 1.364 3.913 1.163.179-.202-.984-3.108-1.677-3.734a1.695 1.695 0 0 0-2.392.156 1.705 1.705 0 0 0 .156 2.415Z" fill="#fff"/>
	<path d="M228.877 223.068c-.447.827-.559 3.934-.335 4.069.224.134 2.839-1.588 3.287-2.415a1.736 1.736 0 0 0-.649-2.325c-.805-.447-1.833-.157-2.303.671Z" fill="#fff"/>
	<path d="M232.633 225.862c-.939-.134-3.868.917-3.913 1.185-.044.269 2.527 2.057 3.466 2.191.939.134 1.788-.536 1.922-1.453a1.727 1.727 0 0 0-1.475-1.923Z" fill="#fff"/>
	<path d="M231.136 230.199c-.201-.916-2.236-3.286-2.504-3.241-.268.067-1.028 3.085-.827 4.002.201.916 1.118 1.475 2.035 1.274a1.694 1.694 0 0 0 1.296-2.035Z" fill="#fff"/>
	<path d="M226.507 230.602c.76-.537 2.214-3.309 2.057-3.533-.156-.223-3.242.201-4.024.76a1.711 1.711 0 0 0-.403 2.37c.537.76 1.61.939 2.37.403Z" fill="#fff"/>
	<path d="M228.005 227.047c0-.313.269-.559.582-.537a.54.54 0 0 1 .536.582.54.54 0 0 1-.581.536.541.541 0 0 1-.537-.581Z" fill="#0B3563"/>
	<path d="M236.502 238.002c-.76 1.252-1.14 6.104-.782 6.328.357.223 4.538-2.303 5.298-3.555.761-1.252.38-2.884-.872-3.645-1.252-.76-2.884-.38-3.644.872ZM291.143 252.58l.425-.068c1.699-21.977 8.406-37.739 8.496-37.94l-.403-.179c-.089.223-6.841 16.097-8.518 38.187Z" fill="#9BD399"/>
	<path d="M304.625 212.358c-.827.939-4.695 2.437-4.963 2.214-.268-.246.738-4.271 1.565-5.21a2.265 2.265 0 1 1 3.398 2.996Z" fill="#fff"/>
	<path d="M298.678 209.094c.738 1.006 1.431 5.097 1.141 5.321-.291.224-4.025-1.61-4.762-2.616a2.28 2.28 0 0 1 .469-3.175 2.253 2.253 0 0 1 3.152.47Z" fill="#fff"/>
	<path d="M294.229 213.454c1.207-.336 5.277.536 5.366.894.089.335-2.974 3.152-4.181 3.488a2.242 2.242 0 0 1-2.772-1.588c-.336-1.229.38-2.481 1.587-2.794Z" fill="#fff"/>
	<path d="M296.978 218.887c.112-1.252 2.37-4.74 2.728-4.695.358.045 1.9 3.89 1.766 5.142-.112 1.252-1.229 2.146-2.481 2.035-1.23-.135-2.147-1.23-2.013-2.482Z" fill="#fff"/>
	<path d="M303.127 218.618c-1.118-.581-3.488-3.98-3.331-4.293.156-.313 4.315-.29 5.433.291a2.261 2.261 0 0 1 .961 3.063 2.273 2.273 0 0 1-3.063.939Z" fill="#fff"/>
	<path d="M300.556 214.191c-.067-.402-.447-.693-.85-.626-.402.067-.693.447-.626.85.068.402.448.693.85.626.402-.045.693-.447.626-.85Z" fill="#0B3563"/>
	<path d="M290.137 236.013c1.23 1.52 2.549 7.87 2.124 8.205-.425.358-6.372-2.236-7.602-3.756a3.52 3.52 0 0 1 .515-4.963 3.52 3.52 0 0 1 4.963.514ZM221.432 256.425s2.437-6.417 11.29-6.819c8.854-.403 14.935 4.829 22.246 2.415 7.311-2.415 19.406-7.87 30.853-4.226 11.448 3.622 13.37 8.63 13.37 8.63h-77.759Z" fill="#9BD399"/>
</svg>
