<svg width="602" height="401" fill="none" xmlns="http://www.w3.org/2000/svg">
	<path d="M299.5 42 0 221.5l301 179 300.5-179L299.5 42Z" fill="#E4E7FF" fill-opacity=".35"/>
	<path d="M299.5 27 0 206.5l301 179 300.5-179L299.5 27Z" fill="#E4E7FF" fill-opacity=".5"/>
	<path d="M299.5 14.5 0 194l301 179 300.5-179-302-179.5Z" fill="#E4E7FF" fill-opacity=".75"/>
	<path d="M236.556 271.748c-.476-2.53 2.184-6.114 3.573-7.59.397.211 2.612-.444 5.955 0 4.763.632 5.954 4.427 7.145 7.59 1.191 3.162-1.786 6.325-4.168 7.59-.753.4-5.955 1.265-8.336 0-2.382-1.265-3.573-4.428-4.169-7.59ZM289.553 243.264c-.448-2.372 2.055-5.732 3.363-7.116.373.198 2.458-.416 5.604 0 4.483.593 5.604 4.151 6.725 7.116 1.121 2.965-1.681 5.929-3.923 7.115-.709.375-5.604 1.186-7.846 0s-3.363-4.15-3.923-7.115Z" fill="#000"/>
	<path d="M244.13 276.663c-1.091-.512-.546-3.075 0-4.613.437-1.23 1.637-1.879 2.183-2.05.909.171 2.947.718 3.82 1.538 1.091 1.025-.546 3.588-1.092 4.613-.545 1.025-3.819 1.025-4.911.512Z" fill="#FFBBDF"/>
	<path d="M193.553 243.264c-.448-2.372 2.055-5.732 3.363-7.116.373.198 2.458-.416 5.604 0 4.483.593 5.604 4.151 6.725 7.116 1.121 2.965-1.681 5.929-3.923 7.115-.709.375-5.604 1.186-7.846 0s-3.363-4.15-3.923-7.115Z" fill="#000"/>
	<path d="M200.22 248.567c-1.247-.659-.624-3.954 0-5.931.499-1.582 1.871-2.416 2.495-2.636 1.039.22 3.368.923 4.365 1.977 1.248 1.318-.623 4.613-1.247 5.931-.624 1.318-4.366 1.318-5.613.659ZM295.13 246.663c-1.091-.512-.546-3.075 0-4.613.437-1.23 1.637-1.879 2.183-2.05.909.171 2.947.718 3.82 1.538 1.091 1.025-.546 3.588-1.092 4.613-.545 1.025-3.819 1.025-4.911.512Z" fill="#FFBBDF"/>
	<path d="m355.5 169-4 46M373.5 164l4 45M364.5 167l1 24M348.5 165l-5 39" stroke="#000"/>
	<path d="M348.5 168.812v-7.718l29-10.094v10.688c-.592 1.385-5.496 5.055-7.694 5.937-2.959 1.187-6.51 2.375-11.837 2.375-4.261 0-8.088-.792-9.469-1.188Z" fill="#A9AFE8"/>
	<path d="M364.439 164.665c-5.05 1.343-14.73-1.678-18.939-3.356L354.109 149c7.461.186 22.612.671 23.53 1.119 1.148.559 1.148 5.035 0 6.714-1.148 1.678-6.887 6.154-13.2 7.832Z" fill="#F9FAFF"/>
	<path d="m263.5 134 28.235-17 31.765 13.964" stroke="#000" stroke-width="2"/>
	<path d="M272.5 128.714 292.669 131l14.831-8" stroke="#000" stroke-width="2"/>
	<path d="M290.5 31v108" stroke="#000" stroke-width="3"/>
	<path d="M287.181 15.318c1.093-2.143 9.106-8.037 12.977-10.716 1.138-.223 3.824-.803 5.463-1.34 2.049-.669 4.781 0 6.83 1.34 1.639 1.072 2.049 4.465 2.049 6.028-.455 2.01-2.868 7.367-8.879 12.726-7.512 6.697-7.512 8.037-13.659 9.376-6.147 1.34-8.879-2.679-10.245-4.688-1.366-2.01 4.098-10.047 5.464-12.726Z" stroke="#B8BFFA" stroke-width="5"/>
	<path d="M291.32 17.676c.928-1.857 7.727-6.965 11.011-9.287.966-.194 3.245-.697 4.636-1.161 1.738-.58 4.056 0 5.795 1.16 1.39.93 1.738 3.87 1.738 5.225-.386 1.741-2.434 6.385-7.533 11.029-6.375 5.804-6.375 6.965-11.59 8.126-5.216 1.16-7.534-2.322-8.693-4.063-1.159-1.742 3.477-8.707 4.636-11.029Z" stroke="#fff" stroke-width="5"/>
	<path d="M242.315 269 195.5 241.71l31.015-21.484L274.5 215l-32.185 54Z" fill="#C7CFFF"/>
	<path d="M302.5 232.83V211h-1.76l-46.923 24.78c-2.932 3.343-9.032 10.148-9.971 10.62-.938.472-1.955 3.737-2.346 5.31V270l59.24-34.22 1.76-2.95Z" fill="#D3DEFD"/>
	<path d="M226.828 178.018c-18.599 8.419-52.698 26.112-67.422 33.907-.93.491-2.325 3.712-2.906 5.261v9.938L189.048 247c4.65-.195 14.763-.702 18.018-1.169 4.069-.585 19.762-8.184 26.155-9.938 5.115-1.403 21.505-14.225 29.061-20.461 0 1.169.349 3.975 1.744 5.846 1.743 2.338 4.068 0 7.556 0 3.487 0 16.274-4.092 22.086-5.846 5.812-1.754 20.924-10.522 20.924-11.692 0-1.169-5.231-8.184-7.556-8.768-1.86-.468-5.037-.975-6.393-1.17 16.274-12.081 49.403-36.595 51.728-37.998 2.906-1.754-.581-16.953-1.743-17.538-1.163-.584-27.318-16.368-33.13-14.03-4.65 1.871-11.237 6.625-13.949 8.769l-1.163 4.092c-.581 1.364-2.325 4.56-4.649 6.431-2.907 2.338-27.318 12.861-30.805 14.03-3.487 1.169-16.856 9.938-40.104 20.46Z" fill="#B80259"/>
	<path d="M226.828 175.458c-18.599 8.486-52.698 26.324-67.422 34.181-.93.496-2.325 3.743-2.906 5.305v10.018L189.048 245c4.65-.196 14.763-.707 18.018-1.179 4.069-.589 19.762-8.25 26.155-10.019 5.115-1.414 21.505-14.34 29.061-20.627 0 1.179.349 4.008 1.744 5.894 1.743 2.357 4.068 0 7.556 0 3.487 0 16.274-4.125 22.086-5.894 5.812-1.768 20.924-10.608 20.924-11.786 0-1.179-5.231-8.251-7.556-8.84-1.86-.472-5.037-.983-6.393-1.179 16.274-12.18 49.403-36.893 51.728-38.307 2.906-1.768-.581-17.091-1.743-17.681-1.163-.589-27.318-16.501-33.13-14.144-4.65 1.886-11.237 6.679-13.949 8.84l-1.163 4.126c-.581 1.375-2.325 4.596-4.649 6.482-2.907 2.358-27.318 12.966-30.805 14.145-3.487 1.178-16.856 10.018-40.104 20.627Z" fill="#E0247F"/>
	<path d="M254.79 237c-2.336 0-.974-21.156 0-31.733.778-.378 2.802-.907 4.671 0 1.868.906 1.946 3.022 1.751 3.966L262.38 220l4.671-2.267L301.5 203v10.2c-1.362 1.133-5.138 4.08-9.342 6.8-5.255 3.4-34.449 17-37.368 17Z" fill="#C7CFFF"/>
	<path d="M257.736 236c-2.238 0-.933-21.156 0-31.733.746-.378 2.686-.907 4.476 0 1.791.906 1.865 3.022 1.679 3.966L265.01 219l4.476-2.267L302.5 202v10.2c-1.306 1.133-4.924 4.08-8.953 6.8-5.036 3.4-33.013 17-35.811 17Z" fill="#D3DEFD"/>
	<path d="M234.076 158.184c.914 0 3.426-.789 4.569-1.184l2.855 5.329c-.952.987-3.312 3.197-5.14 4.145-2.284 1.184-2.284 0-3.997 0s-2.856-1.185-3.998-1.185c-1.142 0-2.284-1.776-1.713-2.96.571-1.184-.571-4.145 1.713-4.145h5.711ZM191.179 222.537c5.163-.472 7.236-2.555 7.627-3.537l4.694.589c-.196 2.358-1.408 7.192-4.694 7.664-4.107.589-5.28 4.715-14.667 3.536-9.387-1.179-9.387-5.894-10.561-8.252-1.173-2.358 11.148.589 17.601 0ZM170.284 211.158c2.73-.505 7.582-2.316 9.667-3.158l4.549 3.158c-1.516 2.947-5.459 8.842-9.098 8.842-4.549 0-5.118-.632-11.941-2.526-5.459-1.516-7.582-4.842-7.961-6.316 3.791.21 12.055.505 14.784 0Z" fill="#FFCCCD"/>
	<path d="m239.969 163-3.469-7.038 8.672-2.345 21.969-5.279c2.89-2.541 9.596-8.21 13.297-10.556 4.624-2.932 17.343-5.278 20.234-4.692 2.312.47 7.516 3.324 9.828 4.692l-1.734.587-5.782 2.345L239.969 163Z" fill="#4754C7"/>
	<path d="M312.523 208.332c-.442-1.363 5.709-8.139 8.841-11.357l6.63-3.975c1.29.189 3.979 1.022 4.421 2.839.552 2.272-1.658 5.679-4.421 9.086-2.762 3.407-14.919 5.11-15.471 3.407Z" fill="#132458"/>
	<path d="M319.5 172.451c0-3.691 20.813-23.839 31.219-33.451h9.425l2.356 13.265c-10.014 8.074-30.159 24.684-30.63 26.53-.589 2.307-2.356 17.879-5.302 20.186-2.356 1.846-4.908.769-5.89 0 .785-.769 2.121-2.538 1.178-3.46-1.178-1.154-2.356-18.456-2.356-23.07Z" fill="#FFCFE9"/>
	<path d="M305.736 137.323c5.106 1.534 7.542 1.918 8.123 1.918 1.547.853 4.989 2.814 6.382 3.837 1.74 1.279 6.962 5.115 9.283 7.673 2.32 2.558 0 4.476-1.741 5.755s-8.123 5.115-11.604 10.231-10.443 4.476-13.344 3.837c-2.901-.64-4.061-5.116-5.802-7.034-1.74-1.919-7.542-7.034-11.603-10.871-4.062-3.836-2.901-8.312-2.321-10.87.58-2.558 3.481-7.034 8.123-7.674 4.641-.639 8.122 1.279 14.504 3.198Z" fill="#D8DCFF"/>
	<path d="M302.327 191.058c0-1.887.782-18.864 1.173-27.118-.391-.589-1.408-1.886-2.346-2.358-1.173-.589-2.346-1.768-4.692-3.537-2.346-1.768-8.797-6.484-9.97-8.253-1.173-1.768-3.519-2.358-6.452-1.179-2.346.944-5.669 1.965-7.038 2.358-2.346.983-7.859 3.184-11.143 4.127-4.106 1.179-17.009 5.895-18.182 6.484-1.173.59-17.595 5.895-22.873 7.664-5.279 1.768-9.384 4.127-12.903 7.074-2.815 2.358-30.107 22.205-43.401 31.833l2.932 1.769c1.955-.197 6.687-.472 9.971 0 3.284.471 6.451 4.126 7.624 5.895 3.128 2.358 9.619 7.192 10.557 7.663 1.173.59 0 6.485 0 9.432 0 2.948 1.76.59 3.519 4.127 1.76 3.537 0 8.253 1.173 8.842 1.173.59 4.692-1.179 12.317-1.768 6.099-.472 26.001-6.485 35.19-9.432 2.15-.59 6.451-2.948 6.451-7.664 0-5.895 1.76-20.632 4.106-21.222 1.876-.471 3.519-.196 4.105 0l1.173 7.074c12.903-6.484 38.709-19.925 38.709-21.811Z" fill="#fff"/>
	<path d="M287.5 189.677 284.305 184c-.798.811-2.875 2.433-4.791 2.433-2.396 0-2.396 1.622-3.994 3.244-1.597 1.622-3.194 9.732-.798 8.11 2.396-1.622 2.396-1.622 5.59-4.055 2.556-1.947 3.727-1.892 3.993-1.622l3.195-2.433Z" fill="#FFCCCD"/>
	<path d="M320.333 150.423c2.8-2.365 8.167-2.562 10.5-2.365 1.556.788 4.667 3.075 4.667 5.913 0 3.548-1.75 9.462-4.083 12.418-2.334 2.957-12.834 10.645-20.417 14.784-6.067 3.312-19.639 9.265-25.667 11.827l-5.833-7.096 2.333-1.774c7.973-5.322 24.267-16.321 25.667-17.741 1.75-1.774 9.333-13.009 12.833-15.966Z" fill="#4754C7"/>
	<path d="m321.955 146 3.545-10.353-11.818-.647-1.182 3.882 9.455 7.118Z" fill="#FFCCCD"/>
	<path d="M316.353 119.268c.476-.936 5.753-3.902 8.332-5.268.794.195 2.5.702 2.976 1.171.595.585 4.166 3.512 4.762 5.853.595 2.342-2.381 11.708-4.167 14.049-1.785 2.342-5.356 2.927-10.117 2.927-4.761 0-8.332-1.171-9.523-4.098-1.19-2.926 7.142-13.463 7.737-14.634Z" fill="#FFD41A"/>
	<path d="M314.929 123.917c-1.276 0 .638-2.334 1.276-2.917h1.276c.426.194 1.277.7 1.277 1.167 0 .583-.638 1.166-1.915 1.75-1.276.583-.638 0-1.914 0ZM320.034 126.25c-.511-.933.638-1.944 1.276-2.333h2.552c.638 0 .638 1.75.638 2.333 0 .583 0 1.75-1.914 1.75s-1.914-.583-2.552-1.75Z" fill="#FF881A"/>
	<path d="M328.237 120.197c-.98-4.958-4.9-5.822-6.737-5.634l3.062-2.816c3.675-.564 11.882-1.353 15.311 0 4.287 1.69 6.125 8.45 5.512 14.646-.612 6.197-3.062 5.071-7.349 8.451-4.287 3.38-11.024 5.633-12.249 5.07-1.225-.564 3.675-13.521 2.45-19.717Z" fill="#FFE0B1"/>
	<path d="M325.68 220.406c-4.01-1.141 3.437-7.418 4.01-8.559.448-.892 7.128-4.761 10.641-6.712 1.609-.045 5.055-.135 5.972-.135 1.145 0 1.718 4.565.573 6.847-1.146 2.283-6.302 5.706-9.739 7.418-3.437 1.712-7.447 2.282-11.457 1.141Z" fill="#132458"/>
	<path d="M373.659 156.078c7.459-6.531 6.216-14.773 4.662-18.078l-21.563 4.665c-8.547 8.164-25.758 26.009-26.225 32.074-.466 6.065 4.08 22.743 6.411 30.324-1.36 2.138-4.196 6.765-4.662 8.164-.466 1.4 5.245.583 8.159 0 1.165-1.944 3.38-6.065 2.913-6.998-.582-1.166 1.166-8.747 2.332-18.661.932-7.931-1.166-12.635-2.332-13.995 6.994-3.111 22.845-10.964 30.305-17.495Z" fill="#FFBBDF"/>
	<path d="M319.883 107.746c.943.449 4.325-.935 5.898-1.684l4.719 5.052c-2.163.936-6.724 2.92-7.668 3.369-1.18.561-2.36 2.806-4.129 3.368-1.77.561-4.719-.562-5.899-1.684-1.179-1.123-.59-.562-2.359 0-1.77.561-3.539-.562-5.309-1.684-1.769-1.123.59-4.491 1.77-6.737 1.18-2.245 2.694-1.684 6.488-1.684 3.795 0 5.309 1.123 6.489 1.684Z" fill="#FFF9E9"/>
	<path d="M351.008 77.162c1.384-.47 5.571.195 7.492.587-1.537 5.875-4.841 17.978-5.763 19.388-1.152 1.763-6.915 11.75-8.644 12.925-1.383.94-12.101 2.938-14.983 2.938l-4.61-7.638 5.763-2.35c2.881-1.175 10.373-9.4 12.101-11.75 1.729-2.35 6.916-13.513 8.644-14.1Z" fill="#FFCFE8"/>
	<path d="M346.339 94.24c.459-1.855 6.317-11.6 9.189-16.24l17.229 2.32 4.594 5.22-2.297 5.8c-1.149 2.9-5.743 11.021-5.169 18.562.575 7.54 8.615 26.101 8.615 27.841 0 1.74-4.02 6.961-8.615 9.281-4.594 2.32-6.317 0-12.06-1.74s-7.466-6.961-9.764-11.021c-2.297-4.06-2.871-13.921-3.445-16.241-.575-2.32 1.148-21.461 1.723-23.781Z" fill="#FF64AE"/>
	<path d="M343.997 128.265c.475-.453 4.554-1.699 6.533-2.265l2.97 5.664c-.792.377-2.732 1.132-4.157 1.132-1.782 0-4.158 2.266-4.752 3.399-.594 1.132-3.563 3.964-4.751 5.097-1.188 1.133-7.127.566-10.69.566-3.564 0-.594-1.699 1.781-2.265 2.376-.566 2.97-3.398 4.158-4.531.95-.906 1.584-2.266 1.782-2.832-.792-.189-2.614-.34-3.564.566-.95.907-1.584 1.286-1.782 1.362-.198-.265-.475-1.022 0-1.928.594-1.133 3.564-2.832 6.533-2.832 2.97 0 5.345-.566 5.939-1.133Z" fill="#FFF9E9"/>
	<path d="M368.808 99.392c.454-4.658 4.732-10.869 6.814-13.392.947 0 3.294.117 5.111.582 2.272.583 1.704 3.494 1.704 4.659 0 1.164-2.839 18.05-3.975 22.126-1.136 4.076-5.679 9.899-9.086 13.392-2.726 2.795-12.115 4.659-16.469 5.241l-3.407-6.987 3.407-1.747c2.272-1.165 13.061-7.57 13.629-9.317.568-1.746 1.704-8.734 2.272-14.557Z" fill="#FFBBDF"/>
	<path d="M353.533 73.437c-1.501-2.008-1.042-9.206-.625-12.554 1.042-.628 3.376-1.883 4.377-1.883 1.25 0 7.503 0 8.129.628.625.627 1.25 4.394 1.25 5.021 0 .628 3.127 2.511 7.504 1.256 4.377-1.256 1.25 3.138 1.25 5.65 0 2.008-3.335 2.929-5.002 3.138.834 1.255 2.626 4.017 3.126 5.022.626 1.255 0 4.394-1.876 5.021-1.875.628-5.002 2.511-8.754 3.139-3.001.502-3.751-.628-3.751-1.256l1.25-8.16h-3.126c-1.876 0-1.876-2.51-3.752-5.022Z" fill="#FFCCCD"/>
	<path d="m352.023 63.213 7.699-2.365c.592.789 2.013 2.602 2.96 3.548 1.185 1.182 3.553 2.956 5.33 2.956h3.553c1.185 0 0 3.547-1.184 5.912-1.185 2.365-1.185 1.774-1.185 4.73 0 2.957 2.369 5.321 3.554 5.913 1.184.59 4.145-1.774 2.96-2.956-1.184-1.183 0-7.687 0-10.052 0-2.365 1.777-14.78 0-17.737-1.776-2.956-9.475-3.547-13.028-2.956-3.553.591-9.474 2.956-10.659 5.912-.947 2.365-.395 5.716 0 7.095Z" fill="#000"/>
	<path d="m314.5 108.857-15-2.857.625 2.286L314.5 110v-1.143Z" fill="#fff"/>
	<path d="M296.479 107.503c-1.773-1.001-.739-2.086 0-2.503 1.231 0 3.693.125 3.693.626 0 .626.738 2.503 0 3.129-.739.625-1.477 0-3.693-1.252Z" fill="#FFD41A"/>
	<path d="M412.5 234.327v-77.475c.58-.782 2.32-2.23 4.64-1.76 2.32.469 15.66 9.195 22.04 13.499.773.978 2.32 3.287 2.32 4.695V249" stroke="#B8BFFA" stroke-width="3"/>
	<path d="M412.553 165 375.5 186.449 405.026 205l36.474-21.449L412.553 165Z" fill="#A9AFE8"/>
	<path d="M412.553 164 375.5 185.449 405.026 204l36.474-21.449L412.553 164Z" fill="#F9FAFF"/>
	<path d="M412.553 215 375.5 236.449 405.026 255l36.474-21.449L412.553 215Z" fill="#A9AFE8"/>
	<path d="M412.553 214 375.5 235.449 405.026 254l36.474-21.449L412.553 214Z" fill="#F9FAFF"/>
	<path d="M374.5 252.864v-75.385c.195-.773 1.287-2.088 4.094-1.16 3.51 1.16 25.151 13.917 25.736 16.817.585 2.899 0 3.479 0 5.219 0 1.391.78 49.676 1.17 73.645" stroke="#B8BFFA" stroke-width="3"/>
</svg>
