<svg width="525" height="352" fill="none" xmlns="http://www.w3.org/2000/svg">
	<path d="M525 322.336c-15.54 11.118-55.675 7.184-79.728-38.483-30.067-57.084-63.175-68.629-119.931-68.629-56.162 0-99.998-33.352-116.552-81.456-16.554-48.104-79.053-26.297-117.228-44.256C61.021 75.145 41.9 24.518 36.157 1" stroke="#E3E6FF"/>
	<path d="M525 345.735c-16.658 11.927-59.679 7.706-85.462-41.286-32.23-61.24-67.718-73.626-128.556-73.626-60.202 0-107.19-35.78-124.934-87.387-17.745-51.607-84.738-28.212-125.659-47.479C27.653 80.544 7.156 26.23 1 1" stroke="#E3E6FF"/>
	<path d="M525 298.938c-14.423 10.308-51.671 6.661-73.995-35.681-27.904-52.927-58.631-63.631-111.305-63.631-52.123 0-92.807-30.924-108.17-75.526-15.363-44.601-73.367-24.382-108.797-41.033C94.389 69.746 76.643 22.805 71.313 1" stroke="#E3E6FF"/>
</svg>
